<svg width="1920" height="1080" viewBox="0 0 1920 1080" fill="none" xmlns="http://www.w3.org/2000/svg">
<g clip-path="url(#clip0)">
<rect width="221.534" height="35.5095" rx="12" transform="matrix(-1 0 0 1 1067 712)" fill="white"/>
<rect width="414.298" height="35.5095" rx="12" transform="matrix(-1 0 0 1 828.203 712)" fill="white"/>
<rect width="152.485" height="35.5095" rx="12" transform="matrix(-1 0 0 1 396.643 712)" fill="#C1E616"/>
<rect width="259.895" height="35.5095" rx="12" transform="matrix(-1 0 0 1 226.895 712)" fill="white"/>
<rect width="161.116" height="35.5095" rx="12" transform="matrix(-1 0 0 1 575.021 764.784)" fill="white"/>
<rect width="284.83" height="35.5095" rx="12" transform="matrix(-1 0 0 1 396.643 764.784)" fill="white"/>
<rect width="129.468" height="35.5095" rx="12" transform="matrix(-1 0 0 1 96.4688 764.784)" fill="#FF0079"/>
<rect width="221.534" height="35.5095" rx="12" transform="matrix(-1 0 0 1 1067 817.569)" fill="white"/>
<rect width="414.298" height="35.5095" rx="12" transform="matrix(-1 0 0 1 381.299 817.569)" fill="white"/>
<rect width="152.485" height="35.5095" rx="12" transform="matrix(-1 0 0 1 828.203 817.569)" fill="#00AED3"/>
<rect width="259.895" height="35.5095" rx="12" transform="matrix(-1 0 0 1 658.455 817.569)" fill="white"/>
<rect width="471.84" height="35.5095" rx="12" transform="matrix(-1 0 0 1 1067 870.353)" fill="white"/>
<rect width="463.208" height="35.5095" rx="12" transform="matrix(-1 0 0 1 575.021 870.353)" fill="white"/>
<rect width="129.468" height="35.5095" rx="12" transform="matrix(-1 0 0 1 96.4688 870.353)" fill="white"/>
<rect width="221.534" height="35.5095" rx="12" transform="matrix(-1 0 0 1 1067 923.137)" fill="white"/>
<rect width="91.1072" height="35.5095" rx="12" transform="matrix(-1 0 0 1 1067 975.922)" fill="white"/>
<rect width="414.298" height="35.5095" rx="12" transform="matrix(-1 0 0 1 828.203 923.137)" fill="#FF077D"/>
<rect width="152.485" height="35.5095" rx="12" transform="matrix(-1 0 0 1 396.643 923.137)" fill="white"/>
<rect width="259.895" height="35.5095" rx="12" transform="matrix(-1 0 0 1 226.895 923.137)" fill="white"/>
<rect width="360.593" height="35.5095" rx="12" transform="matrix(-1 0 0 1 955.754 975.922)" fill="white"/>
<rect width="463.208" height="35.5095" rx="12" transform="matrix(-1 0 0 1 575.021 975.922)" fill="white"/>
<rect width="129.468" height="35.5095" rx="12" transform="matrix(-1 0 0 1 96.4688 975.922)" fill="white"/>
<rect width="414.298" height="35.5095" rx="12" transform="matrix(-1 0 0 1 381.299 1028.71)" fill="white"/>
<rect width="152.485" height="35.5095" rx="12" transform="matrix(-1 0 0 1 828.203 1028.71)" fill="white"/>
<rect width="259.895" height="35.5095" rx="12" transform="matrix(-1 0 0 1 658.455 1028.71)" fill="white"/>
<rect width="152.485" height="35.5095" rx="12" transform="matrix(-1 0 0 1 204.643 295)" fill="white"/>
<rect width="259.895" height="35.5095" rx="12" transform="matrix(-1 0 0 1 34.8945 295)" fill="#FF0079"/>
<rect width="161.116" height="35.5095" rx="12" transform="matrix(-1 0 0 1 383.021 347.784)" fill="white"/>
<rect width="414.298" height="35.5095" rx="12" transform="matrix(-1 0 0 1 189.299 400.569)" fill="white"/>
<rect width="259.895" height="35.5095" rx="12" transform="matrix(-1 0 0 1 466.455 400.569)" fill="#00AED3"/>
<rect width="471.84" height="35.5095" rx="12" transform="matrix(-1 0 0 1 875 453.353)" fill="white"/>
<rect width="463.208" height="35.5095" rx="12" transform="matrix(-1 0 0 1 383.021 453.353)" fill="white"/>
<rect width="91.1072" height="35.5095" rx="12" transform="matrix(-1 0 0 1 875 558.922)" fill="#C1E616"/>
<rect width="414.298" height="35.5095" rx="12" transform="matrix(-1 0 0 1 636.203 506.137)" fill="white"/>
<rect width="152.485" height="35.5095" rx="12" transform="matrix(-1 0 0 1 204.643 506.137)" fill="#FF0079"/>
<rect width="259.895" height="35.5095" rx="12" transform="matrix(-1 0 0 1 34.8945 506.137)" fill="white"/>
<rect width="360.593" height="35.5095" rx="12" transform="matrix(-1 0 0 1 763.754 558.922)" fill="white"/>
<rect width="463.208" height="35.5095" rx="12" transform="matrix(-1 0 0 1 383.021 558.922)" fill="white"/>
<rect width="221.534" height="35.5095" rx="12" transform="matrix(-1 0 0 1 875 611.706)" fill="white"/>
<rect width="259.895" height="35.5095" rx="12" transform="matrix(-1 0 0 1 466.455 611.706)" fill="white"/>
<rect width="463.208" height="35.5095" rx="12" transform="matrix(-1 0 0 1 383.021 664.49)" fill="white"/>
<rect width="414.298" height="35.5095" rx="12" transform="matrix(-1 0 0 1 1906.2 712)" fill="#FF077D"/>
<rect width="152.485" height="35.5095" rx="12" transform="matrix(-1 0 0 1 1474.64 712)" fill="white"/>
<rect width="161.116" height="35.5095" rx="12" transform="matrix(-1 0 0 1 1653.02 764.784)" fill="white"/>
<rect width="284.83" height="35.5095" rx="12" transform="matrix(-1 0 0 1 1474.64 764.784)" fill="white"/>
<rect width="414.298" height="35.5095" rx="12" transform="matrix(-1 0 0 1 1459.3 817.569)" fill="white"/>
<rect width="152.485" height="35.5095" rx="12" transform="matrix(-1 0 0 1 1906.2 817.569)" fill="white"/>
<rect width="259.895" height="35.5095" rx="12" transform="matrix(-1 0 0 1 1736.46 817.569)" fill="white"/>
<rect width="471.84" height="35.5095" rx="12" transform="matrix(-1 0 0 1 2145 870.353)" fill="white"/>
<rect width="463.208" height="35.5095" rx="12" transform="matrix(-1 0 0 1 1653.02 870.353)" fill="white"/>
<rect width="129.468" height="35.5095" rx="12" transform="matrix(-1 0 0 1 1174.47 870.353)" fill="white"/>
<rect width="414.298" height="35.5095" rx="12" transform="matrix(-1 0 0 1 1906.2 923.137)" fill="white"/>
<rect width="152.485" height="35.5095" rx="12" transform="matrix(-1 0 0 1 1474.64 923.137)" fill="white"/>
<rect width="259.895" height="35.5095" rx="12" transform="matrix(-1 0 0 1 1304.89 923.137)" fill="white"/>
<rect width="360.593" height="35.5095" rx="12" transform="matrix(-1 0 0 1 2033.75 975.922)" fill="white"/>
<rect width="463.208" height="35.5095" rx="12" transform="matrix(-1 0 0 1 1653.02 975.922)" fill="#00AED3"/>
<rect width="129.468" height="35.5095" rx="12" transform="matrix(-1 0 0 1 1174.47 975.922)" fill="white"/>
<rect width="414.298" height="35.5095" rx="12" transform="matrix(-1 0 0 1 1459.3 1028.71)" fill="white"/>
<rect width="152.485" height="35.5095" rx="12" transform="matrix(-1 0 0 1 1906.2 1028.71)" fill="white"/>
<rect width="259.895" height="35.5095" rx="12" transform="matrix(-1 0 0 1 1736.46 1028.71)" fill="white"/>
</g>
<defs>
<clipPath id="clip0">
<rect width="1920" height="1080" fill="white"/>
</clipPath>
</defs>
</svg>
