<svg width="30" height="30" viewBox="0 0 30 30" fill="none" xmlns="http://www.w3.org/2000/svg">
<path d="M15.0214 19.2542C17.4732 19.2542 19.4608 17.3282 19.4608 14.9523C19.4608 12.5764 17.4732 10.6504 15.0214 10.6504C12.5696 10.6504 10.582 12.5764 10.582 14.9523C10.582 17.3282 12.5696 19.2542 15.0214 19.2542Z" fill="#222A35"/>
<path d="M21.8923 15.1921C21.8923 18.8691 18.8159 21.8495 15.021 21.8495C11.2262 21.8495 8.14974 18.8691 8.14974 15.1921C8.14974 14.5332 8.24917 13.8966 8.43332 13.2954H6.40283V22.6336C6.40283 23.1173 6.79813 23.5123 7.2815 23.5123H22.6756C23.1593 23.5123 23.5549 23.1173 23.5549 22.6336V13.2954H21.6088C21.7926 13.8966 21.8923 14.5332 21.8923 15.1921Z" fill="#222A35"/>
<path d="M20.051 10.7753H22.5495C23.097 10.7753 23.5445 10.3278 23.5445 9.78032V7.39813C23.5445 6.8503 23.097 6.40283 22.5495 6.40283H20.051C19.5031 6.40283 19.0557 6.8503 19.0557 7.39813V9.78032C19.0554 10.3275 19.5031 10.7753 20.051 10.7753Z" fill="#222A35"/>
<path d="M15 0C6.7157 0 0 6.7157 0 15C0 23.2843 6.7157 30 15 30C23.2843 30 30 23.2843 30 15C30 6.7157 23.2843 0 15 0ZM23.2159 26.0535H6.78445C5.22322 26.0535 3.9468 24.898 3.9468 23.2165V6.78414C3.9468 5.10199 5.22322 3.9468 6.78445 3.9468H23.2159C24.7768 3.9468 26.0535 5.10199 26.0535 6.78414V23.2165C26.0535 24.898 24.7765 26.0535 23.2159 26.0535Z" fill="#222A35"/>
</svg>
