<svg width="1920" height="1080" viewBox="0 0 1920 1080" fill="none" xmlns="http://www.w3.org/2000/svg">
<g clip-path="url(#clip0)">
<rect width="221.534" height="35.5095" rx="12" transform="matrix(-1 0 0 1 1026 923)" fill="#EFEFEF"/>
<rect width="414.298" height="35.5095" rx="12" transform="matrix(-1 0 0 1 787.203 923)" fill="#EFEFEF"/>
<rect width="152.485" height="35.5095" rx="12" transform="matrix(-1 0 0 1 355.643 923)" fill="#C1E616"/>
<rect width="259.895" height="35.5095" rx="12" transform="matrix(-1 0 0 1 185.895 923)" fill="#EFEFEF"/>
<rect width="161.116" height="35.5095" rx="12" transform="matrix(-1 0 0 1 534.021 975.784)" fill="#EFEFEF"/>
<rect width="284.83" height="35.5095" rx="12" transform="matrix(-1 0 0 1 355.643 975.784)" fill="#EFEFEF"/>
<rect width="129.468" height="35.5095" rx="12" transform="matrix(-1 0 0 1 55.4688 975.784)" fill="#FF0079"/>
<rect width="221.534" height="35.5095" rx="12" transform="matrix(-1 0 0 1 1026 1028.57)" fill="#EFEFEF"/>
<rect width="414.298" height="35.5095" rx="12" transform="matrix(-1 0 0 1 340.299 1028.57)" fill="#EFEFEF"/>
<rect width="152.485" height="35.5095" rx="12" transform="matrix(-1 0 0 1 787.203 1028.57)" fill="#00AED3"/>
<rect width="259.895" height="35.5095" rx="12" transform="matrix(-1 0 0 1 617.455 1028.57)" fill="#EFEFEF"/>
<rect width="152.485" height="35.5095" rx="12" transform="matrix(-1 0 0 1 204.643 505)" fill="#EFEFEF"/>
<rect width="259.895" height="35.5095" rx="12" transform="matrix(-1 0 0 1 34.8945 505)" fill="#FF0079"/>
<rect width="161.116" height="35.5095" rx="12" transform="matrix(-1 0 0 1 383.021 557.784)" fill="#EFEFEF"/>
<rect width="414.298" height="35.5095" rx="12" transform="matrix(-1 0 0 1 189.299 610.569)" fill="#EFEFEF"/>
<rect width="259.895" height="35.5095" rx="12" transform="matrix(-1 0 0 1 466.455 610.569)" fill="#00AED3"/>
<rect width="471.84" height="35.5095" rx="12" transform="matrix(-1 0 0 1 875 663.353)" fill="#EFEFEF"/>
<rect width="463.208" height="35.5095" rx="12" transform="matrix(-1 0 0 1 383.021 663.353)" fill="#EFEFEF"/>
<rect width="91.1072" height="35.5095" rx="12" transform="matrix(-1 0 0 1 875 768.922)" fill="#C1E616"/>
<rect width="414.298" height="35.5095" rx="12" transform="matrix(-1 0 0 1 636.203 716.137)" fill="#EFEFEF"/>
<rect width="152.485" height="35.5095" rx="12" transform="matrix(-1 0 0 1 204.643 716.137)" fill="#FF0079"/>
<rect width="259.895" height="35.5095" rx="12" transform="matrix(-1 0 0 1 34.8945 716.137)" fill="#EFEFEF"/>
<rect width="360.593" height="35.5095" rx="12" transform="matrix(-1 0 0 1 763.754 768.922)" fill="#EFEFEF"/>
<rect width="463.208" height="35.5095" rx="12" transform="matrix(-1 0 0 1 383.021 768.922)" fill="#EFEFEF"/>
<rect width="221.534" height="35.5095" rx="12" transform="matrix(-1 0 0 1 875 821.706)" fill="#EFEFEF"/>
<rect width="259.895" height="35.5095" rx="12" transform="matrix(-1 0 0 1 466.455 821.706)" fill="#EFEFEF"/>
<rect width="463.208" height="35.5095" rx="12" transform="matrix(-1 0 0 1 383.021 874.49)" fill="#EFEFEF"/>
<rect width="414.298" height="35.5095" rx="12" transform="matrix(-1 0 0 1 1906.2 922)" fill="#FF077D"/>
<rect width="152.485" height="35.5095" rx="12" transform="matrix(-1 0 0 1 1474.64 922)" fill="#EFEFEF"/>
<rect width="161.116" height="35.5095" rx="12" transform="matrix(-1 0 0 1 1653.02 974.784)" fill="#EFEFEF"/>
<rect width="284.83" height="35.5095" rx="12" transform="matrix(-1 0 0 1 1474.64 974.784)" fill="#EFEFEF"/>
<rect width="414.298" height="35.5095" rx="12" transform="matrix(-1 0 0 1 1459.3 1027.57)" fill="#EFEFEF"/>
<rect width="152.485" height="35.5095" rx="12" transform="matrix(-1 0 0 1 1906.2 1027.57)" fill="#EFEFEF"/>
<rect width="259.895" height="35.5095" rx="12" transform="matrix(-1 0 0 1 1736.46 1027.57)" fill="#EFEFEF"/>
<path d="M307.849 505.43C347.149 505.43 379.008 473.571 379.008 434.27C379.008 394.97 347.149 363.111 307.849 363.111C268.549 363.111 236.689 394.97 236.689 434.27C236.689 473.571 268.549 505.43 307.849 505.43Z" stroke="#263238" stroke-width="1.23197" stroke-linecap="round" stroke-linejoin="round"/>
<path d="M317.055 492.486C349.221 487.414 371.185 457.227 366.114 425.061C361.042 392.895 330.855 370.931 298.689 376.002C266.523 381.074 244.559 411.261 249.63 443.427C254.702 475.593 284.889 497.557 317.055 492.486Z" stroke="#263238" stroke-width="1.23197" stroke-linecap="round" stroke-linejoin="round"/>
<path d="M270.227 434.27H307.847V488.526" stroke="#263238" stroke-width="1.23197" stroke-linecap="round" stroke-linejoin="round"/>
<path d="M635.701 977.476C635.701 975.117 636.401 972.81 637.712 970.848C639.023 968.886 640.886 967.357 643.066 966.454C645.246 965.551 647.645 965.315 649.959 965.775C652.274 966.235 654.399 967.372 656.068 969.04C657.736 970.709 658.873 972.835 659.333 975.149C659.793 977.463 659.557 979.862 658.654 982.042C657.751 984.222 656.222 986.085 654.26 987.396C652.298 988.707 649.991 989.407 647.632 989.407C646.064 989.41 644.511 989.103 643.063 988.505C641.614 987.906 640.297 987.027 639.189 985.919C638.081 984.811 637.202 983.494 636.603 982.045C636.005 980.597 635.698 979.044 635.701 977.476V977.476Z" fill="#263238" stroke="#263238" stroke-width="1.23197" stroke-linecap="round" stroke-linejoin="round"/>
<path d="M641.656 977.476C641.652 976.293 641.999 975.136 642.653 974.15C643.307 973.164 644.238 972.395 645.33 971.939C646.422 971.483 647.624 971.362 648.785 971.59C649.946 971.818 651.013 972.385 651.851 973.22C652.689 974.055 653.26 975.12 653.493 976.28C653.725 977.44 653.608 978.643 653.156 979.736C652.705 980.829 651.939 981.764 650.955 982.422C649.972 983.079 648.816 983.43 647.633 983.43C646.052 983.43 644.535 982.804 643.415 981.688C642.294 980.572 641.662 979.057 641.656 977.476V977.476Z" fill="white" stroke="#263238" stroke-width="1.23197" stroke-linecap="round" stroke-linejoin="round"/>
<path d="M507.9 977.476C507.9 975.117 508.6 972.81 509.911 970.848C511.222 968.886 513.085 967.357 515.265 966.454C517.445 965.551 519.844 965.315 522.158 965.775C524.473 966.235 526.598 967.372 528.267 969.04C529.936 970.709 531.072 972.835 531.532 975.149C531.992 977.463 531.756 979.862 530.853 982.042C529.95 984.222 528.421 986.085 526.459 987.396C524.497 988.707 522.19 989.407 519.831 989.407C518.264 989.407 516.713 989.098 515.265 988.499C513.818 987.899 512.503 987.02 511.395 985.913C510.287 984.805 509.408 983.489 508.809 982.042C508.209 980.595 507.9 979.043 507.9 977.476V977.476Z" fill="#263238" stroke="#263238" stroke-width="1.23197" stroke-linecap="round" stroke-linejoin="round"/>
<path d="M513.879 977.476C513.875 976.292 514.222 975.134 514.877 974.148C515.532 973.161 516.465 972.392 517.558 971.937C518.651 971.482 519.854 971.361 521.016 971.591C522.177 971.821 523.244 972.391 524.081 973.228C524.918 974.065 525.488 975.132 525.718 976.294C525.948 977.455 525.828 978.658 525.372 979.751C524.917 980.844 524.148 981.778 523.162 982.433C522.176 983.088 521.017 983.435 519.833 983.43C518.256 983.425 516.745 982.795 515.629 981.68C514.514 980.565 513.885 979.054 513.879 977.476V977.476Z" fill="white" stroke="#263238" stroke-width="1.23197" stroke-linecap="round" stroke-linejoin="round"/>
<path d="M466.156 977.476C466.156 975.117 466.856 972.81 468.167 970.848C469.478 968.886 471.341 967.357 473.521 966.454C475.701 965.551 478.1 965.315 480.414 965.775C482.729 966.235 484.854 967.372 486.523 969.04C488.191 970.709 489.328 972.835 489.788 975.149C490.248 977.463 490.012 979.862 489.109 982.042C488.206 984.222 486.677 986.085 484.715 987.396C482.753 988.707 480.446 989.407 478.087 989.407C476.519 989.41 474.966 989.103 473.518 988.505C472.069 987.906 470.753 987.027 469.644 985.919C468.536 984.811 467.657 983.494 467.058 982.045C466.46 980.597 466.153 979.044 466.156 977.476V977.476Z" fill="#263238" stroke="#263238" stroke-width="1.23197" stroke-linecap="round" stroke-linejoin="round"/>
<path d="M472.109 977.476C472.105 976.293 472.452 975.136 473.106 974.15C473.76 973.164 474.692 972.395 475.783 971.939C476.875 971.483 478.077 971.362 479.238 971.59C480.399 971.818 481.466 972.385 482.304 973.22C483.142 974.055 483.713 975.12 483.946 976.28C484.178 977.44 484.061 978.643 483.609 979.736C483.158 980.829 482.392 981.764 481.408 982.422C480.425 983.079 479.269 983.43 478.086 983.43C476.505 983.43 474.988 982.804 473.868 981.688C472.748 980.572 472.115 979.057 472.109 977.476V977.476Z" fill="white" stroke="#263238" stroke-width="1.23197" stroke-linecap="round" stroke-linejoin="round"/>
<path d="M563.562 963.829H538.341V834.712H563.496V963.829H563.562Z" fill="#263238" stroke="#263238" stroke-width="1.23197" stroke-linecap="round" stroke-linejoin="round"/>
<path d="M531.629 963.829H570.297V872.599H531.629V963.829Z" fill="#263238" stroke="#263238" stroke-width="1.23197" stroke-linecap="round" stroke-linejoin="round"/>
<path d="M609.097 813.058H576.807V743.616H609.164V812.947L609.097 813.058Z" fill="#263238" stroke="#263238" stroke-width="1.23197" stroke-linecap="round" stroke-linejoin="round"/>
<path d="M529.04 743.46H655.392C658.345 743.458 661.269 742.865 663.99 741.716C666.711 740.567 669.175 738.886 671.236 736.77C673.297 734.655 674.915 732.149 675.993 729.399C677.071 726.649 677.588 723.711 677.513 720.759L674.481 597.417C674.335 591.642 671.938 586.151 667.801 582.119C663.664 578.086 658.114 575.829 652.337 575.831H548.017C542.726 575.828 537.608 577.72 533.591 581.164C529.574 584.609 526.923 589.378 526.119 594.608L507.164 717.949C506.678 721.104 506.881 724.326 507.757 727.395C508.633 730.464 510.163 733.308 512.24 735.731C514.318 738.154 516.895 740.099 519.795 741.433C522.694 742.767 525.848 743.459 529.04 743.46V743.46Z" fill="#37474F" stroke="#263238" stroke-width="1.23197" stroke-linecap="round" stroke-linejoin="round"/>
<path d="M570.34 839.149L625.755 875.655" stroke="#263238" stroke-width="1.23197" stroke-linecap="round" stroke-linejoin="round"/>
<path d="M627.853 870.124L637.308 876.48C638.067 876.997 638.702 877.675 639.167 878.467C639.633 879.259 639.917 880.143 640 881.058C640.083 881.972 639.963 882.894 639.648 883.756C639.333 884.619 638.831 885.401 638.177 886.046L637.508 886.671C636.42 887.738 634.975 888.365 633.451 888.431C631.928 888.497 630.434 887.997 629.257 887.027L620.65 879.869C619.999 879.338 619.467 878.677 619.085 877.928C618.704 877.18 618.482 876.361 618.434 875.522C618.386 874.683 618.512 873.844 618.805 873.057C619.098 872.27 619.552 871.552 620.137 870.949V870.949C621.124 869.932 622.436 869.292 623.846 869.142C625.255 868.991 626.673 869.339 627.853 870.124V870.124Z" fill="#263238" stroke="#263238" stroke-width="1.23197" stroke-linecap="round" stroke-linejoin="round"/>
<path d="M448.206 845.46H653.7C658.958 845.46 664 843.371 667.718 839.653C671.436 835.936 673.525 830.893 673.525 825.635V825.635C673.525 820.377 671.436 815.335 667.718 811.617C664 807.899 658.958 805.811 653.7 805.811H448.206C442.948 805.811 437.905 807.899 434.187 811.617C430.47 815.335 428.381 820.377 428.381 825.635V825.635C428.381 830.893 430.47 835.936 434.187 839.653C437.905 843.371 442.948 845.46 448.206 845.46V845.46Z" fill="#37474F" stroke="#263238" stroke-width="1.23197" stroke-linecap="round" stroke-linejoin="round"/>
<path d="M428.515 823.227C429.253 818.359 431.728 813.922 435.483 810.737C439.237 807.552 444.018 805.834 448.942 805.9H555.536C560.488 805.815 565.301 807.536 569.077 810.741C572.852 813.946 575.332 818.416 576.052 823.316C576.399 826.108 576.15 828.942 575.319 831.629C574.489 834.317 573.096 836.797 571.234 838.906C569.372 841.015 567.083 842.704 564.519 843.86C561.955 845.017 559.174 845.616 556.361 845.616H448.206C445.384 845.618 442.595 845.017 440.024 843.855C437.453 842.692 435.159 840.995 433.295 838.877C431.432 836.758 430.042 834.266 429.217 831.568C428.393 828.869 428.154 826.026 428.515 823.227V823.227Z" fill="#37474F" stroke="#263238" stroke-width="1.23197" stroke-linecap="round" stroke-linejoin="round"/>
<path d="M462.318 971.032H659.629C659.623 968.167 658.481 965.422 656.453 963.398C654.425 961.375 651.678 960.238 648.813 960.238H473.112C470.249 960.238 467.504 961.375 465.48 963.4C463.455 965.424 462.318 968.169 462.318 971.032Z" fill="#263238" stroke="#263238" stroke-width="1.23197" stroke-linecap="round" stroke-linejoin="round"/>
<path d="M497.444 971.032H561.667V960.238H508.148C505.283 960.238 502.535 961.375 500.508 963.398C498.48 965.422 497.338 968.167 497.332 971.032H497.444Z" fill="#263238" stroke="#263238" stroke-width="1.23197" stroke-linecap="round" stroke-linejoin="round"/>
<path d="M483.662 722.9L469.435 746.337C469.435 746.337 419.683 751.332 391.251 757.71C362.818 764.088 357.132 795.397 355.705 801.797C354.121 808.933 345.313 958.098 348.145 958.811C350.977 959.525 372.318 961.643 372.318 961.643C372.318 961.643 408.31 816.693 418.97 814.575C429.629 812.456 587.424 816.002 610.884 803.202C634.343 790.402 640.03 753.451 626.494 727.872C612.957 702.294 483.662 722.9 483.662 722.9Z" fill="#263238" stroke="#263238" stroke-width="1.23197" stroke-linecap="round" stroke-linejoin="round"/>
<path d="M580.331 751.332C580.331 751.332 514.211 751.332 482.211 754.164C450.21 756.996 430.319 781.169 431.746 802.511C433.173 823.852 459.019 963.784 459.019 963.784L483.883 961.554L497.263 811.609C497.263 811.609 519.563 826.059 606.065 803.849" fill="#263238"/>
<path d="M580.331 751.332C580.331 751.332 514.211 751.332 482.211 754.164C450.21 756.996 430.319 781.169 431.746 802.511C433.173 823.852 459.019 963.784 459.019 963.784L483.883 961.554L497.263 811.609C497.263 811.609 519.563 826.059 606.065 803.849" stroke="#263238" stroke-width="1.23197" stroke-linecap="round" stroke-linejoin="round"/>
<path d="M735.987 523.158C733.757 521.731 726.755 540.218 726.755 540.218C722.254 539.977 717.742 539.977 713.241 540.218C705.436 540.932 699.036 551.591 699.036 558.705C699.036 565.818 666.322 622.661 666.322 622.661C666.322 622.661 637.889 575.831 627.944 567.937C617.998 560.043 581.114 553.018 581.114 553.018C566.019 550.653 550.649 550.653 535.555 553.018C535.555 553.018 498.604 560.109 488.725 567.937C478.846 575.764 450.324 622.661 450.324 622.661C450.324 622.661 417.632 565.796 417.632 558.705C417.632 551.613 411.232 540.865 403.427 540.218C398.926 539.977 394.415 539.977 389.913 540.218C389.913 540.218 382.8 521.731 380.681 523.158C378.563 524.586 382.086 547.332 384.227 552.305C386.368 557.277 404.141 560.823 404.141 560.823C404.141 560.823 426.173 644.693 433.265 656.066C440.356 667.439 448.206 681.667 467.384 673.126C486.562 664.585 510.757 636.888 510.757 636.888L551.321 637.513H554.376H556.94L606 636.888C606 636.888 630.174 664.607 649.352 673.126C668.53 681.645 676.379 667.439 683.471 656.066C690.562 644.693 712.528 560.823 712.528 560.823C712.528 560.823 730.368 557.277 732.441 552.305C734.515 547.332 738.128 524.586 735.987 523.158Z" fill="#9C9C9C" stroke="#263238" stroke-width="1.23197" stroke-linecap="round" stroke-linejoin="round"/>
<path d="M677.827 602.212C671.56 613.585 666.32 622.661 666.32 622.661C666.32 622.661 637.887 575.831 627.942 567.937C617.996 560.042 581.112 553.018 581.112 553.018C566.017 550.653 550.647 550.653 535.553 553.018C535.553 553.018 498.602 560.109 488.723 567.937C478.844 575.764 450.322 622.661 450.322 622.661C450.322 622.661 444.658 612.826 438.057 600.807L418.5 612.715C424.209 632.317 430.163 651.116 433.263 656.066C440.376 667.439 448.204 681.666 467.382 673.126C486.56 664.585 510.755 636.888 510.755 636.888L551.319 637.513H554.374H556.938L605.998 636.888C605.998 636.888 630.172 664.607 649.35 673.126C668.528 681.644 676.377 667.439 683.469 656.066C686.591 651.093 692.567 632.227 698.298 612.559L677.827 602.212Z" fill="white"/>
<path d="M660.788 635.818C660.409 631.158 660.052 626.742 661.948 623.91C662.831 622.585 663.8 621.319 664.847 620.119L662.037 615.659C660.385 617.339 658.892 619.168 657.577 621.123C654.7 625.449 655.124 630.957 655.57 636.309C655.927 640.97 656.284 645.363 654.388 648.217C652.76 650.648 651.177 650.447 646.828 649.555C642.705 648.367 638.33 648.367 634.207 649.555C632.408 650.213 630.797 651.3 629.514 652.723C628.232 654.145 627.316 655.86 626.848 657.717C628.253 658.943 629.702 660.17 631.174 661.352C631.776 658.163 633.114 655.331 635.835 654.439C639.103 653.546 642.555 653.585 645.803 654.55C650.129 655.442 655.057 656.468 658.67 651.027C661.591 646.678 661.145 641.17 660.788 635.818Z" fill="#37474F"/>
<path d="M605.91 636.889L607.605 638.784C609.134 638.153 610.592 637.361 611.953 636.42C613.518 636.079 615.138 636.079 616.703 636.42C622.006 637.124 627.395 636.768 632.559 635.372C641.189 632.897 641.479 623.531 641.791 615.302C641.947 610.708 642.103 605.936 643.686 603.059C644.431 601.647 645.643 600.536 647.115 599.918C648.587 599.3 650.229 599.212 651.759 599.67C650.622 597.908 649.529 596.146 648.258 594.385C646.334 594.542 644.485 595.197 642.89 596.283C641.295 597.37 640.01 598.852 639.159 600.584C636.929 604.531 636.818 609.928 636.639 615.124C636.35 623.754 635.814 629.106 631.154 630.422C626.6 631.652 621.845 631.955 617.172 631.314C613.804 631.024 610.905 630.756 608.72 632.496C605.355 634.318 601.823 635.812 598.172 636.956L605.91 636.889Z" fill="#37474F"/>
<path d="M483.661 649.532C479.538 648.344 475.163 648.344 471.039 649.532C466.691 650.424 465.108 650.625 463.48 648.194C461.584 645.34 461.941 640.947 462.32 636.286C462.744 630.934 463.168 625.426 460.291 621.1C458.807 618.803 457.064 616.686 455.095 614.789L452.285 619.249C453.668 620.684 454.915 622.244 456.009 623.91C457.905 626.742 457.548 631.157 457.169 635.818C456.745 641.17 456.299 646.678 459.198 651.004C462.811 656.445 467.739 655.464 472.065 654.528C475.313 653.562 478.765 653.524 482.033 654.416C483.231 654.94 484.272 655.766 485.054 656.814C485.836 657.862 486.332 659.095 486.493 660.393C487.943 659.211 489.348 658.006 490.73 656.78C490.184 655.112 489.263 653.592 488.037 652.335C486.812 651.079 485.315 650.12 483.661 649.532V649.532Z" fill="#37474F"/>
<path d="M500.744 631.247C496.063 631.888 491.301 631.585 486.74 630.355C482.079 629.039 481.544 623.665 481.254 615.057C481.076 609.861 480.897 604.464 478.734 600.517C477.773 598.586 476.28 596.97 474.431 595.86C472.582 594.749 470.454 594.191 468.298 594.251C467.004 596.191 465.733 598.131 464.484 600.049C467.093 599.157 471.732 598.421 474.207 602.993C475.79 605.869 475.947 610.641 476.103 615.235C476.393 623.486 476.727 632.852 485.335 635.305C490.498 636.701 495.888 637.057 501.19 636.353C502.755 636.012 504.375 636.012 505.94 636.353C506.993 637.102 508.121 637.737 509.307 638.249L510.623 636.799L519.855 636.933C516.156 635.747 512.579 634.209 509.174 632.339C506.921 630.689 504.089 630.957 500.744 631.247Z" fill="#37474F"/>
<g opacity="0.5">
<path opacity="0.5" d="M660.788 635.818C660.409 631.158 660.052 626.742 661.948 623.91C662.831 622.585 663.8 621.319 664.847 620.119L662.037 615.659C660.385 617.339 658.892 619.168 657.577 621.123C654.7 625.449 655.124 630.957 655.57 636.309C655.927 640.97 656.284 645.363 654.388 648.217C652.76 650.648 651.177 650.447 646.828 649.555C642.705 648.367 638.33 648.367 634.207 649.555C632.408 650.213 630.797 651.3 629.514 652.723C628.232 654.145 627.316 655.86 626.848 657.717C628.253 658.943 629.702 660.17 631.174 661.352C631.776 658.163 633.114 655.331 635.835 654.439C639.103 653.546 642.555 653.585 645.803 654.55C650.129 655.442 655.057 656.468 658.67 651.027C661.591 646.678 661.145 641.17 660.788 635.818Z" fill="white"/>
<path opacity="0.5" d="M605.91 636.889L607.605 638.784C609.134 638.153 610.592 637.361 611.953 636.42C613.518 636.079 615.138 636.079 616.703 636.42C622.006 637.124 627.395 636.768 632.559 635.372C641.189 632.897 641.479 623.531 641.791 615.302C641.947 610.708 642.103 605.936 643.686 603.059C644.431 601.647 645.643 600.536 647.115 599.918C648.587 599.3 650.229 599.212 651.759 599.67C650.622 597.908 649.529 596.146 648.258 594.385C646.334 594.542 644.485 595.197 642.89 596.283C641.295 597.37 640.01 598.852 639.159 600.584C636.929 604.531 636.818 609.928 636.639 615.124C636.35 623.754 635.814 629.106 631.154 630.422C626.6 631.652 621.845 631.955 617.172 631.314C613.804 631.024 610.905 630.756 608.72 632.496C605.355 634.318 601.823 635.812 598.172 636.956L605.91 636.889Z" fill="white"/>
<path opacity="0.5" d="M483.661 649.532C479.538 648.344 475.163 648.344 471.039 649.532C466.691 650.424 465.108 650.625 463.48 648.194C461.584 645.34 461.941 640.947 462.32 636.286C462.744 630.934 463.168 625.426 460.291 621.1C458.807 618.803 457.064 616.686 455.095 614.789L452.285 619.249C453.668 620.684 454.915 622.244 456.009 623.91C457.905 626.742 457.548 631.157 457.169 635.818C456.745 641.17 456.299 646.678 459.198 651.004C462.811 656.445 467.739 655.464 472.065 654.528C475.313 653.562 478.765 653.524 482.033 654.416C483.231 654.94 484.272 655.766 485.054 656.814C485.836 657.862 486.332 659.095 486.493 660.393C487.943 659.211 489.348 658.006 490.73 656.78C490.184 655.112 489.263 653.592 488.037 652.335C486.812 651.079 485.315 650.12 483.661 649.532V649.532Z" fill="white"/>
<path opacity="0.5" d="M500.744 631.247C496.063 631.888 491.301 631.585 486.74 630.355C482.079 629.039 481.544 623.665 481.254 615.057C481.076 609.861 480.897 604.464 478.734 600.517C477.773 598.586 476.28 596.97 474.431 595.86C472.582 594.749 470.454 594.191 468.298 594.251C467.004 596.191 465.733 598.131 464.484 600.049C467.093 599.157 471.732 598.421 474.207 602.993C475.79 605.869 475.947 610.641 476.103 615.235C476.393 623.486 476.727 632.852 485.335 635.305C490.498 636.701 495.888 637.057 501.19 636.353C502.755 636.012 504.375 636.012 505.94 636.353C506.993 637.102 508.121 637.737 509.307 638.249L510.623 636.799L519.855 636.933C516.156 635.747 512.579 634.209 509.174 632.339C506.921 630.689 504.089 630.957 500.744 631.247Z" fill="white"/>
</g>
<path d="M677.827 602.212C671.56 613.585 666.32 622.661 666.32 622.661C666.32 622.661 637.887 575.831 627.942 567.937C617.996 560.042 581.112 553.018 581.112 553.018C566.017 550.653 550.647 550.653 535.553 553.018C535.553 553.018 498.602 560.109 488.723 567.937C478.844 575.764 450.322 622.661 450.322 622.661C450.322 622.661 444.658 612.826 438.057 600.807L418.5 612.715C424.209 632.317 430.163 651.116 433.263 656.066C440.376 667.439 448.204 681.666 467.382 673.126C486.56 664.585 510.755 636.888 510.755 636.888L551.319 637.513H554.374H556.938L605.998 636.888C605.998 636.888 630.172 664.607 649.35 673.126C668.528 681.644 676.377 667.439 683.469 656.066C686.591 651.093 692.567 632.227 698.298 612.559L677.827 602.212Z" stroke="#263238" stroke-width="1.23197" stroke-linecap="round" stroke-linejoin="round"/>
<path d="M497.152 602.769C497.152 602.769 487.92 622.661 490.061 635.461C491.069 640.619 491.777 645.831 492.179 651.071C492.179 651.071 478.799 688.044 476.569 701.536C475.6 707.145 476.218 712.913 478.353 718.19C480.489 723.466 484.058 728.04 488.656 731.396C496.483 737.082 603.099 738.509 619.445 734.25C635.791 729.991 634.364 714.336 633.65 700.131C632.937 685.926 627.339 655.375 627.339 655.375C627.339 655.375 629.569 612.001 620.248 601.342" fill="white"/>
<path d="M578.75 631.335C574.961 631.157 571.389 629.519 568.782 626.764C559.081 617.844 552.614 616.372 545.746 621.367L542.601 623.776C535.488 629.217 528.753 634.346 518.228 627.857C515.819 626.385 513.634 624.802 511.716 623.397C504.647 618.268 501.569 616.35 496.507 620.498C492.739 623.575 489.817 625.404 486.472 624.958C482.213 624.445 479.225 620.498 473.293 612.559L472.892 612.024C472.032 610.668 470.889 609.513 469.542 608.64C468.195 607.766 466.675 607.194 465.087 606.962C461.711 607.026 458.485 608.365 456.055 610.708C455.817 610.947 455.534 611.137 455.222 611.267C454.91 611.396 454.575 611.463 454.238 611.463C453.9 611.463 453.566 611.396 453.254 611.267C452.942 611.137 452.659 610.947 452.42 610.708C452.178 610.471 451.986 610.189 451.855 609.876C451.723 609.564 451.656 609.229 451.656 608.891C451.656 608.552 451.723 608.217 451.855 607.905C451.986 607.593 452.178 607.31 452.42 607.073C455.901 603.678 460.581 601.794 465.443 601.833C467.776 602.087 470.024 602.855 472.025 604.081C474.026 605.307 475.731 606.961 477.017 608.924L477.396 609.459C481.99 615.569 485.001 619.606 487.097 619.851C488.279 619.985 490.152 618.981 493.252 616.461C501.569 609.638 507.97 614.231 514.749 619.182C516.689 620.587 518.696 622.036 520.926 623.419C528.441 628.057 532.589 624.891 539.479 619.65C540.528 618.825 541.709 618 542.78 617.175C554.197 608.857 564.121 615.413 572.327 622.928C578.46 628.548 582.34 626.073 590.48 619.94C592.041 618.781 593.668 617.532 595.43 616.328L596.233 615.77C606.736 608.478 607.896 609.08 622.101 616.952L625.914 619.048C630.843 621.769 633.875 623.508 635.28 623.352C636.685 623.196 637.711 621.813 640.409 618.758C641.502 617.487 642.818 616.015 644.423 614.298C655.93 601.966 659.699 602.791 668.953 607.006L669.689 607.341C670.31 607.622 670.794 608.138 671.035 608.775C671.275 609.413 671.252 610.12 670.971 610.741C670.69 611.362 670.174 611.846 669.537 612.087C668.899 612.327 668.192 612.305 667.571 612.024L666.835 611.689C659.164 608.188 657.781 607.564 648.192 617.822C646.653 619.494 645.382 620.921 644.289 622.17C636.886 630.577 635.369 630.131 623.439 623.553L619.648 621.457C607.071 614.544 607.071 614.544 599.199 620.007L598.374 620.565C596.679 621.746 595.118 622.928 593.602 624.066C588.629 627.768 583.923 631.335 578.75 631.335ZM593.512 648.819C595.029 647.681 596.59 646.477 598.285 645.318L599.11 644.76C606.982 639.274 606.982 639.297 619.559 646.21L623.35 648.306C635.236 654.884 636.73 655.33 644.2 646.923C645.293 645.674 646.564 644.225 648.103 642.575C657.692 632.294 659.074 632.941 666.746 636.442L667.481 636.777C668.102 637.058 668.81 637.08 669.447 636.84C670.085 636.599 670.601 636.115 670.882 635.494C671.163 634.873 671.186 634.166 670.945 633.529C670.705 632.891 670.221 632.375 669.6 632.094L668.864 631.759C659.654 627.544 655.863 626.719 644.334 639.051C642.728 640.768 641.413 642.24 640.32 643.511C637.622 646.566 636.284 647.971 635.191 648.105C634.098 648.239 630.731 646.522 625.825 643.801L622.012 641.705C607.807 633.878 606.647 633.231 596.144 640.523L595.341 641.081C593.579 642.285 591.951 643.511 590.39 644.693C582.251 650.826 578.371 653.301 572.238 647.681C564.032 640.166 554.108 633.588 542.691 641.906C541.531 642.753 540.461 643.578 539.39 644.403C532.5 649.644 528.352 652.81 520.837 648.172C518.607 646.789 516.6 645.34 514.66 643.935C507.97 639.029 501.48 634.391 493.162 641.214C490.063 643.734 488.256 644.76 487.008 644.604C484.911 644.359 481.901 640.322 477.307 634.212L476.928 633.677C475.642 631.714 473.937 630.06 471.936 628.834C469.935 627.608 467.687 626.84 465.354 626.586C460.492 626.547 455.812 628.431 452.331 631.826C452.089 632.063 451.897 632.346 451.765 632.658C451.634 632.97 451.566 633.305 451.566 633.644C451.566 633.982 451.634 634.317 451.765 634.629C451.897 634.942 452.089 635.224 452.331 635.461C452.569 635.7 452.853 635.89 453.164 636.02C453.476 636.149 453.811 636.216 454.149 636.216C454.486 636.216 454.821 636.149 455.133 636.02C455.444 635.89 455.728 635.7 455.966 635.461C458.396 633.118 461.622 631.779 464.997 631.715C466.59 631.935 468.114 632.503 469.463 633.377C470.812 634.252 471.952 635.413 472.802 636.777L473.204 637.312C479.136 645.228 482.124 649.198 486.383 649.711C489.639 650.112 492.649 648.283 496.418 645.251C501.48 641.125 504.558 643.021 511.627 648.172C513.545 649.577 515.73 651.16 518.138 652.632C528.664 659.121 535.399 653.992 542.512 648.551L545.723 646.143C552.592 641.147 559.103 642.664 568.759 651.539C571.382 654.257 574.954 655.855 578.727 655.999C583.923 656.022 588.629 652.476 593.512 648.819Z" fill="#37474F"/>
<path opacity="0.5" d="M578.75 631.335C574.961 631.157 571.389 629.519 568.782 626.764C559.081 617.844 552.614 616.372 545.746 621.367L542.601 623.776C535.488 629.217 528.753 634.346 518.228 627.857C515.819 626.385 513.634 624.802 511.716 623.397C504.647 618.268 501.569 616.35 496.507 620.498C492.739 623.575 489.817 625.404 486.472 624.958C482.213 624.445 479.225 620.498 473.293 612.559L472.892 612.024C472.032 610.668 470.889 609.513 469.542 608.64C468.195 607.766 466.675 607.194 465.087 606.962C461.711 607.026 458.485 608.365 456.055 610.708C455.817 610.947 455.534 611.137 455.222 611.267C454.91 611.396 454.575 611.463 454.238 611.463C453.9 611.463 453.566 611.396 453.254 611.267C452.942 611.137 452.659 610.947 452.42 610.708C452.178 610.471 451.986 610.189 451.855 609.876C451.723 609.564 451.656 609.229 451.656 608.891C451.656 608.552 451.723 608.217 451.855 607.905C451.986 607.593 452.178 607.31 452.42 607.073C455.901 603.678 460.581 601.794 465.443 601.833C467.776 602.087 470.024 602.855 472.025 604.081C474.026 605.307 475.731 606.961 477.017 608.924L477.396 609.459C481.99 615.569 485.001 619.606 487.097 619.851C488.279 619.985 490.152 618.981 493.252 616.461C501.569 609.638 507.97 614.231 514.749 619.182C516.689 620.587 518.696 622.036 520.926 623.419C528.441 628.057 532.589 624.891 539.479 619.65C540.528 618.825 541.709 618 542.78 617.175C554.197 608.857 564.121 615.413 572.327 622.928C578.46 628.548 582.34 626.073 590.48 619.94C592.041 618.781 593.668 617.532 595.43 616.328L596.233 615.77C606.736 608.478 607.896 609.08 622.101 616.952L625.914 619.048C630.843 621.769 633.875 623.508 635.28 623.352C636.685 623.196 637.711 621.813 640.409 618.758C641.502 617.487 642.818 616.015 644.423 614.298C655.93 601.966 659.699 602.791 668.953 607.006L669.689 607.341C670.31 607.622 670.794 608.138 671.035 608.775C671.275 609.413 671.252 610.12 670.971 610.741C670.69 611.362 670.174 611.846 669.537 612.087C668.899 612.327 668.192 612.305 667.571 612.024L666.835 611.689C659.164 608.188 657.781 607.564 648.192 617.822C646.653 619.494 645.382 620.921 644.289 622.17C636.886 630.577 635.369 630.131 623.439 623.553L619.648 621.457C607.071 614.544 607.071 614.544 599.199 620.007L598.374 620.565C596.679 621.746 595.118 622.928 593.602 624.066C588.629 627.768 583.923 631.335 578.75 631.335ZM593.512 648.819C595.029 647.681 596.59 646.477 598.285 645.318L599.11 644.76C606.982 639.274 606.982 639.297 619.559 646.21L623.35 648.306C635.236 654.884 636.73 655.33 644.2 646.923C645.293 645.674 646.564 644.225 648.103 642.575C657.692 632.294 659.074 632.941 666.746 636.442L667.481 636.777C668.102 637.058 668.81 637.08 669.447 636.84C670.085 636.599 670.601 636.115 670.882 635.494C671.163 634.873 671.186 634.166 670.945 633.529C670.705 632.891 670.221 632.375 669.6 632.094L668.864 631.759C659.654 627.544 655.863 626.719 644.334 639.051C642.728 640.768 641.413 642.24 640.32 643.511C637.622 646.566 636.284 647.971 635.191 648.105C634.098 648.239 630.731 646.522 625.825 643.801L622.012 641.705C607.807 633.878 606.647 633.231 596.144 640.523L595.341 641.081C593.579 642.285 591.951 643.511 590.39 644.693C582.251 650.826 578.371 653.301 572.238 647.681C564.032 640.166 554.108 633.588 542.691 641.906C541.531 642.753 540.461 643.578 539.39 644.403C532.5 649.644 528.352 652.81 520.837 648.172C518.607 646.789 516.6 645.34 514.66 643.935C507.97 639.029 501.48 634.391 493.162 641.214C490.063 643.734 488.256 644.76 487.008 644.604C484.911 644.359 481.901 640.322 477.307 634.212L476.928 633.677C475.642 631.714 473.937 630.06 471.936 628.834C469.935 627.608 467.687 626.84 465.354 626.586C460.492 626.547 455.812 628.431 452.331 631.826C452.089 632.063 451.897 632.346 451.765 632.658C451.634 632.97 451.566 633.305 451.566 633.644C451.566 633.982 451.634 634.317 451.765 634.629C451.897 634.942 452.089 635.224 452.331 635.461C452.569 635.7 452.853 635.89 453.164 636.02C453.476 636.149 453.811 636.216 454.149 636.216C454.486 636.216 454.821 636.149 455.133 636.02C455.444 635.89 455.728 635.7 455.966 635.461C458.396 633.118 461.622 631.779 464.997 631.715C466.59 631.935 468.114 632.503 469.463 633.377C470.812 634.252 471.952 635.413 472.802 636.777L473.204 637.312C479.136 645.228 482.124 649.198 486.383 649.711C489.639 650.112 492.649 648.283 496.418 645.251C501.48 641.125 504.558 643.021 511.627 648.172C513.545 649.577 515.73 651.16 518.138 652.632C528.664 659.121 535.399 653.992 542.512 648.551L545.723 646.143C552.592 641.147 559.103 642.664 568.759 651.539C571.382 654.257 574.954 655.855 578.727 655.999C583.923 656.022 588.629 652.476 593.512 648.819Z" fill="white"/>
<path d="M497.152 602.769C497.152 602.769 487.92 622.661 490.061 635.461C491.069 640.619 491.777 645.831 492.179 651.071C492.179 651.071 478.799 688.044 476.569 701.536C475.6 707.145 476.218 712.913 478.353 718.19C480.489 723.466 484.058 728.04 488.656 731.396C496.483 737.082 603.099 738.509 619.445 734.25C635.791 729.991 634.364 714.336 633.65 700.131C632.937 685.926 627.339 655.375 627.339 655.375C627.339 655.375 629.569 612.001 620.248 601.342" stroke="#263238" stroke-width="1.23197" stroke-linecap="round" stroke-linejoin="round"/>
<path d="M535.485 553.018L532.453 553.62C532.162 554.939 532.005 556.284 531.984 557.634C531.984 571.17 546.479 582.164 564.342 582.164C582.204 582.164 596.677 571.17 596.677 557.634C596.677 557.233 596.677 556.876 596.677 556.475C588.047 554.245 581.067 553.018 581.067 553.018C565.965 550.651 550.587 550.651 535.485 553.018V553.018Z" fill="#37474F" stroke="#263238" stroke-width="1.23197" stroke-linecap="round" stroke-linejoin="round"/>
<path d="M542.6 539.504C542.6 539.504 540.37 556.564 542.6 562.25C544.83 567.937 558.21 578.596 571.747 574.337C576.166 572.949 580.044 570.219 582.842 566.527C585.639 562.834 587.217 558.362 587.357 553.732V533.84L543.292 535.267L542.6 539.504Z" fill="#9C9C9C" stroke="#263238" stroke-width="1.23197" stroke-linecap="round" stroke-linejoin="round"/>
<path d="M565.391 532.391C593.262 532.391 615.856 510.276 615.856 482.996C615.856 455.716 593.262 433.602 565.391 433.602C537.52 433.602 514.926 455.716 514.926 482.996C514.926 510.276 537.52 532.391 565.391 532.391Z" fill="#263238" stroke="#263238" stroke-width="1.23197" stroke-linecap="round" stroke-linejoin="round"/>
<path d="M533.413 499.698C533.413 499.698 529.154 489.753 526.3 498.985C523.445 508.217 529.868 519.612 534.127 520.304C538.386 520.995 533.413 499.698 533.413 499.698Z" fill="#9C9C9C" stroke="#263238" stroke-width="1.23197" stroke-linecap="round" stroke-linejoin="round"/>
<path d="M594.85 499.698C594.85 499.698 599.109 489.753 601.964 498.985C604.818 508.217 598.396 519.612 594.136 520.304C589.877 520.995 594.85 499.698 594.85 499.698Z" fill="#9C9C9C" stroke="#263238" stroke-width="1.23197" stroke-linecap="round" stroke-linejoin="round"/>
<path d="M586.398 466.494C584.49 465.042 582.303 464.002 579.973 463.437C577.643 462.873 575.222 462.798 572.862 463.216C568.531 464.064 564.112 464.378 559.705 464.153C552.613 463.461 546.927 460.607 541.24 466.383C535.554 472.158 532.699 498.361 532.699 511.875C532.699 525.389 542.6 544.477 549.759 549.45C556.917 554.423 576.764 553.732 581.737 549.45C586.71 545.169 594.537 529.559 595.964 516.758C597.392 503.958 594.537 479.094 591.705 472.694C590.453 470.236 588.633 468.111 586.398 466.494Z" fill="#9C9C9C" stroke="#263238" stroke-width="1.23197" stroke-linecap="round" stroke-linejoin="round"/>
<path d="M554.775 501.817C556.24 501.817 557.429 499.87 557.429 497.469C557.429 495.067 556.24 493.12 554.775 493.12C553.309 493.12 552.121 495.067 552.121 497.469C552.121 499.87 553.309 501.817 554.775 501.817Z" fill="#263238"/>
<path d="M578.391 497.469C578.391 499.877 577.21 501.817 575.738 501.817C574.266 501.817 573.084 499.877 573.084 497.469C573.084 495.06 574.288 493.12 575.738 493.12C577.187 493.12 578.391 495.083 578.391 497.469Z" fill="#263238"/>
<path d="M568.512 522.066C568.512 524.452 567.331 526.392 565.859 526.392C564.387 526.392 563.205 524.452 563.205 522.066C563.205 519.68 564.387 517.717 565.859 517.717C567.331 517.717 568.512 519.657 568.512 522.066Z" fill="#263238"/>
<path d="M560.553 502.776C556.093 509.756 564.567 514.239 570.209 510.002C574.067 507.103 570.209 502.776 570.209 502.776" fill="#9C9C9C"/>
<path d="M560.553 502.776C556.093 509.756 564.567 514.239 570.209 510.002C574.067 507.103 570.209 502.776 570.209 502.776" stroke="#263238" stroke-width="1.23197" stroke-linecap="round" stroke-linejoin="round"/>
<path d="M545.609 487.835C545.609 487.835 552.835 481.145 560.082 484.445" stroke="#263238" stroke-width="1.23197" stroke-linecap="round" stroke-linejoin="round"/>
<path d="M572.125 484.936C572.125 484.936 578.815 480.588 585.148 488.794" stroke="#263238" stroke-width="1.23197" stroke-linecap="round" stroke-linejoin="round"/>
<path d="M348.144 958.811C348.144 958.811 305.439 967.174 305.439 971.522C305.439 975.871 359.851 988.225 365.649 988.939C371.447 989.652 372.339 961.643 372.339 961.643L348.144 958.811Z" fill="white" stroke="#263238" stroke-width="1.23197" stroke-linecap="round" stroke-linejoin="round"/>
<path d="M369.217 984.768L308.294 969.158C306.51 969.983 305.439 970.786 305.439 971.388C305.439 975.848 359.851 988.091 365.649 988.805C367.144 989.117 368.303 987.4 369.217 984.768Z" fill="#37474F" stroke="#263238" stroke-width="1.23197" stroke-linecap="round" stroke-linejoin="round"/>
<path d="M459.042 963.784C459.042 963.784 415.713 982.405 418.612 986.776C421.511 991.146 478.108 989.006 483.906 988.225C489.704 987.445 483.906 961.644 483.906 961.644L459.042 963.784Z" fill="white" stroke="#263238" stroke-width="1.23197" stroke-linecap="round" stroke-linejoin="round"/>
<path d="M419.951 984.033C418.68 985.17 418.1 986.129 418.524 986.776C421.423 991.124 478.02 989.006 483.818 988.225C485.223 988.047 485.937 986.397 486.227 984.033H419.951Z" fill="#37474F" stroke="#263238" stroke-width="1.23197" stroke-linecap="round" stroke-linejoin="round"/>
<path d="M281.869 678.143H445.395V671.542H281.869V678.143Z" fill="white" stroke="#263238" stroke-width="1.23197" stroke-linecap="round" stroke-linejoin="round"/>
<path d="M235.753 678.143H399.279V671.542H235.753V678.143Z" fill="white" stroke="#263238" stroke-width="1.23197" stroke-linecap="round" stroke-linejoin="round"/>
<path d="M253.971 659.813H390.336L375.64 555.716H239.275L253.971 659.813Z" fill="white" stroke="#263238" stroke-width="1.23197" stroke-linecap="round" stroke-linejoin="round"/>
<path d="M248.329 659.813H384.693L369.997 555.716H233.633L248.329 659.813Z" fill="#263238" stroke="#263238" stroke-width="1.23197" stroke-linecap="round" stroke-linejoin="round"/>
<path d="M290.118 611.421L276.426 678.143H311.615L325.307 611.421H290.118ZM313.979 631.224C313.914 631.495 313.76 631.737 313.542 631.911C313.324 632.085 313.054 632.18 312.775 632.183L292.839 631.96C292.651 631.958 292.466 631.914 292.297 631.831C292.129 631.748 291.981 631.628 291.866 631.481C291.75 631.333 291.669 631.161 291.629 630.977C291.589 630.794 291.591 630.604 291.634 630.421L293.441 622.951C293.506 622.675 293.663 622.431 293.886 622.257C294.109 622.082 294.384 621.989 294.667 621.992L314.603 622.192C314.788 622.194 314.97 622.237 315.136 622.319C315.302 622.401 315.447 622.519 315.561 622.665C315.675 622.811 315.754 622.98 315.793 623.161C315.831 623.342 315.829 623.529 315.785 623.709L313.979 631.224Z" fill="white" stroke="#263238" stroke-width="1.23197" stroke-linecap="round" stroke-linejoin="round"/>
<path d="M261.186 553.967C264.371 540.47 256.012 526.946 242.515 523.761C229.018 520.575 215.495 528.934 212.309 542.431C209.123 555.928 217.482 569.452 230.979 572.637C244.476 575.823 258 567.464 261.186 553.967Z" fill="#37474F" stroke="#263238" stroke-width="1.23197" stroke-linecap="round" stroke-linejoin="round"/>
<path d="M236.398 553.33L228.994 561.76C228.67 562.185 228.279 562.554 227.835 562.852C227.327 563.239 226.731 563.494 226.101 563.595C225.471 563.696 224.825 563.64 224.222 563.432C223.755 563.293 223.326 563.048 222.97 562.715C222.614 562.382 222.34 561.971 222.17 561.514C221.921 560.761 221.896 559.951 222.098 559.183C222.3 558.415 222.72 557.722 223.308 557.188L231.893 548.09L223.709 538.59C223.082 537.835 222.722 536.895 222.683 535.914C222.649 535.51 222.699 535.104 222.83 534.72C222.96 534.336 223.168 533.983 223.442 533.684C223.974 533.128 224.631 532.707 225.359 532.457C226.159 532.17 227.035 532.17 227.835 532.457C228.796 532.824 229.632 533.459 230.243 534.286L237.357 542.76L244.047 534.977C244.393 534.483 244.814 534.047 245.296 533.684C245.797 533.215 246.423 532.898 247.098 532.772C247.774 532.645 248.471 532.714 249.109 532.97C249.566 533.136 249.983 533.397 250.333 533.735C250.683 534.073 250.957 534.481 251.138 534.933C251.377 535.452 251.455 536.03 251.364 536.594C251.273 537.158 251.016 537.682 250.625 538.099L241.705 547.845L250.625 558.303C250.909 558.656 251.141 559.046 251.317 559.463C251.532 560.004 251.594 560.595 251.496 561.169C251.398 561.744 251.143 562.28 250.759 562.719C250.418 563.154 249.985 563.509 249.492 563.76C248.999 564.01 248.457 564.149 247.905 564.168C247.083 564.183 246.272 563.986 245.549 563.595C244.826 563.204 244.217 562.634 243.779 561.938L236.398 553.33Z" fill="#263238"/>
<path d="M558.213 716.098L551.121 983.051C551.081 984.751 550.377 986.367 549.16 987.555C547.943 988.743 546.31 989.407 544.61 989.407V989.407C542.904 989.389 541.272 988.705 540.064 987.501C538.856 986.297 538.166 984.668 538.143 982.962L534.664 716.098H558.213Z" fill="white" stroke="#263238" stroke-width="1.23197" stroke-linecap="round" stroke-linejoin="round"/>
<path d="M471.998 716.098L464.929 983.051C464.889 984.755 464.181 986.375 462.96 987.563C461.738 988.751 460.1 989.413 458.396 989.407C456.68 989.407 455.034 988.73 453.815 987.523C452.595 986.316 451.902 984.677 451.884 982.962L448.383 716.098H471.998Z" fill="white" stroke="#263238" stroke-width="1.23197" stroke-linecap="round" stroke-linejoin="round"/>
<path d="M258.766 716.098L251.697 983.051C251.656 984.755 250.949 986.375 249.727 987.563C248.506 988.751 246.867 989.413 245.163 989.407V989.407C243.448 989.407 241.801 988.73 240.582 987.523C239.363 986.316 238.669 984.677 238.651 982.962L235.15 716.098H258.766Z" fill="white" stroke="#263238" stroke-width="1.23197" stroke-linecap="round" stroke-linejoin="round"/>
<path d="M172.422 716.098L165.442 983.051C165.402 984.732 164.714 986.332 163.521 987.516C162.328 988.701 160.723 989.378 159.042 989.407V989.407C158.179 989.427 157.319 989.277 156.514 988.963C155.709 988.65 154.975 988.179 154.352 987.58C153.73 986.981 153.233 986.264 152.89 985.471C152.546 984.679 152.364 983.826 152.352 982.962L148.918 716.098H172.422Z" fill="white" stroke="#263238" stroke-width="1.23197" stroke-linecap="round" stroke-linejoin="round"/>
<path d="M141.045 718.908H566.641V686.952H141.045V718.908Z" fill="white" stroke="#263238" stroke-width="1.23197" stroke-linecap="round" stroke-linejoin="round"/>
<path d="M447.759 718.908H566.641V686.952H447.759V718.908Z" fill="white" stroke="#263238" stroke-width="1.23197" stroke-linecap="round" stroke-linejoin="round"/>
<path d="M141.045 702.919H566.641V686.952H141.045V702.919Z" fill="#263238" stroke="#263238" stroke-width="1.23197" stroke-linecap="round" stroke-linejoin="round"/>
<path d="M134.443 693.552H573.24V675.958H134.443V693.552Z" fill="#37474F" stroke="#263238" stroke-width="1.23197" stroke-linecap="round" stroke-linejoin="round"/>
<path d="M134.446 693.552H439.867V675.958H134.446V693.552Z" fill="#37474F" stroke="#263238" stroke-width="1.23197" stroke-linecap="round" stroke-linejoin="round"/>
</g>
<defs>
<clipPath id="clip0">
<rect width="1920" height="1080" fill="white"/>
</clipPath>
</defs>
</svg>
