<svg width="960" height="540" viewBox="0 0 1920 1080" fill="none" xmlns="http://www.w3.org/2000/svg">
  <defs>
    <clipPath id="clip0">
      <rect width="1920" height="1080" fill="white"></rect>
    </clipPath>
  </defs>
  <g clip-path="url(#clip0)" transform="matrix(1, 0, 0, 1, 0, -2.842170943040401e-14)">
    <rect width="221.534" height="35.5095" rx="12" transform="matrix(-1 0 0 1 1026 923)" fill="#EFEFEF"></rect>
    <rect width="414.298" height="35.5095" rx="12" transform="matrix(-1 0 0 1 787.203 923)" fill="#EFEFEF"></rect>
    <rect width="152.485" height="35.5095" rx="12" transform="matrix(-1 0 0 1 355.643 923)" fill="#C1E616"></rect>
    <rect width="259.895" height="35.5095" rx="12" transform="matrix(-1 0 0 1 185.896 923)" fill="#EFEFEF"></rect>
    <rect width="161.116" height="35.5095" rx="12" transform="matrix(-1 0 0 1 534.021 975.784)" fill="#EFEFEF"></rect>
    <rect width="284.83" height="35.5095" rx="12" transform="matrix(-1 0 0 1 355.643 975.784)" fill="#EFEFEF"></rect>
    <rect width="129.468" height="35.5095" rx="12" transform="matrix(-1 0 0 1 55.4678 975.784)" fill="#FF0079"></rect>
    <rect width="221.534" height="35.5095" rx="12" transform="matrix(-1 0 0 1 1026 1028.57)" fill="#EFEFEF"></rect>
    <rect width="414.298" height="35.5095" rx="12" transform="matrix(-1 0 0 1 340.298 1028.57)" fill="#EFEFEF"></rect>
    <rect width="152.485" height="35.5095" rx="12" transform="matrix(-1 0 0 1 787.203 1028.57)" fill="#00AED3"></rect>
    <rect width="259.895" height="35.5095" rx="12" transform="matrix(-1 0 0 1 617.456 1028.57)" fill="#EFEFEF"></rect>
    <rect width="152.485" height="35.5095" rx="12" transform="matrix(-1 0 0 1 204.643 505)" fill="#EFEFEF"></rect>
    <rect width="259.895" height="35.5095" rx="12" transform="matrix(-1 0 0 1 34.8955 505)" fill="#FF0079"></rect>
    <rect width="161.116" height="35.5095" rx="12" transform="matrix(-1 0 0 1 383.021 557.784)" fill="#EFEFEF"></rect>
    <rect width="414.298" height="35.5095" rx="12" transform="matrix(-1 0 0 1 189.298 610.569)" fill="#EFEFEF"></rect>
    <rect width="259.895" height="35.5095" rx="12" transform="matrix(-1 0 0 1 466.456 610.569)" fill="#00AED3"></rect>
    <rect width="471.84" height="35.5095" rx="12" transform="matrix(-1 0 0 1 875 663.353)" fill="#EFEFEF"></rect>
    <rect width="463.208" height="35.5095" rx="12" transform="matrix(-1 0 0 1 383.021 663.353)" fill="#EFEFEF"></rect>
    <rect width="91.1072" height="35.5095" rx="12" transform="matrix(-1 0 0 1 875 768.922)" fill="#C1E616"></rect>
    <rect width="414.298" height="35.5095" rx="12" transform="matrix(-1 0 0 1 636.203 716.137)" fill="#EFEFEF"></rect>
    <rect width="152.485" height="35.5095" rx="12" transform="matrix(-1 0 0 1 204.643 716.137)" fill="#FF0079"></rect>
    <rect width="259.895" height="35.5095" rx="12" transform="matrix(-1 0 0 1 34.8955 716.137)" fill="#EFEFEF"></rect>
    <rect width="360.593" height="35.5095" rx="12" transform="matrix(-1 0 0 1 763.753 768.922)" fill="#EFEFEF"></rect>
    <rect width="463.208" height="35.5095" rx="12" transform="matrix(-1 0 0 1 383.021 768.922)" fill="#EFEFEF"></rect>
    <rect width="221.534" height="35.5095" rx="12" transform="matrix(-1 0 0 1 875 821.706)" fill="#EFEFEF"></rect>
    <rect width="259.895" height="35.5095" rx="12" transform="matrix(-1 0 0 1 466.456 821.706)" fill="#EFEFEF"></rect>
    <rect width="463.208" height="35.5095" rx="12" transform="matrix(-1 0 0 1 383.021 874.491)" fill="#EFEFEF"></rect>
    <rect width="414.298" height="35.5095" rx="12" transform="matrix(-1 0 0 1 1906.2 922)" fill="#FF077D"></rect>
    <rect width="152.485" height="35.5095" rx="12" transform="matrix(-1 0 0 1 1474.64 922)" fill="#EFEFEF"></rect>
    <rect width="161.116" height="35.5095" rx="12" transform="matrix(-1 0 0 1 1653.02 974.784)" fill="#EFEFEF"></rect>
    <rect width="284.83" height="35.5095" rx="12" transform="matrix(-1 0 0 1 1474.64 974.784)" fill="#EFEFEF"></rect>
    <rect width="414.298" height="35.5095" rx="12" transform="matrix(-1 0 0 1 1459.3 1027.57)" fill="#EFEFEF"></rect>
    <rect width="152.485" height="35.5095" rx="12" transform="matrix(-1 0 0 1 1906.2 1027.57)" fill="#EFEFEF"></rect>
    <rect width="259.895" height="35.5095" rx="12" transform="matrix(-1 0 0 1 1736.46 1027.57)" fill="#EFEFEF"></rect>
    <rect width="471.84" height="35.509" rx="12" transform="matrix(-1, 0, 0, 1, 0, 0)" fill="#EFEFEF" x="-1913.326" y="109.945"></rect>
    <rect width="463.208" height="35.509" rx="12" transform="matrix(-1, 0, 0, 1, 0, 0)" fill="#EFEFEF" x="-1420.631" y="110.802"></rect>
    <rect width="414.298" height="35.509" rx="12" transform="matrix(-1, 0, 0, 1, 0, 0)" fill="#EFEFEF" x="-1673.813" y="163.586"></rect>
    <rect width="360.593" height="35.509" rx="12" transform="matrix(-1, 0, 0, 1, 0, 0)" fill="#EFEFEF" x="-1801.363" y="216.371"></rect>
    <rect width="221.534" height="35.509" rx="12" transform="matrix(-1, 0, 0, 1, 0, 0)" fill="#EFEFEF" x="-1569.839" y="325.292"></rect>
    <rect width="152.485" height="35.509" rx="12" transform="matrix(-1, 0, 0, 1, 0, 0)" fill="#EFEFEF" x="-371.66" y="378.266"></rect>
    <rect width="161.116" height="35.509" rx="12" transform="matrix(-1, 0, 0, 1, 0, 0)" fill="#EFEFEF" x="-1294.416" y="380.984"></rect>
    <rect width="471.84" height="35.509" rx="12" transform="matrix(-1, 0, 0, 1, 0, 0)" fill="#EFEFEF" x="-1558.176" y="268.407"></rect>
    <rect width="414.298" height="35.509" rx="12" transform="matrix(-1, 0, 0, 1, 0, 0)" fill="#EFEFEF" x="-1319.379" y="321.191"></rect>
  </g>
  <rect width="221.534" height="35.509" rx="12" transform="matrix(-1, 0, 0, 1, 0, -2.842170943040401e-14)" fill="#EFEFEF" x="-1683.642" y="438.202"></rect>
  <rect width="414.298" height="35.509" rx="12" transform="matrix(-1, 0, 0, 1, 0, -2.842170943040401e-14)" fill="#EFEFEF" x="-426.832" y="438.203"></rect>
  <rect width="161.116" height="35.509" rx="12" transform="matrix(-1, 0, 0, 1, 0, -2.842170943040401e-14)" fill="#EFEFEF" x="-1408.617" y="438.536"></rect>
  <rect width="284.83" height="35.509" rx="12" transform="matrix(-1, 0, 0, 1, 0, -2.842170943040401e-14)" fill="#EFEFEF" x="-1230.239" y="438.536"></rect>
  <rect width="414.298" height="35.509" rx="12" transform="matrix(-1, 0, 0, 1, 0, -2.842170943040401e-14)" fill="#EFEFEF" x="-1837.146" y="547.348"></rect>
  <rect width="152.485" height="35.509" rx="12" transform="matrix(-1, 0, 0, 1, 0, -2.842170943040401e-14)" fill="#00AED3" x="-1661.799" y="491.322"></rect>
  <rect width="259.895" height="35.509" rx="12" transform="matrix(-1, 0, 0, 1, 0, -2.842170943040401e-14)" fill="#EFEFEF" x="-1492.052" y="491.322"></rect>
  <rect width="414.298" height="35.509" rx="12" transform="matrix(-1, 0, 0, 1, 0, -2.842170943040401e-14)" fill="#EFEFEF" x="-1076.601" y="378.84"></rect>
  <rect width="414.298" height="35.509" rx="12" transform="matrix(-1, 0, 0, 1, 0, -2.842170943040401e-14)" fill="#EFEFEF" x="-1745.643" y="382.606"></rect>
  <rect width="161.116" height="35.509" rx="12" transform="matrix(-1, 0, 0, 1, 0, -2.842170943040401e-14)" fill="#EFEFEF" x="-1378.88" y="606.545"></rect>
  <rect width="414.298" height="35.509" rx="12" transform="matrix(-1, 0, 0, 1, 0, -2.842170943040401e-14)" fill="#EFEFEF" x="-1403.843" y="546.752"></rect>
  <rect width="284.83" height="35.509" rx="12" transform="matrix(-1, 0, 0, 1, 0, -2.842170943040401e-14)" fill="#EFEFEF" x="-1202.65" y="659.329"></rect>
  <rect width="414.298" height="35.509" rx="12" transform="matrix(-1, 0, 0, 1, 0, -2.842170943040401e-14)" fill="#EFEFEF" x="-1161.065" y="604.401"></rect>
  <rect width="152.485" height="35.509" rx="12" transform="matrix(-1, 0, 0, 1, 0, -2.842170943040401e-14)" fill="#00AED3" x="-1868.087" y="163.587"></rect>
  <rect width="161.116" height="35.509" rx="12" transform="matrix(-1, 0, 0, 1, 0, -2.842170943040401e-14)" fill="#EFEFEF" x="-924.19" y="109.15"></rect>
  <rect width="161.116" height="35.509" rx="12" transform="matrix(-1, 0, 0, 1, 0, -2.842170943040401e-14)" fill="#EFEFEF" x="-914.466" y="436.55"></rect>
  <rect width="289.262" height="35.509" rx="12" transform="matrix(-1, 0, 0, 1, 0, -2.842170943040401e-14)" fill="#EFEFEF" x="-1897.431" y="863.183" style=""></rect>
</svg>