<svg width="1920" height="1080" viewBox="0 0 1920 1080" fill="none" xmlns="http://www.w3.org/2000/svg">
<g clip-path="url(#clip0_308_2309)">
<rect x="839" y="952" width="231" height="37" rx="12" fill="#EFEFEF"/>
<rect x="1088" y="952" width="432" height="37" rx="12" fill="#EFEFEF"/>
<rect x="1538" y="952" width="159" height="37" rx="12" fill="#EFEFEF"/>
<rect x="1715" y="952" width="271" height="37" rx="12" fill="#EFEFEF"/>
<rect x="1352" y="1007" width="168" height="37" rx="12" fill="#EFEFEF"/>
<rect x="1538" y="1007" width="297" height="37" rx="12" fill="#EFEFEF"/>
<rect x="1851" y="1007" width="135" height="37" rx="12" fill="#FF0079"/>
<rect x="839" y="1062" width="231" height="37" rx="12" fill="#EFEFEF"/>
<rect x="1554" y="1062" width="432" height="37" rx="12" fill="#EFEFEF"/>
<rect x="1088" y="1062" width="159" height="37" rx="12" fill="#EFEFEF"/>
<rect x="1265" y="1062" width="271" height="37" rx="12" fill="#EFEFEF"/>
<rect x="-349" y="786" width="432" height="37" rx="12" fill="#EFEFEF"/>
<rect x="101" y="786" width="159" height="37" rx="12" fill="#EFEFEF"/>
<rect x="-85" y="841" width="168" height="37" rx="12" fill="#FF0079"/>
<rect x="101" y="841" width="297" height="37" rx="12" fill="#EFEFEF"/>
<rect x="117" y="896" width="432" height="37" rx="12" fill="#EFEFEF"/>
<rect x="-172" y="896" width="271" height="37" rx="12" fill="#EFEFEF"/>
<rect x="414" y="951" width="135" height="37" rx="12" fill="#FF0079"/>
<rect x="-349" y="1006" width="432" height="37" rx="12" fill="#EFEFEF"/>
<rect x="101" y="1006" width="159" height="37" rx="12" fill="#EFEFEF"/>
<rect x="-85" y="1061" width="483" height="37" rx="12" fill="#EFEFEF"/>
<rect x="1607" y="567" width="159" height="37" rx="12" fill="#EFEFEF"/>
<rect x="1784" y="567" width="271" height="37" rx="12" fill="#FF0079"/>
<rect x="1421" y="622" width="168" height="37" rx="12" fill="#EFEFEF"/>
<rect x="1623" y="677" width="432" height="37" rx="12" fill="#EFEFEF"/>
<rect x="1334" y="677" width="271" height="37" rx="12" fill="#00AED3"/>
<rect x="1421" y="732" width="483" height="37" rx="12" fill="#EFEFEF"/>
<rect x="908" y="842" width="95" height="37" rx="12" fill="#00AED3"/>
<rect x="1157" y="787" width="432" height="37" rx="12" fill="#EFEFEF"/>
<rect x="1607" y="787" width="159" height="37" rx="12" fill="#FF0079"/>
<rect x="1784" y="787" width="271" height="37" rx="12" fill="#EFEFEF"/>
<rect x="1024" y="842" width="376" height="37" rx="12" fill="#EFEFEF"/>
<rect x="1421" y="842" width="483" height="37" rx="12" fill="#EFEFEF"/>
<rect x="1334" y="897" width="271" height="37" rx="12" fill="#EFEFEF"/>
<rect x="1421" y="952" width="483" height="37" rx="12" fill="#EFEFEF"/>
</g>
<defs>
<clipPath id="clip0_308_2309">
<rect width="1920" height="1080" fill="white"/>
</clipPath>
</defs>
</svg>
