<svg width="1920" height="1080" viewBox="0 0 1920 1080" fill="none" xmlns="http://www.w3.org/2000/svg">
<g clip-path="url(#clip0)">
<rect width="221.534" height="35.5095" rx="12" transform="matrix(-1 0 0 1 1026 923)" fill="#EFEFEF"/>
<rect width="414.298" height="35.5095" rx="12" transform="matrix(-1 0 0 1 787.203 923)" fill="#EFEFEF"/>
<rect width="152.485" height="35.5095" rx="12" transform="matrix(-1 0 0 1 355.643 923)" fill="#C1E616"/>
<rect width="259.895" height="35.5095" rx="12" transform="matrix(-1 0 0 1 185.896 923)" fill="#EFEFEF"/>
<rect width="161.116" height="35.5095" rx="12" transform="matrix(-1 0 0 1 534.021 975.784)" fill="#EFEFEF"/>
<rect width="284.83" height="35.5095" rx="12" transform="matrix(-1 0 0 1 355.643 975.784)" fill="#EFEFEF"/>
<rect width="129.468" height="35.5095" rx="12" transform="matrix(-1 0 0 1 55.4678 975.784)" fill="#FF0079"/>
<rect width="221.534" height="35.5095" rx="12" transform="matrix(-1 0 0 1 1026 1028.57)" fill="#EFEFEF"/>
<rect width="414.298" height="35.5095" rx="12" transform="matrix(-1 0 0 1 340.298 1028.57)" fill="#EFEFEF"/>
<rect width="152.485" height="35.5095" rx="12" transform="matrix(-1 0 0 1 787.203 1028.57)" fill="#00AED3"/>
<rect width="259.895" height="35.5095" rx="12" transform="matrix(-1 0 0 1 617.456 1028.57)" fill="#EFEFEF"/>
<rect width="152.485" height="35.5095" rx="12" transform="matrix(-1 0 0 1 204.643 505)" fill="#EFEFEF"/>
<rect width="259.895" height="35.5095" rx="12" transform="matrix(-1 0 0 1 34.8955 505)" fill="#FF0079"/>
<rect width="161.116" height="35.5095" rx="12" transform="matrix(-1 0 0 1 383.021 557.784)" fill="#EFEFEF"/>
<rect width="414.298" height="35.5095" rx="12" transform="matrix(-1 0 0 1 189.298 610.569)" fill="#EFEFEF"/>
<rect width="259.895" height="35.5095" rx="12" transform="matrix(-1 0 0 1 466.456 610.569)" fill="#00AED3"/>
<rect width="471.84" height="35.5095" rx="12" transform="matrix(-1 0 0 1 875 663.353)" fill="#EFEFEF"/>
<rect width="463.208" height="35.5095" rx="12" transform="matrix(-1 0 0 1 383.021 663.353)" fill="#EFEFEF"/>
<rect width="91.1072" height="35.5095" rx="12" transform="matrix(-1 0 0 1 875 768.922)" fill="#C1E616"/>
<rect width="414.298" height="35.5095" rx="12" transform="matrix(-1 0 0 1 636.203 716.137)" fill="#EFEFEF"/>
<rect width="152.485" height="35.5095" rx="12" transform="matrix(-1 0 0 1 204.643 716.137)" fill="#FF0079"/>
<rect width="259.895" height="35.5095" rx="12" transform="matrix(-1 0 0 1 34.8955 716.137)" fill="#EFEFEF"/>
<rect width="360.593" height="35.5095" rx="12" transform="matrix(-1 0 0 1 763.753 768.922)" fill="#EFEFEF"/>
<rect width="463.208" height="35.5095" rx="12" transform="matrix(-1 0 0 1 383.021 768.922)" fill="#EFEFEF"/>
<rect width="221.534" height="35.5095" rx="12" transform="matrix(-1 0 0 1 875 821.706)" fill="#EFEFEF"/>
<rect width="259.895" height="35.5095" rx="12" transform="matrix(-1 0 0 1 466.456 821.706)" fill="#EFEFEF"/>
<rect width="463.208" height="35.5095" rx="12" transform="matrix(-1 0 0 1 383.021 874.491)" fill="#EFEFEF"/>
<rect width="414.298" height="35.5095" rx="12" transform="matrix(-1 0 0 1 1906.2 922)" fill="#FF077D"/>
<rect width="152.485" height="35.5095" rx="12" transform="matrix(-1 0 0 1 1474.64 922)" fill="#EFEFEF"/>
<rect width="161.116" height="35.5095" rx="12" transform="matrix(-1 0 0 1 1653.02 974.784)" fill="#EFEFEF"/>
<rect width="284.83" height="35.5095" rx="12" transform="matrix(-1 0 0 1 1474.64 974.784)" fill="#EFEFEF"/>
<rect width="414.298" height="35.5095" rx="12" transform="matrix(-1 0 0 1 1459.3 1027.57)" fill="#EFEFEF"/>
<rect width="152.485" height="35.5095" rx="12" transform="matrix(-1 0 0 1 1906.2 1027.57)" fill="#EFEFEF"/>
<rect width="259.895" height="35.5095" rx="12" transform="matrix(-1 0 0 1 1736.46 1027.57)" fill="#EFEFEF"/>
</g>
<defs>
<clipPath id="clip0">
<rect width="1920" height="1080" fill="white"/>
</clipPath>
</defs>
</svg>
