<svg width="30" height="30" viewBox="0 0 30 30" fill="none" xmlns="http://www.w3.org/2000/svg">
<path d="M15 0C6.71601 0 0 6.7157 0 15C0 23.2843 6.71601 30 15 30C23.284 30 30 23.2843 30 15C30 6.7157 23.284 0 15 0ZM8.67836 20.3665C5.94844 20.3665 3.73565 17.9641 3.73565 15C3.73565 12.0359 5.94875 9.63315 8.67836 9.63315C11.408 9.63315 13.6214 12.0359 13.6214 15C13.6214 17.9641 11.4083 20.3665 8.67836 20.3665ZM21.1789 20.2389C18.3701 20.2389 16.0935 17.865 16.0935 14.9359C16.0935 12.0074 18.3701 9.63315 21.1789 9.63315C23.9871 9.63315 26.2643 12.0074 26.2643 14.9359C26.2643 17.865 23.9871 20.2389 21.1789 20.2389Z" fill="#222A35"/>
</svg>
