<svg width="33" height="33" viewBox="0 0 33 33" fill="none" xmlns="http://www.w3.org/2000/svg">
<path d="M16.5 0.00195312C7.3858 0.00195312 0 7.38993 0 16.4987C0 25.6129 7.3858 32.9976 16.5 32.9976C25.6142 32.9976 33 25.614 33 16.4987C33 7.38993 25.6131 0.00195312 16.5 0.00195312ZM14.0224 26.3326C13.6517 26.699 13.0552 26.699 12.6888 26.3326L12.3933 26.0371L12.0716 25.7176L10.691 24.337L10.6692 24.3054L4.33683 17.925C3.96824 17.5586 3.96824 16.9578 4.33683 16.5946L6.3324 14.5991C6.70316 14.2294 7.29529 14.2294 7.66387 14.5991L13.3616 20.3372L25.335 8.36155C25.7014 7.99406 26.2979 7.99406 26.6643 8.36155L28.6599 10.3593C29.0285 10.7257 29.0285 11.3244 28.6599 11.6908L14.0224 26.3326Z" fill="#10C001"/>
</svg>
