<svg width="33" height="33" viewBox="0 0 33 33" fill="none" xmlns="http://www.w3.org/2000/svg">
<path d="M16.5 0C7.40162 0 0 7.40162 0 16.5C0 25.5984 7.40162 33 16.5 33C25.5984 33 33 25.5984 33 16.5C33 7.40162 25.5984 0 16.5 0ZM22.5761 20.6319C23.1138 21.1695 23.1138 22.0385 22.5761 22.5761C22.308 22.8443 21.956 22.979 21.604 22.979C21.252 22.979 20.9 22.8443 20.6319 22.5761L16.5 18.4442L12.3681 22.5761C12.1 22.8443 11.748 22.979 11.396 22.979C11.044 22.979 10.692 22.8443 10.4239 22.5761C9.88625 22.0385 9.88625 21.1695 10.4239 20.6319L14.5558 16.5L10.4239 12.3681C9.88625 11.8305 9.88625 10.9615 10.4239 10.4239C10.9615 9.88625 11.8305 9.88625 12.3681 10.4239L16.5 14.5558L20.6319 10.4239C21.1695 9.88625 22.0385 9.88625 22.5761 10.4239C23.1138 10.9615 23.1138 11.8305 22.5761 12.3681L18.4442 16.5L22.5761 20.6319Z" fill="#FF0000"/>
</svg>
