<?xml version="1.0" encoding="UTF-8" standalone="no"?>
<svg
   viewBox="0 0 1500 210"
   version="1.1"
   id="svg41"
   sodipodi:docname="GCC_logo_blacktext_side_long.svg"
   inkscape:version="1.3 (0e150ed6c4, 2023-07-21)"
   width="1500"
   height="210"
   xmlns:inkscape="http://www.inkscape.org/namespaces/inkscape"
   xmlns:sodipodi="http://sodipodi.sourceforge.net/DTD/sodipodi-0.dtd"
   xmlns="http://www.w3.org/2000/svg"
   xmlns:svg="http://www.w3.org/2000/svg">
  <sodipodi:namedview
     id="namedview43"
     pagecolor="#ffffff"
     bordercolor="#111111"
     borderopacity="1"
     inkscape:pageshadow="0"
     inkscape:pageopacity="0"
     inkscape:pagecheckerboard="1"
     showgrid="false"
     inkscape:zoom="0.62880277"
     inkscape:cx="629.76822"
     inkscape:cy="224.23565"
     inkscape:window-width="1920"
     inkscape:window-height="1052"
     inkscape:window-x="0"
     inkscape:window-y="0"
     inkscape:window-maximized="1"
     inkscape:current-layer="g32"
     inkscape:showpageshadow="2"
     inkscape:deskcolor="#d1d1d1"
     showguides="true">
    <sodipodi:guide
       position="1448.5647,105"
       orientation="0,1"
       id="guide1"
       inkscape:locked="false"
       inkscape:label=""
       inkscape:color="rgb(0,134,229)" />
  </sodipodi:namedview>
  <defs
     id="defs4">
    <style
       id="style2">.cls-1{isolation:isolate;}.cls-2{fill:#00aed3;}.cls-3{fill:#a6c613;}.cls-4{fill:#e4006d;}</style>
  </defs>
  <g
     id="Calque_2"
     data-name="Calque 2">
    <g
       id="Calque_2-2"
       data-name="Calque 2">
      <g
         id="text12"
         class="cls-1"
         style="fill:#000000">
        <g
           class="cls-1"
           id="g32"
           style="fill:#000000">
          <g
             id="g1"
             inkscape:label="girls"
             transform="matrix(1.0729793,0,0,1.0729793,-52.589609,-7.6742416)">
            <path
               d="m 448.5183,64.732908 c 16.09065,0 26.22419,7.802507 32.1651,17.01335 l -13.77579,7.462563 a 22.112498,22.112498 0 0 0 -18.42169,-9.712664 c -14.09955,0 -24.3626,10.845808 -24.3626,25.528133 0,14.68231 10.26305,25.52812 24.3626,25.52812 a 26.305132,26.305132 0 0 0 16.80291,-6.02185 v -9.43747 h -20.73654 v -14.22906 h 37.07001 v 29.72076 a 43.140416,43.140416 0 0 1 -33.104,14.69849 c -22.66288,0 -41.37595,-15.86401 -41.37595,-40.33993 0,-24.475926 18.64831,-40.210442 41.37595,-40.210442 z"
               id="path6"
               style="fill:#000000;stroke-width:1.61878" />
            <path
               d="m 494.78296,66.011742 h 16.56009 v 77.701328 h -16.56009 z"
               id="path8"
               style="fill:#000000;stroke-width:1.61878" />
            <path
               d="m 555.38998,115.90248 h -12.12464 v 27.85915 H 526.80237 V 66.011742 h 36.35774 c 16.18777,0 26.11088,10.602991 26.11088,25.058673 0,13.759615 -8.62808,21.044125 -17.01335,23.083785 l 17.48279,29.60743 h -19.08538 z m 5.24484,-35.613122 H 543.26534 V 101.6896 h 17.36948 c 6.65317,0 11.65519,-4.20883 11.65519,-10.732499 0,-6.523673 -5.01821,-10.716306 -11.65519,-10.716306 z"
               id="path10"
               style="fill:#000000;stroke-width:1.61878" />
            <path
               d="m 601.65464,66.011742 h 16.56009 v 63.132328 h 32.86118 v 14.569 h -49.42127 z"
               id="path12"
               style="fill:#000000;stroke-width:1.61878" />
            <path
               d="m 666.34098,120.22461 a 34.156202,34.156202 0 0 0 24.71873,10.48968 c 9.08134,0 13.51679,-4.32214 13.51679,-8.7414 0,-5.84379 -6.76649,-7.81869 -15.73452,-9.9231 -12.7074,-2.91381 -29.02468,-6.47512 -29.02468,-23.77986 0,-12.950218 11.18576,-23.423708 29.49413,-23.423708 12.35127,0 22.66288,3.739376 30.30351,10.845808 l -9.21084,12.124643 a 33.168748,33.168748 0 0 0 -22.25819,-8.514769 c -7.46257,0 -11.42857,3.237554 -11.42857,7.932009 0,5.244838 6.47511,6.879803 15.50789,8.968027 12.82071,2.9138 29.13799,6.7665 29.13799,24.02267 0,14.21287 -10.13355,24.92917 -31.12909,24.92917 -14.90894,0 -25.64143,-5.00202 -32.97449,-12.35127 z"
               id="path14"
               style="fill:#000000;stroke-width:1.61878" />
          </g>
          <g
             id="g2"
             inkscape:label="can"
             transform="matrix(1.0729793,0,0,1.0729793,-46.424345,-7.6742416)">
            <path
               d="m 746.14776,105.16437 c 0,-24.713247 18.63743,-41.58633 42.1827,-41.58633 18.31439,0 28.57739,9.641762 34.21833,19.656272 l -14.69872,7.231322 A 22.017013,22.017013 0 0 0 788.33046,78.773755 c -13.99049,0 -24.58897,11.182456 -24.58897,26.390615 0,15.20814 10.59848,26.3906 24.58897,26.3906 a 21.793364,21.793364 0 0 0 19.51961,-11.69188 l 14.69872,7.1195 c -5.77761,9.93996 -15.90394,19.75567 -34.21833,19.75567 -23.508,0.0248 -42.1827,-16.87308 -42.1827,-41.57389 z"
               id="path16"
               style="fill:#000000;stroke-width:1.2425" />
            <path
               d="m 883.15767,131.44315 h -35.89566 l -5.10666,13.85382 h -18.76167 l 31.06238,-80.389461 h 21.49514 l 30.9754,80.389461 h -18.63742 z m -31.31085,-14.8354 h 26.62664 L 865.21607,79.730476 Z"
               id="path18"
               style="fill:#000000;stroke-width:1.2425" />
            <path
               d="M 931.50315,91.298105 V 145.29697 H 914.394 V 64.907509 h 17.59373 L 969.26258,116.9805 V 64.907509 h 17.12152 v 80.389461 h -16.54998 z"
               id="path20"
               style="fill:#000000;stroke-width:1.2425" />
          </g>
          <g
             id="g3"
             inkscape:label="code"
             transform="matrix(1.0729793,0,0,1.0729793,-52.589609,-7.6742416)">
            <path
               d="m 1022.6605,105.17329 c 0,-24.011197 18.1683,-40.421197 41.0251,-40.421197 17.7598,0 27.7762,9.377143 33.2817,19.091721 l -14.2077,7.103895 a 21.436006,21.436006 0 0 0 -18.9852,-11.366233 c -13.5862,0 -23.9047,10.90448 -23.9047,25.662844 0,14.75835 10.2296,25.60955 23.8691,25.60955 a 21.205129,21.205129 0 0 0 18.9852,-11.36625 l 14.2077,6.90856 c -5.6121,9.73232 -15.4687,19.21603 -33.2817,19.21603 -22.8213,0 -40.9895,-16.41 -40.9895,-40.43892 z"
               id="path22"
               style="fill:#000000;stroke-width:1.77598" />
            <path
               d="m 1143.9773,64.752093 c 23.6738,0 40.8475,16.871752 40.8475,40.421197 0,23.54941 -17.227,40.43892 -40.8475,40.43892 -23.6205,0 -40.8474,-16.87176 -40.8474,-40.43892 0,-23.567204 17.2979,-40.421196 40.8474,-40.421197 z m 0,14.758345 c -14.4209,0 -23.6737,11.01104 -23.6737,25.662852 0,14.65178 9.2528,25.68058 23.6737,25.68058 14.4209,0 23.798,-11.13536 23.798,-25.68058 0,-14.545256 -9.377,-25.662851 -23.798,-25.662852 z"
               id="path24"
               style="fill:#000000;stroke-width:1.77598" />
            <path
               d="m 1196.6172,66.030795 h 30.8131 c 24.5085,0 41.4868,15.59305 41.4868,39.071455 0,23.47837 -16.9783,39.07143 -41.4868,39.07143 h -30.8131 z m 30.8131,63.526605 c 15.4687,0 24.5085,-11.13535 24.5085,-24.38411 0,-13.817106 -8.4536,-24.49071 -24.5085,-24.49071 h -14.2077 v 48.87482 z"
               id="path26"
               style="fill:#000000;stroke-width:1.77598" />
            <path
               d="m 1280.7628,66.030795 h 55.3217 v 14.207791 h -38.6809 v 16.996072 h 37.8639 v 14.296622 h -37.8639 v 18.257 h 38.6809 v 14.42092 h -55.3217 z"
               id="path28"
               style="fill:#000000;stroke-width:1.77598" />
            <path
               d="m 1356.366,126.52049 a 9.4304222,9.4304222 0 1 1 0,18.86084 9.4304222,9.4304222 0 0 1 0,-18.86084 z m -9.0219,-60.489694 h 17.9374 l -2.3443,52.746444 h -13.1245 z"
               id="path30"
               style="fill:#000000;stroke-width:1.77598" />
          </g>
        </g>
      </g>
      <g
         id="g24">
        <polygon
           id="polygon4"
           class="cls-2"
           points="40.88,84.88 81.75,84.88 81.75,43.99 40.88,43.99 0,43.99 0,84.88 0,125.75 0,166.63 40.88,166.63 81.75,166.63 81.75,125.75 40.88,125.75 " />
        <polygon
           id="polygon6"
           class="cls-3"
           points="296.3,125.75 255.43,125.75 255.43,166.63 296.3,166.63 337.18,166.63 337.18,125.75 337.18,84.88 337.18,43.99 296.3,43.99 255.43,43.99 255.43,84.88 296.3,84.88 " />
        <polygon
           id="polygon8"
           class="cls-4"
           points="148.32,125.75 148.32,85.08 148.32,84.97 148.32,44.3 189.2,44.3 230.07,44.3 230.07,3.42 189.2,3.42 148.32,3.42 107.45,3.42 107.45,44.2 107.45,44.3 107.45,84.97 107.45,85.08 107.45,125.75 107.45,125.86 107.45,166.63 107.45,207.94 230.07,207.94 230.07,166.63 230.07,125.86 230.07,125.75 230.07,84.97 189.2,84.97 189.2,125.75 189.2,166.63 148.32,166.63 " />
      </g>
    </g>
  </g>
</svg>
