<svg width="1920" height="1080" viewBox="0 0 1920 1080" fill="none" xmlns="http://www.w3.org/2000/svg">
<g clip-path="url(#clip0)">
<rect width="1920" height="1080" fill="white"/>
<rect x="889.706" y="729.332" width="231" height="37" rx="12" fill="#EFEFEF"/>
<rect x="1138.71" y="729.332" width="432" height="37" rx="12" fill="#EFEFEF"/>
<rect x="1588.71" y="729.332" width="159" height="37" rx="12" fill="#EFEFEF"/>
<rect x="1765.71" y="729.332" width="271" height="37" rx="12" fill="#EFEFEF"/>
<rect x="1402.71" y="784.332" width="168" height="37" rx="12" fill="#EFEFEF"/>
<rect x="1588.71" y="784.332" width="297" height="37" rx="12" fill="#EFEFEF"/>
<rect x="1901.71" y="784.332" width="135" height="37" rx="12" fill="#FF0079"/>
<rect x="889.706" y="839.332" width="231" height="37" rx="12" fill="#EFEFEF"/>
<rect x="1604.71" y="839.332" width="432" height="37" rx="12" fill="#EFEFEF"/>
<rect x="1138.71" y="839.332" width="159" height="37" rx="12" fill="#EFEFEF"/>
<rect x="1315.71" y="839.332" width="271" height="37" rx="12" fill="#EFEFEF"/>
<rect x="889.706" y="894.332" width="492" height="37" rx="12" fill="#EFEFEF"/>
<rect x="1402.71" y="894.332" width="483" height="37" rx="12" fill="#EFEFEF"/>
<rect x="1901.71" y="894.332" width="135" height="37" rx="12" fill="#EFEFEF"/>
<rect x="889.706" y="949.332" width="231" height="37" rx="12" fill="#EFEFEF"/>
<rect x="889.706" y="1004.33" width="95" height="37" rx="12" fill="#EFEFEF"/>
<rect x="1138.71" y="949.332" width="432" height="37" rx="12" fill="#FF077D"/>
<rect x="1588.71" y="949.332" width="159" height="37" rx="12" fill="#EFEFEF"/>
<rect x="1765.71" y="949.332" width="271" height="37" rx="12" fill="#EFEFEF"/>
<rect x="1005.71" y="1004.33" width="376" height="37" rx="12" fill="#EFEFEF"/>
<rect x="1402.71" y="1004.33" width="483" height="37" rx="12" fill="#EFEFEF"/>
<rect x="1901.71" y="1004.33" width="135" height="37" rx="12" fill="#EFEFEF"/>
<rect x="1604.71" y="1059.33" width="432" height="37" rx="12" fill="#EFEFEF"/>
<rect x="1138.71" y="1059.33" width="159" height="37" rx="12" fill="#EFEFEF"/>
<rect x="1315.71" y="1059.33" width="271" height="37" rx="12" fill="#EFEFEF"/>
<rect x="1745.71" y="293.332" width="159" height="37" rx="12" fill="#EFEFEF"/>
<rect x="1559.71" y="348.332" width="168" height="37" rx="12" fill="#EFEFEF"/>
<rect x="1761.71" y="403.332" width="432" height="37" rx="12" fill="#EFEFEF"/>
<rect x="1472.71" y="403.332" width="271" height="37" rx="12" fill="#00AED3"/>
<rect x="1046.71" y="458.332" width="492" height="37" rx="12" fill="#EFEFEF"/>
<rect x="1559.71" y="458.332" width="483" height="37" rx="12" fill="#EFEFEF"/>
<rect x="1046.71" y="568.332" width="95" height="37" rx="12" fill="#00AED3"/>
<rect x="1295.71" y="513.332" width="432" height="37" rx="12" fill="#EFEFEF"/>
<rect x="1745.71" y="513.332" width="159" height="37" rx="12" fill="#FF0079"/>
<rect x="1162.71" y="568.332" width="376" height="37" rx="12" fill="#EFEFEF"/>
<rect x="1559.71" y="568.332" width="483" height="37" rx="12" fill="#EFEFEF"/>
<rect x="1046.71" y="623.332" width="231" height="37" rx="12" fill="#EFEFEF"/>
<rect x="1472.71" y="623.332" width="271" height="37" rx="12" fill="#EFEFEF"/>
<rect x="1559.71" y="678.332" width="483" height="37" rx="12" fill="#EFEFEF"/>
<rect x="-28.2944" y="728.332" width="432" height="37" rx="12" fill="#FF077D"/>
<rect x="421.706" y="728.332" width="159" height="37" rx="12" fill="#EFEFEF"/>
<rect x="235.706" y="783.332" width="168" height="37" rx="12" fill="#EFEFEF"/>
<rect x="421.706" y="783.332" width="297" height="37" rx="12" fill="#EFEFEF"/>
<rect x="437.706" y="838.332" width="432" height="37" rx="12" fill="#EFEFEF"/>
<rect x="-28.2944" y="838.332" width="159" height="37" rx="12" fill="#EFEFEF"/>
<rect x="148.706" y="838.332" width="271" height="37" rx="12" fill="#EFEFEF"/>
<rect x="-277.294" y="893.332" width="492" height="37" rx="12" fill="#EFEFEF"/>
<rect x="235.706" y="893.332" width="483" height="37" rx="12" fill="#EFEFEF"/>
<rect x="734.706" y="893.332" width="135" height="37" rx="12" fill="#EFEFEF"/>
<rect x="-28.2944" y="948.332" width="432" height="37" rx="12" fill="#EFEFEF"/>
<rect x="421.706" y="948.332" width="159" height="37" rx="12" fill="#EFEFEF"/>
<rect x="598.706" y="948.332" width="271" height="37" rx="12" fill="#EFEFEF"/>
<rect x="-161.294" y="1003.33" width="376" height="37" rx="12" fill="#EFEFEF"/>
<rect x="235.706" y="1003.33" width="483" height="37" rx="12" fill="#00AED3"/>
<rect x="734.706" y="1003.33" width="135" height="37" rx="12" fill="#EFEFEF"/>
<rect x="437.706" y="1058.33" width="432" height="37" rx="12" fill="#EFEFEF"/>
<rect x="-28.2944" y="1058.33" width="159" height="37" rx="12" fill="#EFEFEF"/>
<rect x="148.706" y="1058.33" width="271" height="37" rx="12" fill="#EFEFEF"/>
<path d="M1622.17 624.605C1618.3 628.445 1613.5 631.35 1609.16 636.15C1604.81 640.95 1588.44 646.254 1587 646.76C1585.56 647.265 1587.96 638.55 1587 629.405C1586.04 620.26 1580.26 621.7 1578.34 626.045C1576.42 630.39 1576.42 636.63 1574.95 641.455C1573.49 646.28 1560.53 659.264 1561.01 666.489C1561.49 673.714 1562.45 689.224 1562.45 689.224L1512.36 750.862C1512.36 750.862 1497.91 704.634 1491.19 681.999C1484.47 659.365 1473.83 645.396 1453.62 639.636C1440.72 636.057 1427.48 633.797 1414.11 632.891L1338.48 631.83C1336.08 632.79 1284.55 636.63 1274.92 648.68C1265.3 660.729 1257.11 709.307 1257.11 712.717C1257.11 716.128 1242.19 761.371 1242.19 761.371C1242.19 761.371 1220.03 755.586 1196.92 734.872C1173.8 714.157 1155.01 700.693 1154.53 699.228C1154.05 697.763 1145.86 690.563 1130.93 676.113C1116 661.664 1105.9 656.384 1097.72 652.999C1089.53 649.614 1080.87 652.999 1081.35 657.344C1081.83 661.689 1083.75 661.184 1092.41 662.649C1101.07 664.114 1108.3 673.714 1108.3 673.714C1108.3 673.714 1100.12 682.858 1098.68 688.643C1097.24 694.428 1094.33 703.573 1099.64 706.452C1104.94 709.332 1116 709.838 1116 709.838C1116 709.838 1119.39 715.622 1123.23 715.622C1127.07 715.622 1141.54 714.157 1141.54 714.157C1141.54 714.157 1187.29 777.74 1198.36 788.325C1209.42 798.909 1242.19 814.344 1247.49 816.264C1252.8 818.184 1260.47 820.584 1266.74 816.264C1273 811.944 1296.14 750.382 1296.14 750.382C1296.14 750.382 1310.54 786.228 1313.45 801.158C1315.16 809.122 1315.04 817.371 1313.09 825.282C1313.09 824.701 1315.95 821.064 1315.62 818.159C1340.55 823.463 1398.07 834.957 1454.38 820.356V821.064C1452.94 806.134 1460.32 764.832 1460.32 764.832C1460.32 764.832 1476.71 795.651 1484.42 809.14C1492.12 822.63 1505.13 830.865 1514.73 828.945C1524.33 827.025 1553.25 769.707 1557.12 753.818C1560.98 737.928 1578.29 696.929 1580.69 692.609C1583.09 688.29 1598.04 676.695 1601.4 674.295C1604.76 671.895 1619.09 661.664 1622.6 656.965C1626.11 652.267 1627.88 641.076 1628.38 632.411C1628.89 623.747 1626.01 620.74 1622.17 624.605Z" fill="white" stroke="#263238" stroke-width="2.52614" stroke-linecap="round" stroke-linejoin="round"/>
<path d="M1468.96 1088.89C1470.83 1079.82 1474.57 1071.4 1477.39 1062.49C1484.87 1039.79 1490.47 1016.51 1494.14 992.892C1495.94 981.355 1496.69 969.678 1496.37 958.006C1494.24 904.957 1458.98 834.225 1455.16 824.726C1454.68 823.29 1454.4 821.794 1454.33 820.28C1398.02 834.881 1340.5 823.387 1315.57 818.083C1315.95 820.988 1313.04 824.625 1313.04 825.206C1313.04 827.101 1279.67 901.319 1277.02 936.357C1274.37 971.394 1276.49 990.391 1283.89 1024.77C1286.49 1036.75 1289.53 1048.61 1293.01 1060.36C1296.3 1071.38 1301.52 1082.47 1303.42 1094.09C1305.44 1106.47 1307.26 1118.47 1304.68 1130.52C1297.1 1165.88 1297.1 1196.04 1304.68 1228.81C1312.26 1261.57 1314.79 1289.26 1318.53 1310.68C1322.26 1332.1 1322.09 1392.02 1322.09 1392.02C1316.97 1401.06 1311.16 1409.68 1304.71 1417.81C1287.5 1439.44 1287.88 1457.32 1292.94 1462.38C1297.99 1467.43 1303.44 1464.45 1318.58 1453.1C1333.71 1441.76 1347.55 1420.26 1348.89 1412.69L1350.15 1405.11L1355.2 1374.79C1355.2 1374.79 1369.07 1274.03 1369.07 1238.76C1369.07 1206.98 1375.24 1168.23 1377.31 1136.55C1379.38 1104.88 1376.32 1112.02 1379.23 1080.7C1379.73 1075.29 1380.09 1038.54 1380.49 1033.13L1383.83 986.551C1383.83 985.818 1383.95 985.111 1384 984.379H1386.78C1389.64 1004.34 1390.17 1024.52 1391.25 1044.63C1392.84 1073.96 1393.1 1104.65 1394.81 1133.95C1396 1154.29 1399.87 1173.13 1400.85 1193.47C1401.56 1208.62 1402.34 1223.65 1402.34 1238.76C1402.34 1274.13 1416.21 1374.79 1416.21 1374.79L1421.26 1405.11L1422.53 1412.69C1423.79 1420.26 1437.68 1441.66 1452.84 1453.1C1468 1464.55 1473.35 1465.74 1478.38 1460.68C1483.41 1455.63 1481.44 1443.45 1465.75 1420.64C1459.74 1412.05 1454.35 1403.03 1449.63 1393.66C1449.63 1393.66 1448.9 1332.05 1452.66 1310.63C1456.43 1289.21 1461.48 1261.55 1469.03 1228.76C1476.59 1195.97 1476.61 1165.76 1469.03 1130.47C1466.51 1119.17 1467.09 1107.73 1467.92 1096.03C1468.11 1093.63 1468.46 1091.24 1468.96 1088.89Z" fill="#263238" stroke="#263238" stroke-width="2.52614" stroke-linecap="round" stroke-linejoin="round"/>
<path d="M1419.29 962.199L1412.67 970.157" stroke="white" stroke-width="2.52614" stroke-linecap="round" stroke-linejoin="round"/>
<path d="M1448.7 926.732L1424.6 955.783" stroke="white" stroke-width="2.52614" stroke-linecap="round" stroke-linejoin="round"/>
<path d="M1337.77 944.87L1358.74 963.967" stroke="white" stroke-width="2.52614" stroke-linecap="round" stroke-linejoin="round"/>
<path d="M1572.55 680.938C1572.55 680.938 1579.78 664.569 1592.31 660.224C1604.84 655.879 1615.42 653.479 1615.42 653.479C1615.42 653.479 1624.57 625.692 1628.43 632.31C1632.3 638.929 1625.05 658.784 1621.69 661.689C1618.33 664.594 1580.74 692.508 1580.74 692.508" fill="white"/>
<path d="M1572.55 680.938C1572.55 680.938 1579.78 664.569 1592.31 660.224C1604.84 655.879 1615.42 653.479 1615.42 653.479C1615.42 653.479 1624.57 625.692 1628.43 632.31C1632.3 638.929 1625.05 658.784 1621.69 661.689C1618.33 664.594 1580.74 692.508 1580.74 692.508" stroke="#263238" stroke-width="2.52614" stroke-linecap="round" stroke-linejoin="round"/>
<path d="M1146.5 692.508C1146.5 692.508 1142.66 680.458 1141.22 677.579C1139.78 674.699 1131.11 671.314 1128.21 664.569C1125.3 657.824 1124.34 653.479 1120.98 657.824C1119.25 659.859 1118.15 662.354 1117.81 665.004C1117.46 667.654 1117.9 670.347 1119.06 672.754C1120.68 676.26 1123.63 678.984 1127.25 680.332C1127.25 680.332 1120.5 696.701 1134.95 703.446" fill="white"/>
<path d="M1146.5 692.508C1146.5 692.508 1142.66 680.458 1141.22 677.579C1139.78 674.699 1131.11 671.314 1128.21 664.569C1125.3 657.824 1124.34 653.479 1120.98 657.824C1119.25 659.859 1118.15 662.354 1117.81 665.004C1117.46 667.654 1117.9 670.347 1119.06 672.754C1120.68 676.26 1123.63 678.984 1127.25 680.332C1127.25 680.332 1120.5 696.701 1134.95 703.446" stroke="#263238" stroke-width="2.52614" stroke-linecap="round" stroke-linejoin="round"/>
<path d="M1110.75 677.124C1110.75 677.124 1124.69 684.349 1124.21 690.588C1123.73 696.828 1117.47 711.303 1116.51 712.743C1115.55 714.183 1100.14 710.823 1097.74 709.383C1095.34 707.943 1094.58 697.939 1098.7 688.669C1100.38 685.318 1102.31 682.1 1104.49 679.044" fill="white"/>
<path d="M1110.75 677.124C1110.75 677.124 1124.69 684.349 1124.21 690.588C1123.73 696.828 1117.47 711.303 1116.51 712.743C1115.55 714.183 1100.14 710.823 1097.74 709.383C1095.34 707.943 1094.58 697.939 1098.7 688.669C1100.38 685.318 1102.31 682.1 1104.49 679.044" stroke="#263238" stroke-width="2.52614" stroke-linecap="round" stroke-linejoin="round"/>
<path d="M1100.72 684.298C1106.9 689.889 1114.45 693.757 1122.6 695.514" stroke="#263238" stroke-width="2.52614" stroke-linecap="round" stroke-linejoin="round"/>
<path d="M1096.45 696.853C1102.9 702.387 1111.17 705.33 1119.67 705.114" stroke="#263238" stroke-width="2.52614" stroke-linecap="round" stroke-linejoin="round"/>
<path d="M1555.53 758.971C1527.34 755.283 1525.54 744.9 1524.25 736.236L1512.36 750.862C1512.36 750.862 1497.91 704.634 1491.16 681.999C1484.42 659.365 1473.83 645.395 1453.62 639.636C1440.72 636.057 1427.48 633.797 1414.11 632.891L1338.48 631.83C1336.08 632.79 1284.55 636.63 1274.92 648.679C1265.3 660.729 1257.11 709.307 1257.11 712.717C1257.11 716.127 1242.19 761.371 1242.19 761.371C1231.03 757.849 1220.49 752.617 1210.94 745.86L1195.12 784.864C1196.39 786.304 1197.5 787.39 1198.36 788.325C1209.45 798.934 1242.19 814.344 1247.49 816.264C1252.79 818.184 1260.47 820.584 1266.74 816.264C1273 811.944 1296.14 750.382 1296.14 750.382C1296.14 750.382 1310.54 786.228 1313.45 801.157C1315.16 809.122 1315.04 817.371 1313.09 825.282C1313.09 825.56 1312.56 827.303 1311.7 830.107C1332.97 839.505 1356.12 843.887 1379.35 842.915C1405.71 841.478 1431.85 837.33 1457.36 830.537C1456.38 828.01 1455.62 825.964 1455.16 824.802C1451.35 815.279 1460.34 764.832 1460.34 764.832C1460.34 764.832 1476.74 795.65 1484.44 809.14C1492.15 822.63 1505.16 830.865 1514.76 828.945C1523.55 827.076 1548.15 779.508 1555.53 758.971Z" fill="#37474F" stroke="#263238" stroke-width="2.52614" stroke-linecap="round" stroke-linejoin="round"/>
<path d="M1498.82 766.398L1491.64 774.658" stroke="#263238" stroke-width="2.52614" stroke-linecap="round" stroke-linejoin="round"/>
<path d="M1512.36 750.761L1503.01 761.547" stroke="#263238" stroke-width="2.52614" stroke-linecap="round" stroke-linejoin="round"/>
<path d="M1260.63 769.53L1265.1 771.501" stroke="#263238" stroke-width="2.52614" stroke-linecap="round" stroke-linejoin="round"/>
<path d="M1242.21 761.371L1254.46 765.716" stroke="#263238" stroke-width="2.52614" stroke-linecap="round" stroke-linejoin="round"/>
<path d="M1326.41 467.302C1322.43 473.679 1319.13 480.452 1316.56 487.511C1314.23 495.646 1315.97 543.844 1299.12 556.602C1282.28 569.359 1288.09 588.532 1309 600.733C1329.92 612.935 1365.31 629.178 1404.79 621.65C1444.28 614.122 1465.19 595.504 1467.52 579.842C1469.84 564.18 1459.94 561.25 1455.32 546.143C1450.69 531.037 1455.9 515.375 1446.6 488.674C1437.3 461.972 1406.54 442.799 1380.42 443.961C1354.3 445.123 1331.64 455.707 1326.41 467.302Z" fill="#263238" stroke="#263238" stroke-width="2.52614" stroke-linecap="round" stroke-linejoin="round"/>
<path d="M1357.71 618.315C1357.71 618.315 1341.97 624.151 1339.26 627.738C1336.35 632.785 1333.81 638.046 1331.69 643.476C1331.69 643.476 1329.89 703.269 1338.89 699.228C1347.88 695.186 1373.85 673.158 1376.58 673.587C1379.3 674.017 1412.55 696.979 1416.14 697.863C1419.72 698.748 1420.63 700.566 1422.88 693.367C1425.13 686.167 1426.92 655.626 1425.13 642.591C1423.33 629.556 1409.39 621.448 1401.74 619.654C1394.08 617.86 1357.71 618.315 1357.71 618.315Z" fill="white" stroke="#263238" stroke-width="2.52614" stroke-linecap="round" stroke-linejoin="round"/>
<path d="M1355 603.032C1355 603.032 1353.21 622.357 1349.95 632.234C1346.69 642.111 1375.57 696.525 1381.43 690.689C1387.29 684.854 1408.38 641.227 1408.38 634.482C1408.38 627.738 1405.7 602.123 1405.7 602.123L1355 603.032Z" fill="white" stroke="#263238" stroke-width="2.52614" stroke-linecap="round" stroke-linejoin="round"/>
<path d="M1395.88 612.48C1395.88 612.48 1389.81 624.631 1372.53 630.163C1355.26 635.695 1350.05 632.184 1350.05 632.184L1355.1 602.981L1395.88 612.48Z" fill="#263238" stroke="#263238" stroke-width="2.52614" stroke-linecap="round" stroke-linejoin="round"/>
<path d="M1356.77 495.469C1356.77 495.469 1331.79 530.052 1331.79 531.795C1331.79 533.538 1331.64 543.39 1331.64 543.39C1331.64 543.39 1316.48 539.904 1322.34 560.214C1328.2 580.524 1340.35 577.644 1340.35 577.644C1340.35 577.644 1349.07 602.603 1360.69 611.899C1372.31 621.195 1389.16 624.681 1404.16 608.918C1412.94 600.195 1418.98 589.097 1421.54 576.987C1421.54 576.987 1437.08 572.845 1437.86 558.041C1438.19 551.625 1437.63 547.305 1429.09 543.895L1430.26 525.884C1430.26 525.884 1360.84 519.846 1356.77 495.469Z" fill="white" stroke="#263238" stroke-width="2.52614" stroke-linecap="round" stroke-linejoin="round"/>
<path d="M1367.25 553.04C1367.25 556.197 1365.56 558.774 1363.47 558.774C1361.37 558.774 1359.7 556.248 1359.7 553.04C1359.7 549.831 1361.39 547.331 1363.47 547.331C1365.54 547.331 1367.25 549.882 1367.25 553.04Z" fill="#263238"/>
<path d="M1407.45 553.04C1407.45 556.197 1405.75 558.774 1403.66 558.774C1401.56 558.774 1399.87 556.248 1399.87 553.04C1399.87 549.831 1401.58 547.331 1403.66 547.331C1405.73 547.331 1407.45 549.882 1407.45 553.04Z" fill="#263238"/>
<path d="M1371.65 575.093C1372.89 576.527 1374.45 577.642 1376.21 578.345C1377.97 579.049 1379.87 579.319 1381.75 579.135C1383.68 578.888 1385.53 578.216 1387.16 577.168C1388.8 576.119 1390.18 574.72 1391.2 573.072" stroke="#263238" stroke-width="2.52614" stroke-linecap="round" stroke-linejoin="round"/>
<path d="M1346.29 541.243C1346.29 541.243 1352.35 533.513 1365.84 537.883" stroke="#263238" stroke-width="2.52614" stroke-linecap="round" stroke-linejoin="round"/>
<path d="M1394.06 533.664C1394.06 533.664 1408.13 530.708 1412.75 544.703" stroke="#263238" stroke-width="2.52614" stroke-linecap="round" stroke-linejoin="round"/>
<path d="M1369.6 585.779C1372.31 588.367 1375.81 589.969 1379.53 590.326C1386.15 591.159 1394.03 585.273 1394.03 585.273C1394.03 585.273 1391.51 595.631 1384.1 599.369C1376.7 603.108 1369.6 593.761 1369.6 585.779Z" fill="#263238"/>
<path d="M1460.34 764.73L1465.17 707.438" stroke="#263238" stroke-width="2.52614" stroke-linecap="round" stroke-linejoin="round"/>
<path d="M1296.14 750.281L1287.96 705.013" stroke="#263238" stroke-width="2.52614" stroke-linecap="round" stroke-linejoin="round"/>
<path d="M1392.54 857.869C1392.55 856.503 1392.15 855.166 1391.39 854.028C1390.63 852.89 1389.56 852.003 1388.3 851.478C1387.03 850.952 1385.65 850.814 1384.31 851.079C1382.97 851.344 1381.73 852.002 1380.77 852.968C1379.8 853.934 1379.15 855.165 1378.88 856.505C1378.61 857.845 1378.75 859.234 1379.28 860.495C1379.8 861.756 1380.69 862.833 1381.83 863.589C1382.97 864.345 1384.3 864.745 1385.67 864.74C1387.49 864.74 1389.24 864.017 1390.53 862.728C1391.82 861.439 1392.54 859.692 1392.54 857.869Z" fill="white" stroke="#263238" stroke-width="2.52614" stroke-linecap="round" stroke-linejoin="round"/>
<path d="M322.115 1005.7L324.845 1051.16H246.452L249.182 1005.7L251.153 972.783H320.125L322.115 1005.7Z" fill="white" stroke="#263238" stroke-width="1.80839" stroke-miterlimit="10"/>
<path d="M320.126 972.783L322.115 1005.7H249.183L251.154 972.783H320.126Z" fill="#263238" stroke="#263238" stroke-width="1.80839" stroke-miterlimit="10"/>
<path d="M345.226 1043.33H226.071V1055.88H345.226V1043.33Z" fill="white" stroke="#263238" stroke-width="1.80839" stroke-miterlimit="10"/>
<path d="M145.308 768.941H425.97C430.335 768.941 434.521 770.675 437.607 773.761C440.693 776.848 442.427 781.033 442.427 785.398V975.912C442.427 979.653 440.941 983.24 438.296 985.886C435.65 988.531 432.062 990.017 428.321 990.017H142.958C139.217 990.017 135.629 988.531 132.983 985.886C130.338 983.24 128.852 979.653 128.852 975.912V785.416C128.85 783.253 129.274 781.111 130.1 779.113C130.925 777.114 132.137 775.298 133.666 773.768C135.194 772.238 137.009 771.024 139.007 770.196C141.004 769.368 143.146 768.941 145.308 768.941Z" fill="white" stroke="#263238" stroke-width="1.80839" stroke-miterlimit="10"/>
<path d="M145.308 768.941H425.97C430.335 768.941 434.521 770.675 437.607 773.761C440.693 776.848 442.427 781.033 442.427 785.398V957.086H128.852V785.416C128.85 783.253 129.274 781.111 130.1 779.113C130.925 777.114 132.137 775.298 133.666 773.768C135.194 772.238 137.009 771.024 139.007 770.196C141.004 769.368 143.146 768.941 145.308 768.941Z" fill="#263238" stroke="#263238" stroke-width="1.80839" stroke-miterlimit="10"/>
<path d="M428.321 784.62H142.958V941.408H428.321V784.62Z" fill="white" stroke="#263238" stroke-width="1.80839" stroke-miterlimit="10"/>
<path d="M160.191 879.868H189.126" stroke="#263238" stroke-width="1.80839" stroke-miterlimit="10"/>
<path d="M160.191 887.102H189.126" stroke="#263238" stroke-width="1.80839" stroke-miterlimit="10"/>
<path d="M160.191 894.335H189.126" stroke="#263238" stroke-width="1.80839" stroke-miterlimit="10"/>
<path d="M160.191 901.569H189.126" stroke="#263238" stroke-width="1.80839" stroke-miterlimit="10"/>
<path d="M163.953 780.551L138.328 779.086L137.605 802.523H163.23L163.953 780.551Z" fill="#C1E616" stroke="#263238" stroke-width="1.80839" stroke-miterlimit="10"/>
<path d="M448.485 796.23L422.842 794.765L422.119 818.184H447.744L448.485 796.23Z" fill="#C1E616" stroke="#263238" stroke-width="1.80839" stroke-miterlimit="10"/>
<path d="M141.981 829.613L116.356 828.148L115.633 851.585H141.258L141.981 829.613Z" fill="#C1E616" stroke="#263238" stroke-width="1.80839" stroke-miterlimit="10"/>
<path d="M145.652 859.632L120.027 858.167L119.286 881.604H144.911L145.652 859.632Z" fill="#C1E616" stroke="#263238" stroke-width="1.80839" stroke-miterlimit="10"/>
<path d="M866.557 834.197H575.924C572.719 834.194 569.644 835.461 567.373 837.721C565.101 839.981 563.818 843.05 563.805 846.254V1030.46C563.805 1032.05 564.118 1033.62 564.727 1035.09C565.337 1036.56 566.23 1037.9 567.355 1039.02C568.481 1040.15 569.817 1041.04 571.287 1041.65C572.757 1042.25 574.333 1042.57 575.924 1042.56H614.489V1036.66C614.502 1035.84 614.834 1035.06 615.416 1034.48C615.997 1033.9 616.782 1033.57 617.602 1033.56H824.754C825.587 1033.56 826.385 1033.89 826.973 1034.48C827.562 1035.07 827.893 1035.87 827.893 1036.7V1042.6H866.47C869.681 1042.6 872.76 1041.33 875.031 1039.06C877.301 1036.79 878.577 1033.71 878.577 1030.5V846.254C878.564 843.067 877.294 840.013 875.044 837.756C872.794 835.499 869.744 834.22 866.557 834.197Z" fill="#263238"/>
<path d="M723.783 842.124C723.783 842.632 723.631 843.129 723.347 843.551C723.062 843.973 722.659 844.3 722.188 844.491C721.716 844.682 721.199 844.728 720.701 844.623C720.204 844.518 719.749 844.267 719.394 843.903C719.04 843.538 718.803 843.076 718.713 842.575C718.623 842.075 718.684 841.559 718.889 841.093C719.094 840.628 719.433 840.234 719.863 839.962C720.293 839.691 720.794 839.554 721.302 839.568C721.968 839.585 722.601 839.861 723.065 840.339C723.528 840.817 723.786 841.458 723.783 842.124Z" fill="#407BFF"/>
<path d="M902.442 1038.02H540.025V1047.09H902.442V1038.02Z" fill="#263238"/>
<path opacity="0.5" d="M902.442 1038.02H540.025V1047.09H902.442V1038.02Z" fill="white"/>
<path d="M540.025 1047.1L545.657 1051.6C549.356 1054.56 553.954 1056.17 558.694 1056.17H883.799C888.538 1056.17 893.137 1054.56 896.836 1051.6L902.442 1047.1H540.025Z" fill="#263238"/>
<path opacity="0.3" d="M540.025 1047.1L545.657 1051.6C549.356 1054.56 553.954 1056.17 558.694 1056.17H883.799C888.538 1056.17 893.137 1054.56 896.836 1051.6L902.442 1047.1H540.025Z" fill="white"/>
<path opacity="0.4" d="M686.409 1038.32C686.409 1039.45 686.856 1040.53 687.651 1041.32C688.447 1042.12 689.526 1042.56 690.651 1042.56H751.817C752.942 1042.56 754.021 1042.12 754.816 1041.32C755.612 1040.53 756.059 1039.45 756.059 1038.32C756.059 1038.22 756.059 1038.12 756.059 1038.02H686.434C686.434 1038.12 686.409 1038.22 686.409 1038.32Z" fill="white"/>
<path d="M864.51 850.621H577.97V1013.71H864.51V850.621Z" fill="#407BFF"/>
<path opacity="0.6" d="M864.51 850.621H577.97V1013.71H864.51V850.621Z" fill="#C1E616"/>
<path d="M864.51 850.621H577.97V870.257H864.51V850.621Z" fill="#C1E616"/>
<path opacity="0.8" d="M704.432 865.332H593.401C592.125 865.332 590.901 864.825 589.998 863.923C589.095 863.02 588.588 861.796 588.588 860.519C588.588 859.243 589.095 858.019 589.998 857.116C590.901 856.214 592.125 855.707 593.401 855.707H704.432C705.709 855.707 706.933 856.214 707.835 857.116C708.738 858.019 709.245 859.243 709.245 860.519C709.245 861.796 708.738 863.02 707.835 863.923C706.933 864.825 705.709 865.332 704.432 865.332Z" fill="white"/>
<path opacity="0.8" d="M853.606 860.519C853.606 861.471 853.324 862.402 852.795 863.193C852.266 863.985 851.515 864.602 850.635 864.966C849.756 865.33 848.788 865.426 847.854 865.24C846.921 865.054 846.063 864.596 845.39 863.923C844.717 863.25 844.259 862.392 844.073 861.458C843.887 860.525 843.983 859.557 844.347 858.678C844.711 857.798 845.328 857.047 846.119 856.518C846.911 855.989 847.841 855.707 848.793 855.707C849.426 855.705 850.052 855.828 850.637 856.07C851.222 856.311 851.753 856.665 852.2 857.113C852.647 857.56 853.002 858.091 853.243 858.676C853.484 859.26 853.608 859.887 853.606 860.519Z" fill="white"/>
<path opacity="0.6" d="M832.098 865.332C834.756 865.332 836.91 863.177 836.91 860.519C836.91 857.861 834.756 855.707 832.098 855.707C829.439 855.707 827.285 857.861 827.285 860.519C827.285 863.177 829.439 865.332 832.098 865.332Z" fill="white"/>
<path opacity="0.4" d="M815.389 865.332C818.047 865.332 820.202 863.177 820.202 860.519C820.202 857.861 818.047 855.707 815.389 855.707C812.731 855.707 810.576 857.861 810.576 860.519C810.576 863.177 812.731 865.332 815.389 865.332Z" fill="white"/>
<path d="M853.607 889.024H588.588V981.995H853.607V889.024Z" fill="#C1E616"/>
<path d="M613.968 981.995L664.825 931.137C665.456 930.506 666.204 930.006 667.028 929.664C667.851 929.323 668.734 929.147 669.626 929.147C670.518 929.147 671.401 929.323 672.224 929.664C673.048 930.006 673.796 930.506 674.426 931.137L725.284 981.995H613.968Z" fill="#407BFF"/>
<path opacity="0.3" d="M613.968 981.995L664.825 931.137C665.456 930.506 666.204 930.006 667.028 929.664C667.851 929.323 668.734 929.147 669.626 929.147C670.518 929.147 671.401 929.323 672.224 929.664C673.048 930.006 673.796 930.506 674.426 931.137L725.284 981.995H613.968Z" fill="black"/>
<path d="M674.426 931.137C673.509 930.221 672.348 929.587 671.082 929.312C669.815 929.038 668.496 929.133 667.281 929.586C667.281 933.742 676.758 937.19 676.758 941.358C676.758 945.526 667.269 948.987 667.269 953.155C667.269 957.322 684.635 960.771 684.635 964.939C684.635 969.107 667.269 972.555 667.269 976.723C667.269 978.211 669.142 980.122 671.586 981.995H725.284L674.426 931.137Z" fill="#407BFF"/>
<path opacity="0.4" d="M674.426 931.137C673.509 930.221 672.348 929.587 671.082 929.312C669.815 929.038 668.496 929.133 667.281 929.586C667.281 933.742 676.758 937.19 676.758 941.358C676.758 945.526 667.269 948.987 667.269 953.155C667.269 957.322 684.635 960.771 684.635 964.939C684.635 969.107 667.269 972.555 667.269 976.723C667.269 978.211 669.142 980.122 671.586 981.995H725.284L674.426 931.137Z" fill="white"/>
<path d="M704.283 981.995L770.175 916.053C771.824 914.417 774.054 913.499 776.377 913.499C778.7 913.499 780.93 914.417 782.579 916.053L848.521 981.995H704.283Z" fill="#407BFF"/>
<path opacity="0.3" d="M704.283 981.995L770.175 916.053C771.824 914.417 774.054 913.499 776.377 913.499C778.7 913.499 780.93 914.417 782.579 916.053L848.521 981.995H704.283Z" fill="black"/>
<path d="M782.679 916.053C781.488 914.863 779.98 914.041 778.335 913.685C776.69 913.328 774.977 913.453 773.4 914.044C773.4 919.44 785.705 923.967 785.705 929.301C785.705 934.635 773.4 939.225 773.4 944.596C773.4 949.967 795.976 954.519 795.976 959.878C795.976 965.236 773.4 969.801 773.4 975.16C773.4 977.095 775.881 979.576 778.995 981.995H848.62L782.679 916.053Z" fill="#407BFF"/>
<path opacity="0.4" d="M782.679 916.053C781.488 914.863 779.98 914.041 778.335 913.685C776.69 913.328 774.977 913.453 773.4 914.044C773.4 919.44 785.705 923.967 785.705 929.301C785.705 934.635 773.4 939.225 773.4 944.596C773.4 949.967 795.976 954.519 795.976 959.878C795.976 965.236 773.4 969.801 773.4 975.16C773.4 977.095 775.881 979.576 778.995 981.995H848.62L782.679 916.053Z" fill="#C1E600"/>
<path opacity="0.5" d="M722.17 882.326H693.864C693.454 882.328 693.048 882.248 692.668 882.093C692.289 881.937 691.945 881.708 691.654 881.419C691.364 881.129 691.133 880.786 690.976 880.407C690.819 880.028 690.738 879.623 690.738 879.213C690.738 878.803 690.819 878.397 690.976 878.018C691.133 877.64 691.364 877.296 691.654 877.007C691.945 876.717 692.289 876.488 692.668 876.333C693.048 876.177 693.454 876.098 693.864 876.099H722.17C722.996 876.099 723.788 876.427 724.372 877.011C724.956 877.595 725.284 878.387 725.284 879.213C725.284 880.038 724.956 880.83 724.372 881.414C723.788 881.998 722.996 882.326 722.17 882.326Z" fill="white"/>
<path d="M765.213 882.326H736.894C736.068 882.326 735.277 881.998 734.693 881.414C734.109 880.83 733.781 880.038 733.781 879.213C733.781 878.387 734.109 877.595 734.693 877.011C735.277 876.427 736.068 876.099 736.894 876.099H765.213C766.039 876.099 766.831 876.427 767.415 877.011C767.999 877.595 768.327 878.387 768.327 879.213C768.327 880.038 767.999 880.83 767.415 881.414C766.831 881.998 766.039 882.326 765.213 882.326Z" fill="#407BFF"/>
<path opacity="0.5" d="M808.244 882.326H779.937C779.111 882.326 778.32 881.998 777.736 881.414C777.152 880.83 776.824 880.038 776.824 879.213C776.824 878.387 777.152 877.595 777.736 877.011C778.32 876.427 779.111 876.099 779.937 876.099H808.244C809.07 876.099 809.862 876.427 810.445 877.011C811.029 877.595 811.357 878.387 811.357 879.213C811.357 880.038 811.029 880.83 810.445 881.414C809.862 881.998 809.07 882.326 808.244 882.326Z" fill="white"/>
<path d="M766.106 995.689H717.729C717.111 995.689 716.518 995.443 716.08 995.006C715.643 994.569 715.397 993.976 715.397 993.357C715.397 992.737 715.643 992.143 716.08 991.704C716.517 991.264 717.11 991.016 717.729 991.013H766.106C766.726 991.016 767.319 991.264 767.756 991.704C768.193 992.143 768.438 992.737 768.438 993.357C768.438 993.976 768.193 994.569 767.755 995.006C767.318 995.443 766.725 995.689 766.106 995.689Z" fill="#263238"/>
<path d="M802.427 995.689H774.901C774.283 995.689 773.69 995.443 773.252 995.006C772.815 994.569 772.569 993.976 772.569 993.357C772.569 992.737 772.815 992.143 773.252 991.704C773.689 991.264 774.282 991.016 774.901 991.013H802.427C803.046 991.016 803.639 991.264 804.076 991.704C804.513 992.143 804.759 992.737 804.759 993.357C804.759 993.976 804.513 994.569 804.075 995.006C803.638 995.443 803.045 995.689 802.427 995.689Z" fill="#263238"/>
<path d="M753.789 1006.1H717.816C717.197 1006.09 716.604 1005.84 716.167 1005.41C715.73 1004.97 715.484 1004.37 715.484 1003.75C715.484 1003.13 715.73 1002.54 716.167 1002.1C716.605 1001.67 717.198 1001.42 717.816 1001.42H753.789C754.407 1001.42 755.001 1001.67 755.438 1002.1C755.875 1002.54 756.121 1003.13 756.121 1003.75C756.121 1004.37 755.876 1004.97 755.439 1005.41C755.002 1005.84 754.409 1006.09 753.789 1006.1Z" fill="#263238"/>
<path d="M787.541 1006.1H762.273C761.654 1006.09 761.061 1005.84 760.624 1005.41C760.187 1004.97 759.941 1004.37 759.941 1003.75C759.941 1003.13 760.187 1002.54 760.624 1002.1C761.062 1001.67 761.655 1001.42 762.273 1001.42H787.541C788.159 1001.42 788.753 1001.67 789.19 1002.1C789.627 1002.54 789.873 1003.13 789.873 1003.75C789.873 1004.37 789.628 1004.97 789.191 1005.41C788.754 1005.84 788.161 1006.09 787.541 1006.1Z" fill="#263238"/>
<path opacity="0.4" d="M766.106 995.689H717.729C717.111 995.689 716.518 995.443 716.08 995.006C715.643 994.569 715.397 993.976 715.397 993.357C715.397 992.737 715.643 992.143 716.08 991.704C716.517 991.264 717.11 991.016 717.729 991.013H766.106C766.726 991.016 767.319 991.264 767.756 991.704C768.193 992.143 768.438 992.737 768.438 993.357C768.438 993.976 768.193 994.569 767.755 995.006C767.318 995.443 766.725 995.689 766.106 995.689Z" fill="white"/>
<path opacity="0.4" d="M802.427 995.689H774.901C774.283 995.689 773.69 995.443 773.252 995.006C772.815 994.569 772.569 993.976 772.569 993.357C772.569 992.737 772.815 992.143 773.252 991.704C773.689 991.264 774.282 991.016 774.901 991.013H802.427C803.046 991.016 803.639 991.264 804.076 991.704C804.513 992.143 804.759 992.737 804.759 993.357C804.759 993.976 804.513 994.569 804.075 995.006C803.638 995.443 803.045 995.689 802.427 995.689Z" fill="white"/>
<path opacity="0.4" d="M753.789 1006.1H717.816C717.197 1006.09 716.604 1005.84 716.167 1005.41C715.73 1004.97 715.484 1004.37 715.484 1003.75C715.484 1003.13 715.73 1002.54 716.167 1002.1C716.605 1001.67 717.198 1001.42 717.816 1001.42H753.789C754.407 1001.42 755.001 1001.67 755.438 1002.1C755.875 1002.54 756.121 1003.13 756.121 1003.75C756.121 1004.37 755.876 1004.97 755.439 1005.41C755.002 1005.84 754.409 1006.09 753.789 1006.1Z" fill="white"/>
<path opacity="0.4" d="M787.541 1006.1H762.273C761.654 1006.09 761.061 1005.84 760.624 1005.41C760.187 1004.97 759.941 1004.37 759.941 1003.75C759.941 1003.13 760.187 1002.54 760.624 1002.1C761.062 1001.67 761.655 1001.42 762.273 1001.42H787.541C788.159 1001.42 788.753 1001.67 789.19 1002.1C789.627 1002.54 789.873 1003.13 789.873 1003.75C789.873 1004.37 789.628 1004.97 789.191 1005.41C788.754 1005.84 788.161 1006.09 787.541 1006.1Z" fill="white"/>
<path opacity="0.5" d="M851.287 882.326H822.968C822.142 882.326 821.35 881.998 820.766 881.414C820.183 880.83 819.854 880.038 819.854 879.213C819.854 878.387 820.183 877.595 820.766 877.011C821.35 876.427 822.142 876.099 822.968 876.099H851.287C852.113 876.099 852.905 876.427 853.489 877.011C854.072 877.595 854.401 878.387 854.401 879.213C854.401 880.038 854.072 880.83 853.489 881.414C852.905 881.998 852.113 882.326 851.287 882.326Z" fill="white"/>
<path d="M703.266 938.381H612.665V1013.7H703.266V938.381Z" fill="#407BFF"/>
<path opacity="0.8" d="M703.266 938.381H612.665V1013.7H703.266V938.381Z" fill="white"/>
<path d="M686.682 946.878H629.262V984.624H686.682V946.878Z" fill="#407BFF"/>
<path opacity="0.4" d="M686.682 946.878H629.262V984.624H686.682V946.878Z" fill="#C1E616"/>
<path d="M631.73 984.637H666.066L648.898 967.469L631.73 984.637Z" fill="#407BFF"/>
<path opacity="0.2" d="M631.73 984.637H666.066L648.898 967.469L631.73 984.637Z" fill="black"/>
<path d="M669.055 955.561L652.024 984.637H686.099L669.055 955.561Z" fill="#407BFF"/>
<path opacity="0.8" d="M656.874 958.96C656.874 959.642 656.672 960.308 656.293 960.875C655.914 961.443 655.375 961.885 654.745 962.146C654.115 962.407 653.422 962.475 652.753 962.342C652.084 962.209 651.469 961.88 650.987 961.398C650.505 960.916 650.176 960.301 650.043 959.632C649.91 958.963 649.979 958.27 650.24 957.64C650.501 957.01 650.943 956.471 651.51 956.092C652.077 955.714 652.743 955.511 653.425 955.511C653.879 955.51 654.328 955.598 654.747 955.77C655.166 955.943 655.547 956.197 655.868 956.518C656.188 956.838 656.442 957.219 656.615 957.638C656.787 958.057 656.875 958.506 656.874 958.96Z" fill="white"/>
<path d="M831.601 904.133H830.361C830.361 903.307 830.033 902.515 829.449 901.931C828.865 901.347 828.073 901.019 827.247 901.019H825.263C825.264 900.61 825.185 900.203 825.029 899.824C824.873 899.445 824.644 899.1 824.355 898.81C824.066 898.519 823.722 898.289 823.343 898.132C822.965 897.974 822.559 897.894 822.149 897.894H802.997C802.587 897.894 802.181 897.974 801.803 898.132C801.424 898.289 801.08 898.519 800.791 898.81C800.502 899.1 800.273 899.445 800.117 899.824C799.961 900.203 799.882 900.61 799.883 901.019H797.899C797.073 901.019 796.281 901.347 795.697 901.931C795.113 902.515 794.785 903.307 794.785 904.133H788.36C787.585 904.202 786.865 904.559 786.34 905.133C785.815 905.707 785.524 906.456 785.524 907.234C785.524 908.012 785.815 908.761 786.34 909.335C786.865 909.909 787.585 910.266 788.36 910.335H831.601C832.376 910.266 833.096 909.909 833.621 909.335C834.146 908.761 834.437 908.012 834.437 907.234C834.437 906.456 834.146 905.707 833.621 905.133C833.096 904.559 832.376 904.202 831.601 904.133Z" fill="#407BFF"/>
<path opacity="0.8" d="M831.601 904.133H830.361C830.361 903.307 830.033 902.515 829.449 901.931C828.865 901.347 828.073 901.019 827.247 901.019H825.263C825.264 900.61 825.185 900.203 825.029 899.824C824.873 899.445 824.644 899.1 824.355 898.81C824.066 898.519 823.722 898.289 823.343 898.132C822.965 897.974 822.559 897.894 822.149 897.894H802.997C802.587 897.894 802.181 897.974 801.803 898.132C801.424 898.289 801.08 898.519 800.791 898.81C800.502 899.1 800.273 899.445 800.117 899.824C799.961 900.203 799.882 900.61 799.883 901.019H797.899C797.073 901.019 796.281 901.347 795.697 901.931C795.113 902.515 794.785 903.307 794.785 904.133H788.36C787.585 904.202 786.865 904.559 786.34 905.133C785.815 905.707 785.524 906.456 785.524 907.234C785.524 908.012 785.815 908.761 786.34 909.335C786.865 909.909 787.585 910.266 788.36 910.335H831.601C832.376 910.266 833.096 909.909 833.621 909.335C834.146 908.761 834.437 908.012 834.437 907.234C834.437 906.456 834.146 905.707 833.621 905.133C833.096 904.559 832.376 904.202 831.601 904.133Z" fill="white"/>
<path d="M669.936 927.23H668.856C668.856 926.532 668.579 925.863 668.086 925.37C667.593 924.877 666.924 924.6 666.227 924.6H664.552C664.552 923.902 664.275 923.234 663.782 922.74C663.289 922.247 662.62 921.97 661.922 921.97H656.303C655.606 921.97 654.937 922.247 654.444 922.74C653.951 923.234 653.674 923.902 653.674 924.6H651.999C651.654 924.6 651.313 924.668 650.995 924.8C650.676 924.933 650.387 925.127 650.144 925.371C649.901 925.615 649.708 925.905 649.577 926.224C649.447 926.543 649.38 926.885 649.382 927.23H643.949C643.251 927.23 642.582 927.507 642.089 928C641.596 928.493 641.319 929.162 641.319 929.859C641.319 930.557 641.596 931.226 642.089 931.719C642.582 932.212 643.251 932.489 643.949 932.489H669.936C670.633 932.489 671.302 932.212 671.795 931.719C672.288 931.226 672.565 930.557 672.565 929.859C672.565 929.162 672.288 928.493 671.795 928C671.302 927.507 670.633 927.23 669.936 927.23Z" fill="#407BFF"/>
<path opacity="0.8" d="M669.936 927.23H668.856C668.856 926.532 668.579 925.863 668.086 925.37C667.593 924.877 666.924 924.6 666.227 924.6H664.552C664.552 923.902 664.275 923.234 663.782 922.74C663.289 922.247 662.62 921.97 661.922 921.97H656.303C655.606 921.97 654.937 922.247 654.444 922.74C653.951 923.234 653.674 923.902 653.674 924.6H651.999C651.654 924.6 651.313 924.668 650.995 924.8C650.676 924.933 650.387 925.127 650.144 925.371C649.901 925.615 649.708 925.905 649.577 926.224C649.447 926.543 649.38 926.885 649.382 927.23H643.949C643.251 927.23 642.582 927.507 642.089 928C641.596 928.493 641.319 929.162 641.319 929.859C641.319 930.557 641.596 931.226 642.089 931.719C642.582 932.212 643.251 932.489 643.949 932.489H669.936C670.633 932.489 671.302 932.212 671.795 931.719C672.288 931.226 672.565 930.557 672.565 929.859C672.565 929.162 672.288 928.493 671.795 928C671.302 927.507 670.633 927.23 669.936 927.23Z" fill="white"/>
<path d="M759.743 935.565H758.502C758.502 934.739 758.174 933.947 757.59 933.364C757.007 932.78 756.215 932.452 755.389 932.452H753.404C753.402 931.903 753.256 931.364 752.982 930.889C753.258 930.416 753.404 929.88 753.405 929.333C753.406 928.786 753.263 928.249 752.99 927.776C752.717 927.302 752.323 926.909 751.849 926.637C751.375 926.365 750.837 926.222 750.291 926.225H743.642C742.816 926.225 742.024 926.553 741.44 927.137C740.857 927.72 740.529 928.512 740.529 929.338H737.924C737.098 929.338 736.306 929.666 735.722 930.25C735.138 930.834 734.81 931.626 734.81 932.452H732.838C732.428 932.45 732.022 932.529 731.643 932.685C731.263 932.841 730.919 933.07 730.628 933.359C730.338 933.648 730.107 933.992 729.95 934.371C729.793 934.749 729.712 935.155 729.712 935.565H723.287C722.512 935.634 721.791 935.991 721.267 936.565C720.742 937.139 720.451 937.888 720.451 938.666C720.451 939.444 720.742 940.193 721.267 940.767C721.791 941.341 722.512 941.698 723.287 941.767H759.73C760.505 941.698 761.226 941.341 761.75 940.767C762.275 940.193 762.566 939.444 762.566 938.666C762.566 937.888 762.275 937.139 761.75 936.565C761.226 935.991 760.505 935.634 759.73 935.565H759.743Z" fill="#407BFF"/>
<path opacity="0.8" d="M759.743 935.565H758.502C758.502 934.739 758.174 933.947 757.59 933.364C757.007 932.78 756.215 932.452 755.389 932.452H753.404C753.402 931.903 753.256 931.364 752.982 930.889C753.258 930.416 753.404 929.88 753.405 929.333C753.406 928.786 753.263 928.249 752.99 927.776C752.717 927.302 752.323 926.909 751.849 926.637C751.375 926.365 750.837 926.222 750.291 926.225H743.642C742.816 926.225 742.024 926.553 741.44 927.137C740.857 927.72 740.529 928.512 740.529 929.338H737.924C737.098 929.338 736.306 929.666 735.722 930.25C735.138 930.834 734.81 931.626 734.81 932.452H732.838C732.428 932.45 732.022 932.529 731.643 932.685C731.263 932.841 730.919 933.07 730.628 933.359C730.338 933.648 730.107 933.992 729.95 934.371C729.793 934.749 729.712 935.155 729.712 935.565H723.287C722.512 935.634 721.791 935.991 721.267 936.565C720.742 937.139 720.451 937.888 720.451 938.666C720.451 939.444 720.742 940.193 721.267 940.767C721.791 941.341 722.512 941.698 723.287 941.767H759.73C760.505 941.698 761.226 941.341 761.75 940.767C762.275 940.193 762.566 939.444 762.566 938.666C762.566 937.888 762.275 937.139 761.75 936.565C761.226 935.991 760.505 935.634 759.73 935.565H759.743Z" fill="white"/>
<path d="M682.687 993.68H630.589C630.414 993.681 630.24 993.648 630.077 993.582C629.915 993.516 629.767 993.419 629.643 993.295C629.518 993.172 629.419 993.025 629.352 992.863C629.284 992.701 629.25 992.528 629.25 992.352C629.25 991.997 629.391 991.656 629.642 991.405C629.893 991.154 630.234 991.013 630.589 991.013H682.687C682.863 991.013 683.037 991.047 683.2 991.115C683.363 991.182 683.51 991.281 683.635 991.405C683.759 991.529 683.858 991.677 683.925 991.84C683.992 992.002 684.027 992.176 684.027 992.352C684.027 992.528 683.992 992.701 683.925 992.863C683.857 993.025 683.758 993.172 683.634 993.295C683.509 993.419 683.361 993.516 683.199 993.582C683.037 993.648 682.863 993.681 682.687 993.68Z" fill="#263238"/>
<path opacity="0.4" d="M682.687 993.68H630.589C630.414 993.681 630.24 993.648 630.077 993.582C629.915 993.516 629.767 993.419 629.643 993.295C629.518 993.172 629.419 993.025 629.352 992.863C629.284 992.701 629.25 992.528 629.25 992.352C629.25 991.997 629.391 991.656 629.642 991.405C629.893 991.154 630.234 991.013 630.589 991.013H682.687C682.863 991.013 683.037 991.047 683.2 991.115C683.363 991.182 683.51 991.281 683.635 991.405C683.759 991.529 683.858 991.677 683.925 991.84C683.992 992.002 684.027 992.176 684.027 992.352C684.027 992.528 683.992 992.701 683.925 992.863C683.857 993.025 683.758 993.172 683.634 993.295C683.509 993.419 683.361 993.516 683.199 993.582C683.037 993.648 682.863 993.681 682.687 993.68Z" fill="white"/>
<path d="M674.24 999.026H630.602C630.426 999.026 630.252 998.991 630.089 998.924C629.927 998.857 629.779 998.758 629.655 998.633C629.53 998.509 629.432 998.361 629.364 998.199C629.297 998.036 629.262 997.862 629.262 997.686C629.262 997.511 629.297 997.337 629.364 997.175C629.432 997.014 629.531 996.867 629.655 996.743C629.78 996.62 629.928 996.522 630.09 996.456C630.253 996.39 630.427 996.357 630.602 996.359H674.24C674.592 996.359 674.93 996.499 675.179 996.748C675.428 996.997 675.568 997.334 675.568 997.686C675.569 997.862 675.536 998.035 675.47 998.198C675.404 998.36 675.307 998.508 675.183 998.633C675.06 998.757 674.913 998.856 674.751 998.924C674.589 998.991 674.416 999.026 674.24 999.026Z" fill="#263238"/>
<path opacity="0.4" d="M674.24 999.026H630.602C630.426 999.026 630.252 998.991 630.089 998.924C629.927 998.857 629.779 998.758 629.655 998.633C629.53 998.509 629.432 998.361 629.364 998.199C629.297 998.036 629.262 997.862 629.262 997.686C629.262 997.511 629.297 997.337 629.364 997.175C629.432 997.014 629.531 996.867 629.655 996.743C629.78 996.62 629.928 996.522 630.09 996.456C630.253 996.39 630.427 996.357 630.602 996.359H674.24C674.592 996.359 674.93 996.499 675.179 996.748C675.428 996.997 675.568 997.334 675.568 997.686C675.569 997.862 675.536 998.035 675.47 998.198C675.404 998.36 675.307 998.508 675.183 998.633C675.06 998.757 674.913 998.856 674.751 998.924C674.589 998.991 674.416 999.026 674.24 999.026Z" fill="white"/>
<path d="M676.994 1004.36H630.602C630.427 1004.36 630.253 1004.33 630.09 1004.26C629.928 1004.2 629.78 1004.1 629.655 1003.98C629.531 1003.85 629.432 1003.71 629.364 1003.54C629.297 1003.38 629.262 1003.21 629.262 1003.03C629.262 1002.86 629.297 1002.68 629.364 1002.52C629.432 1002.36 629.53 1002.21 629.655 1002.09C629.779 1001.96 629.927 1001.86 630.089 1001.79C630.252 1001.73 630.426 1001.69 630.602 1001.69H676.994C677.169 1001.69 677.343 1001.73 677.505 1001.8C677.667 1001.86 677.814 1001.96 677.937 1002.09C678.06 1002.21 678.158 1002.36 678.224 1002.52C678.29 1002.68 678.323 1002.86 678.321 1003.03C678.321 1003.38 678.181 1003.72 677.933 1003.97C677.684 1004.22 677.346 1004.36 676.994 1004.36Z" fill="#263238"/>
<path opacity="0.4" d="M676.994 1004.36H630.602C630.427 1004.36 630.253 1004.33 630.09 1004.26C629.928 1004.2 629.78 1004.1 629.655 1003.98C629.531 1003.85 629.432 1003.71 629.364 1003.54C629.297 1003.38 629.262 1003.21 629.262 1003.03C629.262 1002.86 629.297 1002.68 629.364 1002.52C629.432 1002.36 629.53 1002.21 629.655 1002.09C629.779 1001.96 629.927 1001.86 630.089 1001.79C630.252 1001.73 630.426 1001.69 630.602 1001.69H676.994C677.169 1001.69 677.343 1001.73 677.505 1001.8C677.667 1001.86 677.814 1001.96 677.937 1002.09C678.06 1002.21 678.158 1002.36 678.224 1002.52C678.29 1002.68 678.323 1002.86 678.321 1003.03C678.321 1003.38 678.181 1003.72 677.933 1003.97C677.684 1004.22 677.346 1004.36 676.994 1004.36Z" fill="white"/>
<path d="M649.494 857.617C649.021 857.19 648.402 856.961 647.766 856.978C647.129 856.995 646.523 857.256 646.074 857.707C645.624 858.158 645.365 858.765 645.351 859.401C645.336 860.038 645.567 860.656 645.996 861.127C646.405 861.534 646.944 861.785 647.519 861.837C648.095 861.889 648.67 861.739 649.146 861.412C649.158 861.541 649.211 861.662 649.295 861.76L650.97 863.422C651.08 863.532 651.229 863.594 651.385 863.594C651.541 863.594 651.691 863.532 651.801 863.422C651.911 863.312 651.973 863.162 651.973 863.006C651.973 862.85 651.911 862.701 651.801 862.591L650.139 860.916C650.041 860.832 649.92 860.78 649.791 860.767C650.116 860.29 650.264 859.713 650.21 859.138C650.156 858.563 649.902 858.025 649.494 857.617ZM648.997 860.618C648.752 860.866 648.438 861.035 648.096 861.105C647.754 861.174 647.399 861.14 647.076 861.007C646.753 860.874 646.477 860.648 646.283 860.358C646.089 860.068 645.985 859.727 645.985 859.378C645.985 859.029 646.089 858.688 646.283 858.398C646.477 858.108 646.753 857.882 647.076 857.749C647.399 857.616 647.754 857.582 648.096 857.651C648.438 857.721 648.752 857.89 648.997 858.138C649.322 858.469 649.503 858.914 649.503 859.378C649.503 859.842 649.322 860.287 648.997 860.618Z" fill="#407BFF"/>
<path opacity="0.2" d="M649.494 857.617C649.021 857.19 648.402 856.961 647.766 856.978C647.129 856.995 646.523 857.256 646.074 857.707C645.624 858.158 645.365 858.765 645.351 859.401C645.336 860.038 645.567 860.656 645.996 861.127C646.405 861.534 646.944 861.785 647.519 861.837C648.095 861.889 648.67 861.739 649.146 861.412C649.158 861.541 649.211 861.662 649.295 861.76L650.97 863.422C651.08 863.532 651.229 863.594 651.385 863.594C651.541 863.594 651.691 863.532 651.801 863.422C651.911 863.312 651.973 863.162 651.973 863.006C651.973 862.85 651.911 862.701 651.801 862.591L650.139 860.916C650.041 860.832 649.92 860.78 649.791 860.767C650.116 860.29 650.264 859.713 650.21 859.138C650.156 858.563 649.902 858.025 649.494 857.617ZM648.997 860.618C648.752 860.866 648.438 861.035 648.096 861.105C647.754 861.174 647.399 861.14 647.076 861.007C646.753 860.874 646.477 860.648 646.283 860.358C646.089 860.068 645.985 859.727 645.985 859.378C645.985 859.029 646.089 858.688 646.283 858.398C646.477 858.108 646.753 857.882 647.076 857.749C647.399 857.616 647.754 857.582 648.096 857.651C648.438 857.721 648.752 857.89 648.997 858.138C649.322 858.469 649.503 858.914 649.503 859.378C649.503 859.842 649.322 860.287 648.997 860.618Z" fill="black"/>
<path d="M1731.28 1025V997.076H1649.06V1025C1649.05 1034.09 1645.97 1042.91 1640.32 1050.04L1636.72 1054.58H1743.62L1740.02 1050.04C1734.37 1042.91 1731.29 1034.09 1731.28 1025Z" fill="white" stroke="#2E353A" stroke-width="1.37399" stroke-linecap="round" stroke-linejoin="round"/>
<path d="M1644 1044.55H1736.34C1733.02 1038.56 1731.28 1031.84 1731.28 1025V997.076H1649.06V1025C1649.06 1031.84 1647.32 1038.56 1644 1044.55Z" fill="#222A35"/>
<path d="M1843.74 758.029H1536.58C1530.15 758.029 1524.93 763.246 1524.93 769.681V994.232C1524.93 1000.67 1530.15 1005.88 1536.58 1005.88H1843.74C1850.17 1005.88 1855.39 1000.67 1855.39 994.232V769.681C1855.39 763.246 1850.17 758.029 1843.74 758.029Z" fill="#2E353A" stroke="#2E353A" stroke-width="1.37399" stroke-linecap="round" stroke-linejoin="round"/>
<path d="M1524.93 967.357H1855.4V994.218C1855.4 997.309 1854.18 1000.27 1851.99 1002.46C1849.81 1004.64 1846.84 1005.87 1843.75 1005.87H1536.6C1533.51 1005.87 1530.54 1004.64 1528.36 1002.46C1526.17 1000.27 1524.95 997.309 1524.95 994.218V967.357H1524.93Z" fill="white" stroke="#2E353A" stroke-width="1.37399" stroke-linecap="round" stroke-linejoin="round"/>
<path d="M1838.78 773.459H1541.56V948.56H1838.78V773.459Z" fill="white" stroke="#2E353A" stroke-width="1.37399" stroke-linecap="round" stroke-linejoin="round"/>
<path d="M1696.27 986.62C1696.27 985.413 1695.91 984.234 1695.24 983.231C1694.57 982.228 1693.62 981.446 1692.5 980.984C1691.39 980.522 1690.16 980.401 1688.98 980.637C1687.8 980.872 1686.71 981.453 1685.86 982.306C1685 983.159 1684.42 984.246 1684.19 985.43C1683.95 986.613 1684.07 987.84 1684.53 988.955C1684.99 990.069 1685.78 991.022 1686.78 991.692C1687.78 992.363 1688.96 992.721 1690.17 992.721C1691.79 992.721 1693.34 992.078 1694.48 990.934C1695.63 989.79 1696.27 988.238 1696.27 986.62Z" fill="#2E353A" stroke="#2E353A" stroke-width="1.37399" stroke-linecap="round" stroke-linejoin="round"/>
<path d="M1743.63 1054.63H1636.72V1059.62H1743.63V1054.63Z" fill="white" stroke="#2E353A" stroke-width="1.37399" stroke-linecap="round" stroke-linejoin="round"/>
<path d="M1835.99 785.798H1543.89V801.145H1835.99V785.798Z" fill="white" stroke="#2E353A" stroke-width="1.37399" stroke-linecap="round" stroke-linejoin="round"/>
<path d="M1543.89 801.145V813.717V941.1H1835.99V801.145H1592.09L1588.59 791.665H1543.89V801.145Z" fill="#C1E616" stroke="#2E353A" stroke-width="1.37399" stroke-linecap="round" stroke-linejoin="round"/>
<path d="M1622.51 870.545H1759.47" stroke="#2E353A" stroke-width="2.74798" stroke-linecap="round" stroke-linejoin="round"/>
<path d="M1622.51 884.01H1759.47" stroke="#2E353A" stroke-width="2.74798" stroke-linecap="round" stroke-linejoin="round"/>
<path d="M1622.51 897.476H1759.47" stroke="#2E353A" stroke-width="2.74798" stroke-linecap="round" stroke-linejoin="round"/>
<path d="M1622.51 910.955H1759.47" stroke="#2E353A" stroke-width="2.74798" stroke-linecap="round" stroke-linejoin="round"/>
<path d="M1752.23 834.643H1628.12C1626.84 834.645 1625.58 834.395 1624.4 833.908C1623.21 833.421 1622.14 832.706 1621.24 831.804C1620.33 830.902 1619.61 829.83 1619.12 828.651C1618.63 827.471 1618.38 826.207 1618.38 824.929C1618.38 823.652 1618.63 822.386 1619.11 821.205C1619.6 820.024 1620.32 818.951 1621.22 818.046C1622.12 817.142 1623.19 816.424 1624.37 815.933C1625.55 815.443 1626.81 815.189 1628.09 815.188H1752.23C1753.51 815.186 1754.78 815.436 1755.96 815.925C1757.14 816.414 1758.22 817.132 1759.12 818.037C1760.03 818.942 1760.75 820.016 1761.24 821.199C1761.72 822.382 1761.98 823.649 1761.97 824.929C1761.97 826.207 1761.72 827.471 1761.23 828.651C1760.74 829.83 1760.02 830.902 1759.11 831.804C1758.21 832.706 1757.14 833.421 1755.96 833.908C1754.77 834.395 1753.51 834.645 1752.23 834.643Z" fill="white" stroke="#2E353A" stroke-width="1.37399" stroke-linecap="round" stroke-linejoin="round"/>
<path d="M1752.23 834.643H1735.28V815.16H1752.23C1753.51 815.158 1754.78 815.409 1755.96 815.898C1757.14 816.386 1758.22 817.104 1759.12 818.009C1760.03 818.914 1760.75 819.988 1761.24 821.171C1761.72 822.354 1761.98 823.621 1761.97 824.901C1761.98 826.181 1761.72 827.449 1761.24 828.631C1760.75 829.814 1760.03 830.889 1759.12 831.794C1758.22 832.699 1757.14 833.416 1755.96 833.905C1754.78 834.394 1753.51 834.645 1752.23 834.643Z" fill="#2E353A" stroke="#2E353A" stroke-width="1.37399" stroke-linecap="round" stroke-linejoin="round"/>
<path d="M1748.45 817.633C1747.65 816.876 1746.63 816.377 1745.54 816.196C1744.45 816.016 1743.33 816.164 1742.32 816.62C1741.31 817.077 1740.46 817.822 1739.88 818.762C1739.3 819.701 1739 820.793 1739.04 821.898C1739.08 823.004 1739.44 824.074 1740.09 824.973C1740.73 825.872 1741.63 826.559 1742.66 826.949C1743.7 827.338 1744.83 827.411 1745.9 827.159C1746.98 826.907 1747.96 826.341 1748.71 825.533C1749.22 825 1749.61 824.373 1749.87 823.687C1750.13 823.002 1750.25 822.271 1750.23 821.539C1750.21 820.806 1750.04 820.084 1749.74 819.417C1749.43 818.749 1749 818.147 1748.47 817.647L1748.45 817.633ZM1747.9 824.778C1747.3 825.422 1746.51 825.872 1745.65 826.071C1744.79 826.27 1743.89 826.209 1743.06 825.896C1742.23 825.583 1741.52 825.032 1741 824.312C1740.49 823.592 1740.2 822.736 1740.17 821.852C1740.14 820.967 1740.37 820.094 1740.84 819.342C1741.31 818.591 1741.99 817.994 1742.79 817.628C1743.6 817.262 1744.49 817.143 1745.37 817.286C1746.24 817.428 1747.05 817.826 1747.7 818.43C1748.57 819.244 1749.08 820.371 1749.11 821.561C1749.15 822.751 1748.72 823.908 1747.9 824.778Z" fill="white"/>
<path d="M1752.66 827.567C1752.54 827.447 1752.38 827.365 1752.21 827.331C1752.04 827.297 1751.87 827.312 1751.71 827.374L1749.69 825.478C1749.59 825.378 1749.45 825.321 1749.31 825.321C1749.16 825.321 1749.02 825.378 1748.92 825.478L1748.74 825.671C1748.64 825.777 1748.59 825.917 1748.59 826.062C1748.59 826.207 1748.64 826.347 1748.74 826.454L1750.73 828.323C1750.68 828.493 1750.67 828.676 1750.71 828.851C1750.75 829.026 1750.84 829.186 1750.97 829.312L1754.4 832.678C1754.63 832.903 1754.94 833.029 1755.25 833.029C1755.57 833.029 1755.88 832.903 1756.11 832.678C1756.33 832.452 1756.46 832.145 1756.46 831.826C1756.46 831.507 1756.33 831.201 1756.11 830.974L1752.66 827.567Z" fill="white"/>
<path d="M1114.58 822.143H1426.23C1429.01 822.143 1431.67 823.245 1433.63 825.206C1435.59 827.168 1436.69 829.828 1436.69 832.603V1038H1104.13V832.603C1104.13 829.83 1105.23 827.171 1107.19 825.21C1109.15 823.248 1111.81 822.145 1114.58 822.143Z" fill="#3D5B6F" stroke="#263238" stroke-width="0.920603" stroke-miterlimit="10"/>
<path d="M1423.2 839.013H1117.62V1011.7H1423.2V839.013Z" fill="white"/>
<g style="mix-blend-mode:multiply" opacity="0.4">
<path d="M1170.43 1011.7H1423.2V864.292L1170.43 1011.7Z" fill="#3D5B6F"/>
</g>
<path d="M1423.2 839.013H1117.62V1011.7H1423.2V839.013Z" stroke="#263238" stroke-width="0.690452" stroke-miterlimit="10"/>
<path d="M1385.44 1027.61H1156.89V1038.87H1385.44V1027.61Z" fill="#3D5B6F" stroke="#263238" stroke-width="0.691688" stroke-miterlimit="10"/>
<path d="M1385.44 1033.04H1156.89V1038.88H1385.44V1033.04Z" fill="#3D5B6F" stroke="#263238" stroke-width="0.691688" stroke-miterlimit="10"/>
<path d="M1077.23 1045.55C1077.23 1045.55 1080.99 1050.14 1092.23 1053.89H1450.09C1450.09 1053.89 1458.43 1051.8 1462.19 1045.96L1077.23 1045.55Z" fill="#3D5B6F" stroke="#263238" stroke-width="0.920603" stroke-miterlimit="10"/>
<path d="M1460.3 1037.33H1079.17C1077.68 1037.33 1076.47 1038.54 1076.47 1040.03V1043.4C1076.47 1044.89 1077.68 1046.1 1079.17 1046.1H1460.3C1461.79 1046.1 1463 1044.89 1463 1043.4V1040.03C1463 1038.54 1461.79 1037.33 1460.3 1037.33Z" fill="#3D5B6F" stroke="#263238" stroke-width="0.920603" stroke-miterlimit="10"/>
<path d="M1270.34 831.592C1271.95 831.592 1273.26 830.285 1273.26 828.672C1273.26 827.06 1271.95 825.752 1270.34 825.752C1268.73 825.752 1267.42 827.06 1267.42 828.672C1267.42 830.285 1268.73 831.592 1270.34 831.592Z" fill="#263238"/>
<path d="M1231.76 825.753H1158.76C1158.57 825.753 1158.38 825.715 1158.2 825.641C1158.02 825.568 1157.86 825.46 1157.73 825.325C1157.59 825.189 1157.49 825.028 1157.41 824.851C1157.34 824.674 1157.3 824.484 1157.3 824.293C1157.3 824.101 1157.34 823.911 1157.41 823.734C1157.49 823.557 1157.59 823.396 1157.73 823.26C1157.86 823.125 1158.02 823.017 1158.2 822.944C1158.38 822.87 1158.57 822.833 1158.76 822.833H1231.76C1232.15 822.835 1232.52 822.99 1232.79 823.263C1233.06 823.536 1233.22 823.906 1233.22 824.293C1233.22 824.68 1233.07 825.051 1232.79 825.325C1232.52 825.599 1232.15 825.753 1231.76 825.753Z" fill="#3D5B6F" stroke="#263238" stroke-width="0.691688" stroke-miterlimit="10"/>
<path d="M1380.65 825.753H1307.65C1307.26 825.753 1306.89 825.599 1306.62 825.325C1306.34 825.051 1306.19 824.68 1306.19 824.293C1306.19 823.906 1306.35 823.536 1306.62 823.263C1306.89 822.99 1307.26 822.835 1307.65 822.833H1380.65C1381.04 822.833 1381.41 822.986 1381.68 823.26C1381.96 823.534 1382.11 823.905 1382.11 824.293C1382.11 824.68 1381.96 825.051 1381.68 825.325C1381.41 825.599 1381.04 825.753 1380.65 825.753Z" fill="#3D5B6F" stroke="#263238" stroke-width="0.691688" stroke-miterlimit="10"/>
<path d="M1433.83 882.893C1433.61 882.893 1433.4 882.806 1433.24 882.65C1433.08 882.495 1432.99 882.284 1432.99 882.063V857.873C1432.99 857.651 1433.08 857.439 1433.24 857.282C1433.4 857.125 1433.61 857.035 1433.83 857.033C1434.05 857.035 1434.26 857.125 1434.42 857.282C1434.57 857.44 1434.66 857.652 1434.66 857.873V882.063C1434.66 882.283 1434.57 882.494 1434.42 882.65C1434.26 882.805 1434.05 882.893 1433.83 882.893Z" fill="#3D5B6F" stroke="#263238" stroke-width="0.691688" stroke-miterlimit="10"/>
<path d="M1107.26 882.893C1107.15 882.893 1107.04 882.871 1106.94 882.83C1106.84 882.788 1106.75 882.727 1106.67 882.65C1106.6 882.573 1106.54 882.481 1106.49 882.38C1106.45 882.28 1106.43 882.172 1106.43 882.063V857.873C1106.43 857.652 1106.52 857.44 1106.67 857.282C1106.83 857.125 1107.04 857.035 1107.26 857.033C1107.48 857.035 1107.69 857.125 1107.85 857.282C1108.01 857.439 1108.1 857.651 1108.1 857.873V882.063C1108.1 882.284 1108.01 882.495 1107.85 882.65C1107.69 882.806 1107.48 882.893 1107.26 882.893Z" fill="#3D5B6F" stroke="#263238" stroke-width="0.691688" stroke-miterlimit="10"/>
<path d="M1017.65 1080.69H998.458V1470.77H1017.65V1080.69Z" fill="white" stroke="#263238" stroke-width="4.61409" stroke-linecap="round" stroke-linejoin="round"/>
<path d="M1893.87 1080.69H1874.67V1470.77H1893.87V1080.69Z" fill="white" stroke="#263238" stroke-width="4.61409" stroke-linecap="round" stroke-linejoin="round"/>
<path d="M1920.86 1057.67H982.4V1093.89H1920.86V1057.67Z" fill="white" stroke="#263238" stroke-width="4.61409" stroke-linecap="round" stroke-linejoin="round"/>
<path d="M33.8362 1080.69H14.6416V1470.77H33.8362V1080.69Z" fill="white" stroke="#263238" stroke-width="4.61409" stroke-linecap="round" stroke-linejoin="round"/>
<path d="M910.006 1080.69H890.811V1470.77H910.006V1080.69Z" fill="white" stroke="#263238" stroke-width="4.61409" stroke-linecap="round" stroke-linejoin="round"/>
<path d="M937.044 1057.67H-1.41553V1093.89H937.044V1057.67Z" fill="white" stroke="#263238" stroke-width="4.61409" stroke-linecap="round" stroke-linejoin="round"/>
<path d="M1596.86 875.966C1596.86 875.966 1523.03 1019 1521 1031.18C1518.97 1043.37 1531.06 1061.41 1552.19 1059.38C1573.33 1057.35 1628.37 1056.38 1628.37 1056.38L1629.39 1037.23L1565.94 1029.2L1604.2 998.977L1596.86 875.966Z" fill="#37474F" stroke="#263238" stroke-width="4.61409" stroke-linecap="round" stroke-linejoin="round"/>
<path d="M1565.94 1029.2L1558.24 1044.29" stroke="#263238" stroke-width="4.61409" stroke-linecap="round" stroke-linejoin="round"/>
<path d="M1794.57 879.057C1794.57 879.057 1869.78 1019.09 1871.81 1031.32C1873.84 1043.55 1861.75 1061.54 1840.62 1059.51C1819.49 1057.48 1770.07 1056.51 1770.07 1056.51L1769.06 1037.04L1803.39 1029.02L1779.35 998.424L1794.57 879.057Z" fill="#37474F" stroke="#263238" stroke-width="4.61409" stroke-linecap="round" stroke-linejoin="round"/>
<path d="M1803.39 1029.2L1834.58 1044.29" stroke="#263238" stroke-width="4.61409" stroke-linecap="round" stroke-linejoin="round"/>
<path d="M1667.09 838.269L1618.64 863.923C1594.41 876.75 1598.34 869.552 1596.91 875.966C1595.47 882.379 1605.07 1104.69 1605.07 1104.69C1605.07 1104.69 1623.53 1122.68 1672.07 1127.48C1744.69 1134.59 1776.02 1111.79 1776.02 1111.79C1776.02 1111.79 1794.48 886.901 1794.48 879.057C1794.48 871.213 1764.49 855.987 1745.29 846.759C1726.1 837.531 1704.78 829.733 1667.09 838.269Z" fill="#37474F" stroke="#263238" stroke-width="4.61409" stroke-linecap="round" stroke-linejoin="round"/>
<path d="M1692.92 686.373C1692.92 686.373 1661.5 700.215 1651.4 722.778C1641.29 745.341 1657.67 798.126 1653.89 811.922C1650.11 825.718 1632.57 824.472 1632.57 824.472C1632.57 824.472 1640.09 867.199 1682.77 872.228C1725.45 877.258 1744.33 870.936 1761.9 852.111C1779.48 833.285 1775.75 833.285 1775.75 833.285C1775.75 833.285 1768.23 833.285 1764.44 811.922C1760.66 790.559 1765.69 730.299 1746.86 703.952C1728.04 677.606 1699.38 678.621 1692.92 686.373Z" fill="#263238" stroke="#263238" stroke-width="4.61409" stroke-linecap="round" stroke-linejoin="round"/>
<path d="M1695.19 836.93C1695.19 836.93 1696.25 829.548 1718.26 835.869" stroke="#263238" stroke-width="4.61409" stroke-linecap="round" stroke-linejoin="round"/>
<path d="M1802.32 979.737C1764.75 985.161 1726.83 987.951 1688.86 988.088C1653.34 987.695 1617.89 984.905 1582.74 979.737C1581.41 979.525 1580.04 979.631 1578.75 980.047C1577.47 980.463 1576.3 981.176 1575.34 982.13C1574.38 983.083 1573.66 984.249 1573.24 985.533C1572.82 986.817 1572.71 988.183 1572.91 989.519C1578.36 1023.57 1593.81 1121.53 1593.81 1140.26C1593.81 1163.05 1585.97 1184.46 1585.97 1194.43C1585.97 1204.4 1590.26 1212.24 1597.37 1215.06C1600.69 1216.39 1638.02 1216.49 1688.49 1216.21C1746.91 1216.49 1784.28 1216.21 1787.56 1215.06C1794.67 1212.24 1798.96 1204.4 1798.96 1194.43C1798.96 1184.46 1791.11 1163.05 1791.11 1140.26C1791.11 1121.53 1806.57 1023.52 1812.06 989.519C1812.27 988.19 1812.17 986.83 1811.75 985.549C1811.34 984.269 1810.63 983.104 1809.68 982.15C1808.73 981.197 1807.57 980.481 1806.29 980.062C1805.01 979.642 1803.65 979.531 1802.32 979.737ZM1765.78 1188.43C1763.24 1189.4 1734.45 1189.49 1689.42 1189.26C1650.52 1189.49 1621.73 1189.26 1619.19 1188.43C1616.3 1187 1613.92 1184.72 1612.35 1181.9C1610.79 1179.09 1610.12 1175.86 1610.42 1172.65C1610.42 1165.04 1616.42 1148.7 1616.42 1131.12C1616.42 1127.06 1615.45 1118.02 1613.98 1106.58L1628.23 1122.04C1630.19 1124.13 1632.55 1125.8 1635.18 1126.94C1637.81 1128.09 1640.64 1128.68 1643.51 1128.68H1741.33C1746.76 1128.68 1751.97 1126.56 1755.86 1122.77L1770.76 1108.24C1769.38 1118.9 1768.5 1127.25 1768.5 1131.31C1768.5 1148.7 1774.55 1165.04 1774.55 1172.84C1774.82 1176.01 1774.13 1179.2 1772.56 1181.98C1771 1184.76 1768.64 1187.01 1765.78 1188.43ZM1784.65 1016.28C1782.25 1031.05 1777.36 1061.54 1773.58 1087.75L1759.37 1096.57C1751.4 1101.41 1742.25 1103.96 1732.93 1103.95H1653.24C1644.19 1103.95 1635.3 1101.53 1627.5 1096.93L1611.3 1087.43C1607.56 1061.27 1602.72 1030.95 1600.32 1016.28C1600.17 1015.26 1600.26 1014.21 1600.59 1013.23C1600.92 1012.25 1601.47 1011.35 1602.21 1010.63C1602.95 1009.9 1603.85 1009.36 1604.83 1009.04C1605.82 1008.72 1606.86 1008.64 1607.89 1008.81C1634.98 1012.76 1662.31 1014.88 1689.69 1015.17C1719.03 1015.09 1748.32 1012.96 1777.36 1008.81C1778.37 1008.68 1779.38 1008.79 1780.34 1009.12C1781.29 1009.46 1782.16 1010.01 1782.86 1010.73C1783.57 1011.46 1784.1 1012.33 1784.41 1013.3C1784.72 1014.26 1784.8 1015.28 1784.65 1016.28Z" fill="#263238" stroke="#263238" stroke-width="4.61409" stroke-linecap="round" stroke-linejoin="round"/>
<path d="M254.876 835.859L195.73 867.178C166.157 882.838 170.945 874.05 169.199 881.88C167.453 889.71 179.169 1161.1 179.169 1161.1C179.169 1161.1 201.701 1183.07 260.959 1188.93C349.622 1197.61 387.869 1169.78 387.869 1169.78C387.869 1169.78 410.401 895.23 410.401 885.654C410.401 876.078 373.787 857.49 350.354 846.224C326.921 834.958 300.897 825.438 254.876 835.859Z" fill="white" stroke="#263238" stroke-width="5.63293" stroke-linecap="round" stroke-linejoin="round"/>
<path d="M1243.88 857.971H1298.74V899.267L1243.88 896.406V857.971Z" fill="white" stroke="#263238" stroke-width="4.61409" stroke-linecap="round" stroke-linejoin="round"/>
<path d="M1209.67 760.428C1209.67 760.428 1201.09 758.259 1201.09 771.824C1201.09 785.39 1212.35 794.849 1216.96 793.88C1221.58 792.911 1214.84 767.533 1214.1 762.55C1213.36 757.567 1209.67 760.428 1209.67 760.428Z" fill="white" stroke="#263238" stroke-width="4.61409" stroke-linecap="round" stroke-linejoin="round"/>
<path d="M1306.59 827.61C1306.59 827.61 1276.36 811.322 1246.6 824.057C1229.39 831.394 1216.7 849.666 1216.7 849.666C1231.69 845.192 1247.21 842.801 1262.84 842.56C1282.13 842.991 1301.38 844.408 1320.52 846.805C1317.1 839.601 1312.38 833.093 1306.59 827.61Z" fill="#37474F" stroke="#263238" stroke-width="4.61409" stroke-linecap="round" stroke-linejoin="round"/>
<path d="M1150.58 895.253C1150.58 895.253 1072.14 1019.1 1070.11 1031.18C1068.08 1043.27 1080.17 1061.41 1101.31 1059.38C1122.44 1057.35 1200.97 1056.38 1200.97 1056.38L1201.99 1037.23L1138.59 1029.2L1176.84 998.978L1150.58 895.253Z" fill="#37474F" stroke="#263238" stroke-width="4.61409" stroke-linecap="round" stroke-linejoin="round"/>
<path d="M1138.59 1029.2L1107.35 1044.29" stroke="#263238" stroke-width="4.61409" stroke-linecap="round" stroke-linejoin="round"/>
<path d="M1392.04 890.27C1392.04 890.27 1471.54 1019.09 1473.52 1031.18C1475.51 1043.27 1463.47 1061.41 1442.33 1059.38C1421.2 1057.35 1342.67 1056.38 1342.67 1056.38L1341.65 1037.23L1405.1 1029.2L1366.85 998.977L1392.04 890.27Z" fill="#37474F" stroke="#263238" stroke-width="4.61409" stroke-linecap="round" stroke-linejoin="round"/>
<path d="M1405.1 1029.2L1436.29 1044.29" stroke="#263238" stroke-width="4.61409" stroke-linecap="round" stroke-linejoin="round"/>
<path d="M1239.64 838.269L1191.19 863.923C1166.96 876.75 1152.01 888.839 1150.58 895.253C1149.15 901.666 1177.67 1104.69 1177.67 1104.69C1177.67 1104.69 1196.13 1122.68 1244.62 1127.48C1317.25 1134.59 1348.57 1111.79 1348.57 1111.79C1348.57 1111.79 1392.04 898.113 1392.04 890.316C1392.04 882.518 1337.18 856.125 1317.98 846.851C1298.79 837.576 1277.38 829.733 1239.64 838.269Z" fill="#37474F" stroke="#263238" stroke-width="4.61409" stroke-linecap="round" stroke-linejoin="round"/>
<path d="M1374.74 979.737C1337.16 985.161 1299.24 987.952 1261.28 988.089C1225.75 987.692 1190.3 984.902 1155.15 979.737C1153.82 979.525 1152.45 979.631 1151.17 980.047C1149.88 980.463 1148.71 981.177 1147.75 982.13C1146.79 983.084 1146.07 984.25 1145.65 985.534C1145.23 986.818 1145.12 988.183 1145.32 989.519C1150.81 1023.57 1166.27 1121.53 1166.27 1140.26C1166.27 1163.05 1158.43 1184.46 1158.43 1194.43C1158.43 1204.4 1162.67 1212.24 1169.82 1215.06C1173.1 1216.39 1210.43 1216.49 1260.91 1216.21C1319.37 1216.49 1356.7 1216.21 1359.97 1215.06C1367.12 1212.24 1371.37 1204.4 1371.37 1194.43C1371.37 1184.46 1363.57 1163.05 1363.57 1140.26C1363.57 1121.53 1379.03 1023.52 1384.47 989.519C1384.68 988.19 1384.58 986.83 1384.17 985.55C1383.75 984.269 1383.04 983.105 1382.09 982.151C1381.14 981.197 1379.98 980.481 1378.7 980.062C1377.43 979.642 1376.07 979.531 1374.74 979.737ZM1338.19 1188.43C1335.66 1189.4 1306.86 1189.49 1261.83 1189.26C1222.93 1189.49 1194.14 1189.26 1191.6 1188.43C1188.72 1187 1186.33 1184.72 1184.77 1181.91C1183.2 1179.09 1182.53 1175.86 1182.84 1172.65C1182.84 1165.04 1188.88 1148.71 1188.88 1131.13C1188.88 1127.07 1187.91 1118.02 1186.39 1106.58L1200.69 1122.04C1202.64 1124.14 1205.01 1125.81 1207.63 1126.96C1210.26 1128.1 1213.1 1128.69 1215.97 1128.68H1313.78C1319.21 1128.67 1324.42 1126.55 1328.32 1122.77L1343.18 1108.24C1341.84 1118.9 1340.96 1127.25 1340.96 1131.31C1340.96 1148.71 1346.96 1165.04 1346.96 1172.84C1347.23 1176.02 1346.54 1179.2 1344.97 1181.98C1343.41 1184.76 1341.05 1187.01 1338.19 1188.43ZM1357.06 1016.28C1354.67 1031.05 1349.77 1061.54 1346.04 1087.75L1331.55 1096.57C1323.59 1101.4 1314.46 1103.95 1305.16 1103.95H1225.7C1216.63 1103.96 1207.73 1101.54 1199.91 1096.93L1183.76 1087.43C1179.98 1061.27 1175.13 1030.95 1172.73 1016.28C1172.58 1015.26 1172.67 1014.21 1173 1013.23C1173.33 1012.25 1173.89 1011.36 1174.62 1010.63C1175.36 1009.9 1176.26 1009.36 1177.24 1009.04C1178.23 1008.72 1179.28 1008.64 1180.3 1008.81C1207.39 1012.76 1234.73 1014.88 1262.11 1015.17C1291.36 1015.08 1320.58 1012.96 1349.54 1008.81C1350.56 1008.64 1351.61 1008.72 1352.59 1009.04C1353.58 1009.35 1354.48 1009.9 1355.21 1010.63C1355.94 1011.36 1356.49 1012.25 1356.82 1013.23C1357.14 1014.21 1357.22 1015.26 1357.06 1016.28Z" fill="#263238" stroke="#263238" stroke-width="4.61409" stroke-linecap="round" stroke-linejoin="round"/>
<path d="M1216.34 1083L1237.65 1079.96L1214.81 985.643L1188.97 981.075L1216.34 1083Z" fill="#757575" stroke="#263238" stroke-width="4.61409" stroke-linecap="round" stroke-linejoin="round"/>
<path d="M1316.78 985.643L1344.19 982.551L1318.31 1083L1296.99 1076.91L1316.78 985.643Z" fill="#757575" stroke="#263238" stroke-width="4.61409" stroke-linecap="round" stroke-linejoin="round"/>
<path d="M1303.73 1057.16C1303.73 1057.16 1238.3 1052.55 1218.5 1058.68C1198.71 1064.82 1188.1 1079.95 1189.62 1104.32C1191.14 1128.68 1177.44 1222.99 1178.96 1247.35C1180.48 1271.72 1189.62 1286.94 1229.16 1294.56C1268.71 1302.17 1309.82 1299.17 1332.66 1289.94C1355.5 1280.71 1366.39 1245.92 1352.4 1209.29C1338.42 1172.65 1341.93 1116.31 1335.84 1088.95C1329.75 1061.59 1314.38 1058.68 1303.73 1057.16Z" fill="#37474F" stroke="#263238" stroke-width="4.61409" stroke-linecap="round" stroke-linejoin="round"/>
<path d="M613.043 877.627C613.043 877.627 539.217 1020.66 537.141 1032.84C535.065 1045.03 547.246 1063.07 568.378 1061.04C589.511 1059.01 644.511 1058.04 644.511 1058.04L645.526 1038.89L582.128 1030.86L620.379 1000.64L613.043 877.627Z" fill="white" stroke="#263238" stroke-width="4.61409" stroke-linecap="round" stroke-linejoin="round"/>
<path d="M582.128 1030.86L574.423 1045.95" stroke="#263238" stroke-width="4.61409" stroke-linecap="round" stroke-linejoin="round"/>
<path d="M811.587 874.535C811.587 874.535 885.966 1020.8 887.95 1032.84C889.934 1044.89 877.892 1063.07 856.759 1061.04C835.627 1059.01 786.256 1058.04 786.256 1058.04L785.241 1038.89L819.523 1030.86L797.883 1000.82L811.587 874.535Z" fill="white" stroke="#263238" stroke-width="4.61409" stroke-linecap="round" stroke-linejoin="round"/>
<path d="M819.523 1030.86L850.715 1045.95" stroke="#263238" stroke-width="4.61409" stroke-linecap="round" stroke-linejoin="round"/>
<path d="M683.177 839.976L634.729 865.584C610.505 878.411 614.427 871.214 613.043 877.627C611.659 884.041 621.21 1106.26 621.21 1106.26C621.21 1106.26 639.666 1124.3 688.16 1129.05C760.832 1136.15 792.162 1113.36 792.162 1113.36C792.162 1113.36 810.618 888.47 810.618 880.626C810.618 872.782 780.627 857.556 761.386 848.328C742.145 839.099 720.92 831.394 683.177 839.976Z" fill="white" stroke="#263238" stroke-width="4.61409" stroke-linecap="round" stroke-linejoin="round"/>
<path d="M711.369 838.638C711.369 838.638 712.43 831.255 734.44 837.577" stroke="#263238" stroke-width="4.61409" stroke-linecap="round" stroke-linejoin="round"/>
<path d="M818.462 981.398C780.898 986.82 743.001 989.611 705.048 989.749C669.525 989.376 634.068 986.585 598.924 981.398C597.588 981.192 596.222 981.305 594.938 981.727C593.655 982.149 592.488 982.868 591.535 983.826C590.582 984.784 589.868 985.953 589.452 987.239C589.036 988.525 588.93 989.891 589.142 991.226C594.586 1025.23 610.044 1123.19 610.044 1141.97C610.044 1164.76 602.2 1186.12 602.2 1196.09C602.2 1206.06 606.491 1213.9 613.596 1216.76C616.872 1218.05 654.2 1218.15 704.679 1217.87C763.139 1218.15 800.467 1217.87 803.789 1216.76C810.895 1213.9 815.186 1206.06 815.186 1196.09C815.186 1186.12 807.342 1164.76 807.342 1141.97C807.342 1123.19 822.799 1025.23 828.244 991.226C828.466 989.889 828.367 988.519 827.955 987.228C827.543 985.937 826.83 984.763 825.874 983.803C824.918 982.843 823.747 982.124 822.458 981.705C821.17 981.287 819.8 981.182 818.462 981.398ZM781.918 1190.09C779.381 1191.11 750.589 1191.15 705.555 1190.97C666.658 1190.97 637.867 1190.97 635.329 1190.09C632.442 1188.66 630.058 1186.38 628.492 1183.57C626.927 1180.75 626.254 1177.52 626.562 1174.31C626.562 1166.7 632.607 1150.41 632.607 1133.02C632.607 1128.91 631.638 1119.87 630.161 1108.47L644.419 1123.88C646.365 1125.99 648.727 1127.67 651.355 1128.82C653.984 1129.97 656.822 1130.57 659.691 1130.57H757.51C762.905 1130.58 768.09 1128.48 771.952 1124.71L786.809 1110.22C785.471 1120.84 784.595 1129.19 784.595 1133.29C784.595 1150.69 790.639 1166.98 790.639 1174.59C790.894 1177.75 790.2 1180.91 788.646 1183.67C787.093 1186.44 784.75 1188.67 781.918 1190.09ZM800.79 1017.94C798.391 1032.71 793.546 1063.21 789.762 1089.41L775.32 1098.23C767.357 1103.09 758.21 1105.66 748.882 1105.66H669.427C660.353 1105.65 651.446 1103.21 643.634 1098.6L627.485 1089.09C623.701 1062.97 618.857 1032.66 616.503 1017.94C616.342 1016.91 616.428 1015.86 616.753 1014.88C617.078 1013.89 617.633 1013 618.372 1012.27C619.111 1011.54 620.013 1010.99 621.004 1010.68C621.995 1010.37 623.046 1010.29 624.07 1010.47C651.15 1014.44 678.465 1016.58 705.832 1016.88C735.167 1016.76 764.459 1014.62 793.5 1010.47C794.503 1010.34 795.522 1010.45 796.477 1010.78C797.431 1011.12 798.295 1011.67 799.001 1012.39C799.707 1013.12 800.236 1014 800.547 1014.96C800.857 1015.92 800.94 1016.94 800.79 1017.94Z" fill="#263238" stroke="#263238" stroke-width="4.61409" stroke-linecap="round" stroke-linejoin="round"/>
<path d="M260.065 797.296H314.88V838.592L260.065 835.731V797.296Z" fill="white" stroke="#263238" stroke-width="4.61409" stroke-linecap="round" stroke-linejoin="round"/>
<path d="M232.98 748.156C232.98 748.156 224.444 745.987 224.444 759.552C224.444 773.118 235.841 782.3 240.086 781.608C244.331 780.916 237.963 755.261 237.271 750.278C236.579 745.295 232.98 748.156 232.98 748.156Z" fill="white" stroke="#263238" stroke-width="4.61409" stroke-linecap="round" stroke-linejoin="round"/>
<path d="M339.843 748.156C339.843 748.156 348.425 745.987 348.425 759.552C348.425 773.118 337.028 782.3 332.737 781.608C328.446 780.916 334.859 755.261 335.598 750.278C336.336 745.295 339.843 748.156 339.843 748.156Z" fill="white" stroke="#263238" stroke-width="4.61409" stroke-linecap="round" stroke-linejoin="round"/>
<path d="M322.724 828.625C322.724 828.625 281.197 822.212 262.741 825.072C244.285 827.933 232.842 850.68 232.842 850.68C247.825 846.214 263.35 843.823 278.983 843.575C298.269 844.013 317.52 845.445 336.659 847.866C333.234 840.651 328.511 834.129 322.724 828.625Z" fill="white" stroke="#263238" stroke-width="4.61409" stroke-linecap="round" stroke-linejoin="round"/>
<path d="M166.768 896.268C166.768 896.268 88.2823 1020.16 86.2982 1032.43C84.3141 1044.7 96.3569 1062.65 117.489 1060.62C138.622 1058.59 190.85 1058.57 190.85 1058.57L187.699 1036.26L154.725 1030.45L192.976 1000.13L166.768 896.268Z" fill="white" stroke="#263238" stroke-width="4.61409" stroke-linecap="round" stroke-linejoin="round"/>
<path d="M154.725 1030.21L123.534 1045.3" stroke="#263238" stroke-width="4.61409" stroke-linecap="round" stroke-linejoin="round"/>
<path d="M408.223 891.285C408.223 891.285 487.678 1020.16 489.708 1032.2C491.738 1044.24 479.65 1062.42 458.471 1060.39C437.292 1058.36 375.966 1056.44 375.966 1056.44L383.507 1035.39L421.281 1030.21L382.984 1000.13L408.223 891.285Z" fill="white" stroke="#263238" stroke-width="4.61409" stroke-linecap="round" stroke-linejoin="round"/>
<path d="M421.235 1030.21L452.472 1045.3" stroke="#263238" stroke-width="4.61409" stroke-linecap="round" stroke-linejoin="round"/>
<path d="M390.92 980.752C353.341 986.176 315.428 988.966 277.46 989.103C241.938 988.711 206.482 985.92 171.336 980.752C169.997 980.538 168.626 980.645 167.336 981.063C166.046 981.481 164.873 982.199 163.914 983.158C162.955 984.117 162.237 985.29 161.819 986.58C161.401 987.87 161.294 989.241 161.508 990.58C166.952 1024.59 182.41 1122.54 182.41 1141.32C182.41 1164.12 174.566 1185.48 174.566 1195.45C174.566 1205.41 178.857 1213.26 185.962 1216.12C189.285 1217.41 226.613 1217.5 277.091 1217.22C335.505 1217.5 372.879 1217.22 376.155 1216.12C383.261 1213.26 387.552 1205.41 387.552 1195.45C387.552 1185.48 379.708 1164.12 379.708 1141.32C379.708 1122.54 395.165 1024.54 400.61 990.534C400.831 989.208 400.733 987.848 400.326 986.567C399.919 985.286 399.213 984.12 398.267 983.165C397.321 982.21 396.161 981.493 394.884 981.073C393.607 980.654 392.248 980.544 390.92 980.752ZM354.377 1189.31C351.839 1190.28 323.047 1190.37 277.967 1190.19C239.071 1190.19 210.325 1190.19 207.787 1189.31C204.891 1187.88 202.498 1185.61 200.924 1182.79C199.35 1179.97 198.67 1176.74 198.974 1173.53C198.974 1165.92 205.019 1149.63 205.019 1132.23C205.019 1128.13 204.05 1119.08 202.573 1107.69L216.831 1123.1C218.781 1125.2 221.143 1126.88 223.771 1128.03C226.398 1129.18 229.235 1129.78 232.103 1129.79H329.922C335.362 1129.8 340.586 1127.66 344.456 1123.83L359.36 1109.35C357.976 1119.96 357.099 1128.31 357.099 1132.42C357.099 1149.81 363.143 1166.1 363.143 1173.71C363.413 1176.89 362.721 1180.08 361.158 1182.86C359.595 1185.64 357.232 1187.89 354.377 1189.31ZM373.202 1017.16C370.849 1031.92 365.958 1062.42 362.175 1088.63L347.732 1097.44C339.765 1102.28 330.617 1104.84 321.294 1104.82H241.839C232.785 1104.83 223.895 1102.4 216.092 1097.81L199.805 1088.44C196.067 1062.28 191.222 1032.01 188.823 1017.3C188.673 1016.27 188.765 1015.23 189.094 1014.24C189.422 1013.26 189.978 1012.37 190.714 1011.64C191.451 1010.91 192.349 1010.37 193.335 1010.05C194.321 1009.74 195.368 1009.66 196.39 1009.82C223.501 1013.78 250.848 1015.9 278.244 1016.19C307.579 1016.1 336.873 1013.98 365.912 1009.82C366.915 1009.7 367.934 1009.8 368.889 1010.14C369.843 1010.47 370.707 1011.02 371.413 1011.75C372.119 1012.47 372.648 1013.35 372.959 1014.31C373.269 1015.27 373.352 1016.3 373.202 1017.3V1017.16Z" fill="#263238" stroke="#263238" stroke-width="4.61409" stroke-linecap="round" stroke-linejoin="round"/>
<path d="M714.022 705.01C712.898 704.342 711.821 703.566 710.755 702.626C712.853 684.08 738.882 687.265 751.938 693.022C763.455 697.262 772.341 705.096 779.675 714.379C783.106 718.674 789.918 739.123 777.82 731.791C773.6 745.729 777.806 763.841 776.557 778.414C776.156 789.013 772.543 800.113 775.355 810.211C779.222 824.096 792.605 837.045 799.806 849.861C806.304 860.153 814.559 876.756 814.389 889.185C813.867 900.351 803.925 917.816 790.396 911.365C795.814 923.8 793.523 931.621 784.442 942.146C779.423 948.197 766.171 960.8 758.364 950.822C755.806 965.709 745.379 985.444 728.831 990.22C708.948 996.064 697.396 971.634 694.608 955.605C685.928 955.532 679.599 961.897 669.974 960.434C662.13 959.352 654.177 955.873 650.044 949.054C641.897 934.849 647.075 919.334 647.609 905.202C641.28 911.567 626.283 914.893 619.895 906.999C612.439 898.284 619.641 882.015 623.364 873.312C633.439 852.315 647.781 834.603 650.971 810.947C652.329 798.772 650.002 786.403 652.67 773.914C655.095 762.561 658.235 750.766 664.225 740.174C670.578 727.878 679.574 709.025 693.746 703.742C700.414 701.604 707.421 703.695 713.955 705.09L714.022 705.01Z" fill="#222A35"/>
<path d="M138.326 443.99C140.978 444.557 142.525 441.454 139.415 440.789C136.763 440.223 135.216 443.326 138.326 443.99Z" fill="#222A35"/>
<path d="M428.112 433.537C430.555 433.537 431.334 430.372 428.469 430.372C426.026 430.372 425.247 433.537 428.112 433.537Z" fill="#222A35"/>
<path d="M1315.87 716.504C1325.72 719.787 1335.57 723.071 1328.45 734.562C1333.93 737.845 1336.11 744.412 1334.47 750.431C1337.76 752.62 1342.68 756.998 1342.13 761.375C1341.59 766.847 1335.57 765.753 1333.38 769.584C1328.45 777.792 1332.83 787.094 1319.7 789.83C1332.83 789.283 1330.09 818.832 1314.77 811.719C1308.21 828.682 1295.07 826.493 1284.13 816.644C1285.77 828.682 1270.45 824.852 1265.52 818.832C1260.6 825.946 1233.24 834.154 1239.8 818.832C1229.96 819.38 1220.11 810.624 1221.2 800.227C1208.61 807.888 1198.22 784.358 1202.59 774.508C1191.1 770.678 1197.12 750.978 1198.76 744.412C1200.95 733.468 1207.52 720.882 1221.2 724.712C1219.56 719.787 1221.2 713.768 1225.58 711.032C1228.31 709.39 1231.6 711.032 1233.79 709.938C1235.43 709.39 1237.62 705.56 1239.26 705.013C1242.76 704.137 1249.72 705.363 1252.39 708.384C1252.65 706.676 1253.2 705.013 1254.03 703.918C1258.96 697.899 1261.69 702.824 1266.62 701.182C1271.54 700.088 1271.54 695.71 1278.66 696.805C1283.03 697.352 1287.41 700.088 1287.96 705.013C1295.07 695.163 1318.06 705.56 1315.87 716.504Z" fill="#222A35"/>
<path d="M1252.39 708.384C1252.13 710.091 1252.13 711.864 1252.39 713.221V708.384Z" fill="#222A35"/>
<path d="M1252.39 708.384C1252.13 710.091 1252.13 711.864 1252.39 713.221" stroke="black" stroke-width="2.18884"/>
<path d="M1252.39 708.384C1249.72 705.363 1242.76 704.137 1239.26 705.013C1237.62 705.56 1235.43 709.39 1233.79 709.938C1231.6 711.032 1228.31 709.39 1225.58 711.032C1221.2 713.768 1219.56 719.787 1221.2 724.712C1207.52 720.882 1200.95 733.468 1198.76 744.412C1197.12 750.978 1191.1 770.678 1202.59 774.508C1198.22 784.358 1208.61 807.888 1221.2 800.227C1220.11 810.624 1229.96 819.38 1239.8 818.832C1233.24 834.154 1260.6 825.946 1265.52 818.832C1270.45 824.852 1285.77 828.682 1284.13 816.644C1295.07 826.493 1308.21 828.682 1314.77 811.719C1330.09 818.832 1332.83 789.283 1319.7 789.83C1332.83 787.094 1328.45 777.792 1333.38 769.584C1335.57 765.753 1341.59 766.847 1342.13 761.375C1342.68 756.998 1337.76 752.62 1334.47 750.431C1336.11 744.412 1333.93 737.845 1328.45 734.562C1335.57 723.071 1325.72 719.787 1315.87 716.504C1318.06 705.56 1295.07 695.163 1287.96 705.013C1287.41 700.088 1283.03 697.352 1278.66 696.805C1271.54 695.71 1271.54 700.088 1266.62 701.182C1261.69 702.824 1258.96 697.899 1254.03 703.918C1253.2 705.013 1252.65 706.676 1252.39 708.384Z" fill="#222A35" stroke="black" stroke-width="2.18884"/>
<path d="M1253.49 711.032C1253.49 710.047 1253.09 709.15 1252.39 708.384L1253.49 711.032Z" fill="#222A35"/>
<path d="M1253.49 711.032C1253.49 710.047 1253.09 709.15 1252.39 708.384" stroke="black" stroke-width="2.18884"/>
<path d="M345.365 734.561C349.513 775.584 334.421 828.573 283.851 819.985C232.425 812.085 218.229 762.953 236.344 718.094C242.738 703.117 251.819 686.963 264.745 677.686C264.745 677.686 264.779 677.656 264.813 677.628C264.847 677.632 264.882 677.604 264.913 677.576C301.752 656.437 342.088 696.441 345.365 734.561Z" fill="#222A35"/>
<path d="M264.748 677.687C262.849 678.792 260.928 680.08 259.026 681.531L264.748 677.687Z" fill="#222A35"/>
<path d="M264.748 677.687C262.849 678.792 260.928 680.08 259.026 681.531" stroke="black" stroke-width="3.10308"/>
<path d="M294.544 670.545C282.914 668.695 273.13 671.726 264.912 677.579C264.878 677.607 264.844 677.635 264.813 677.631C264.779 677.659 264.745 677.689 264.745 677.689C251.819 686.966 242.738 703.12 236.343 718.097C218.229 762.956 232.425 812.088 283.85 819.988C334.421 828.576 349.513 775.588 345.364 734.564C342.088 696.444 301.749 656.439 264.912 677.583" fill="#222A35"/>
<path d="M294.544 670.545C282.914 668.695 273.13 671.726 264.912 677.579C264.878 677.607 264.844 677.635 264.813 677.631C264.779 677.659 264.745 677.689 264.745 677.689C251.819 686.966 242.738 703.12 236.343 718.097C218.229 762.956 232.425 812.088 283.85 819.988C334.421 828.576 349.513 775.588 345.364 734.564C342.088 696.444 301.749 656.439 264.912 677.583" stroke="black" stroke-width="3.10308"/>
<path d="M318.272 727.902C317.757 727.847 317.245 727.791 316.729 727.736C315.44 727.596 313.511 728.374 313.183 729.762C312.818 731.292 314.581 731.842 315.72 731.965C316.235 732.021 316.747 732.076 317.262 732.132C318.552 732.271 320.48 731.493 320.808 730.105C321.174 728.575 319.41 728.025 318.272 727.902Z" fill="#222A35"/>
<path d="M290.846 711.183C288.134 705.147 297.687 703.514 300.85 703.472C303.791 703.431 306.358 704.948 308.571 706.676C311.55 709.002 313.655 712.491 315.652 715.637C317.596 718.703 319.673 723.282 323.593 724.124C324.254 724.267 325.237 723.409 324.242 723.195C320.259 722.334 317.718 716.098 315.72 713.02C313.292 709.29 310.475 705.989 306.528 703.839C301.157 700.915 285.64 703.276 289.405 711.664C289.652 712.209 291.143 711.846 290.846 711.183Z" fill="#222A35"/>
<path d="M289.508 709.706C300.521 703.998 309.019 705.192 314.995 713.291C318.092 716.831 319.068 721.921 319.987 726.384C321.231 732.43 320.989 738.883 321.127 745.022C321.48 760.675 323.488 776.22 326.932 791.484C349.897 877.353 323.06 772.194 322.578 741.131C322.321 729.682 321.72 709.914 307.575 705.875C301.553 704.157 290.308 701.839 287.994 709.729C287.823 710.304 289.356 710.213 289.508 709.706Z" fill="white"/>
<path d="M250.171 813.252C261.009 802.273 264.488 783.772 269.538 769.536C274.742 754.858 280.689 737.838 276.444 722.229C276.292 721.664 274.898 721.884 274.914 722.466C274.919 724.296 274.98 726.125 275.101 727.949C275.129 728.501 276.664 728.305 276.631 727.712C276.208 719.41 275.758 740.932 275.821 740.346C274.896 748.907 272.071 757.335 269.418 765.481C264.568 780.369 259.866 801.815 248.782 813.045C248.292 813.542 249.813 813.616 250.171 813.252Z" fill="white"/>
<path d="M255.666 809.916C254.672 815.645 278.983 818.273 283.937 819.214C292.739 820.946 298.19 820.755 307.039 818.591C312.617 817.227 326.963 810.975 328.081 804.105L329.447 803.597C331.902 810.042 334.104 816.523 334.499 824.712C334.791 836.447 333.342 849.556 331.32 861.042C324.286 896.955 296.536 923.575 287.989 959.324C279.323 924.835 257.96 909.666 252.442 874.706C251.138 868.572 246.957 820.928 254.65 809.525L255.666 809.916Z" fill="#222A35"/>
<path d="M259.732 807.234C257.64 806.665 255.953 807.544 254.647 809.525C246.953 820.928 251.135 868.572 252.438 874.706C257.957 909.666 279.323 924.835 287.986 959.324C296.532 923.574 324.285 896.955 331.317 861.041C333.339 849.555 334.787 836.447 334.495 824.711C334.103 816.526 331.898 810.045 329.443 803.597C327.457 798.294 325.31 793.037 323.852 786.887" fill="#222A35"/>
<path d="M259.732 807.234C257.64 806.665 255.953 807.544 254.647 809.525C246.953 820.928 251.135 868.572 252.438 874.706C257.957 909.666 279.323 924.835 287.986 959.324C296.532 923.574 324.285 896.955 331.317 861.041C333.339 849.555 334.787 836.447 334.495 824.711C334.103 816.526 331.898 810.045 329.443 803.597C327.457 798.294 325.31 793.037 323.852 786.887" stroke="black" stroke-width="0.77577"/>
<path d="M255.004 809.083L255 809.083" stroke="black" stroke-width="0.77577"/>
<path d="M329.649 804.088L329.649 804.084" stroke="black" stroke-width="0.77577"/>
</g>
<defs>
<clipPath id="clip0">
<rect width="1920" height="1080" fill="white"/>
</clipPath>
</defs>
</svg>
