<svg width="3840" height="1080" viewBox="0 0 3840 1080" fill="none" xmlns="http://www.w3.org/2000/svg">
<g clip-path="url(#clip0_705_2342)">
<rect x="554" y="935" width="231" height="37" rx="12" fill="#EFEFEF"/>
<rect x="803" y="935" width="432" height="37" rx="12" fill="#EFEFEF"/>
<rect x="1253" y="935" width="159" height="37" rx="12" fill="#EFEFEF"/>
<rect x="1067" y="990" width="168" height="37" rx="12" fill="#FF0079"/>
<rect x="1253" y="990" width="297" height="37" rx="12" fill="#EFEFEF"/>
<rect x="554" y="1045" width="231" height="37" rx="12" fill="#EFEFEF"/>
<rect x="1269" y="1045" width="432" height="37" rx="12" fill="#EFEFEF"/>
<rect x="803" y="1045" width="159" height="37" rx="12" fill="#C1E616"/>
<rect x="980" y="1045" width="271" height="37" rx="12" fill="#EFEFEF"/>
<rect x="-185" y="478" width="231" height="37" rx="12" fill="#EFEFEF"/>
<rect x="64" y="478" width="432" height="37" rx="12" fill="#EFEFEF"/>
<rect x="514" y="478" width="159" height="37" rx="12" fill="#EFEFEF"/>
<rect x="328" y="533" width="168" height="37" rx="12" fill="#FF0079"/>
<rect x="514" y="533" width="297" height="37" rx="12" fill="#EFEFEF"/>
<rect x="-185" y="588" width="231" height="37" rx="12" fill="#EFEFEF"/>
<rect x="64" y="588" width="159" height="37" rx="12" fill="#FF0079"/>
<rect x="241" y="588" width="271" height="37" rx="12" fill="#EFEFEF"/>
<rect x="-185" y="643" width="492" height="37" rx="12" fill="#EFEFEF"/>
<rect x="827" y="643" width="135" height="37" rx="12" fill="#EFEFEF"/>
<rect x="64" y="698" width="432" height="37" rx="12" fill="#EFEFEF"/>
<rect x="514" y="698" width="159" height="37" rx="12" fill="#EFEFEF"/>
<rect x="328" y="753" width="483" height="37" rx="12" fill="#EFEFEF"/>
<rect x="-185" y="808" width="231" height="37" rx="12" fill="#C1E616"/>
<rect x="530" y="808" width="432" height="37" rx="12" fill="#EFEFEF"/>
<rect x="241" y="808" width="271" height="37" rx="12" fill="#EFEFEF"/>
<rect x="-185" y="863" width="492" height="37" rx="12" fill="#EFEFEF"/>
<rect x="-128" y="95" width="492" height="37" rx="12" fill="#EFEFEF"/>
<rect x="-128" y="150" width="231" height="37" rx="12" fill="#EFEFEF"/>
<rect x="-128" y="205" width="492" height="37" rx="12" fill="#EFEFEF"/>
<rect x="884" y="205" width="135" height="37" rx="12" fill="#EFEFEF"/>
<rect x="-128" y="260" width="231" height="37" rx="12" fill="#EFEFEF"/>
<rect x="121" y="260" width="432" height="37" rx="12" fill="#EFEFEF"/>
<rect x="571" y="260" width="159" height="37" rx="12" fill="#FF0079"/>
<rect x="-128" y="370" width="231" height="37" rx="12" fill="#00AED3"/>
<rect x="121" y="370" width="159" height="37" rx="12" fill="#EFEFEF"/>
<rect x="-128" y="425" width="492" height="37" rx="12" fill="#EFEFEF"/>
<rect x="385" y="425" width="483" height="37" rx="12" fill="#EFEFEF"/>
<rect x="884" y="425" width="135" height="37" rx="12" fill="#C1E616"/>
<rect width="152.485" height="37" rx="12" transform="matrix(-1 0 0 1 946.643 478)" fill="#EFEFEF"/>
<rect width="259.895" height="37" rx="12" transform="matrix(-1 0 0 1 776.896 478)" fill="#FF0079"/>
<rect width="161.116" height="37" rx="12" transform="matrix(-1 0 0 1 1125.02 533)" fill="#EFEFEF"/>
<rect width="129.468" height="37" rx="12" transform="matrix(-1 0 0 1 646.468 533)" fill="#EFEFEF"/>
<rect width="414.298" height="37" rx="12" transform="matrix(-1 0 0 1 931.298 588)" fill="#EFEFEF"/>
<rect width="259.895" height="37" rx="12" transform="matrix(-1 0 0 1 1208.46 588)" fill="#00AED3"/>
<rect width="471.84" height="37" rx="12" transform="matrix(-1 0 0 1 1617 643)" fill="#EFEFEF"/>
<rect width="463.208" height="37" rx="12" transform="matrix(-1 0 0 1 1125.02 643)" fill="#EFEFEF"/>
<rect width="91.1072" height="37" rx="12" transform="matrix(-1 0 0 1 1617 753)" fill="#C1E616"/>
<rect width="414.298" height="37" rx="12" transform="matrix(-1 0 0 1 1378.2 698)" fill="#EFEFEF"/>
<rect width="152.485" height="37" rx="12" transform="matrix(-1 0 0 1 946.643 698)" fill="#FF0079"/>
<rect width="360.593" height="37" rx="12" transform="matrix(-1 0 0 1 1505.75 753)" fill="#EFEFEF"/>
<rect width="463.208" height="37" rx="12" transform="matrix(-1 0 0 1 1125.02 753)" fill="#EFEFEF"/>
<rect width="129.468" height="37" rx="12" transform="matrix(-1 0 0 1 646.468 753)" fill="#EFEFEF"/>
<rect width="221.534" height="37" rx="12" transform="matrix(-1 0 0 1 1617 808)" fill="#EFEFEF"/>
<rect width="259.895" height="37" rx="12" transform="matrix(-1 0 0 1 1208.46 808)" fill="#EFEFEF"/>
<rect width="463.208" height="37" rx="12" transform="matrix(-1 0 0 1 1125.02 863)" fill="#EFEFEF"/>
<rect width="129.468" height="37" rx="12" transform="matrix(-1 0 0 1 646.468 863)" fill="#EFEFEF"/>
<path d="M273.228 301.511C273.228 301.511 273.228 288.53 259.254 279.048C245.28 269.567 211.792 275.052 199.306 291.038C186.82 307.024 185.801 318.6 171.33 323.01C156.86 327.42 123.868 332.546 100.937 356.47C78.0049 380.394 87.9549 429.4 98.4561 433.396C108.957 437.393 95.9479 429.896 97.4363 416.859C97.7088 413.263 98.9738 409.813 101.091 406.894C103.207 403.974 106.093 401.699 109.426 400.322C109.426 400.322 95.9479 421.793 124.42 449.768C152.891 477.744 184.367 471.267 210.855 465.754C237.342 460.242 269.783 440.783 272.291 417.796C274.799 394.809 266.282 381.827 272.291 371.354C278.299 360.88 300.266 362.341 303.271 342.386C306.275 322.431 298.199 296.026 273.228 301.511Z" fill="#263238" stroke="#263238" stroke-linecap="round" stroke-linejoin="round"/>
<path d="M369.448 658.468C369.448 658.468 383.395 640.829 388.742 640.25C394.089 639.671 402.027 651.798 405.5 661.059C408.972 670.32 417.048 689.338 417.048 698.599C417.048 714.778 410.102 719.96 407.236 717.066C404.369 714.172 396.817 696.284 392.793 692.811C390.229 690.669 387.243 689.091 384.029 688.181C384.029 688.181 375.154 665.717 369.448 658.468Z" fill="white" stroke="#263238" stroke-linecap="round" stroke-linejoin="round"/>
<path d="M383.587 644.66C383.587 644.66 400.482 661.556 406.491 677.735C412.5 693.914 414.346 709.707 408.917 716.322" stroke="#263238" stroke-linecap="round" stroke-linejoin="round"/>
<path d="M338.358 783.519C338.358 783.519 355.088 784.676 360.876 785.255C366.664 785.834 366.664 799.698 364.349 809.51C362.034 819.322 359.14 825.689 361.593 836.658C364.046 847.628 357.541 859.756 354.068 864.965C350.596 870.174 343.044 869.017 342.52 864.965C341.996 860.913 344.256 837.237 336.181 823.952C328.105 810.667 329.097 792.835 338.358 783.519Z" fill="white" stroke="#263238" stroke-linecap="round" stroke-linejoin="round"/>
<path d="M354.041 784.564C357.567 791.002 358.838 798.434 357.652 805.677C355.833 818.328 358.258 838.256 358.258 843.079C358.258 847.902 351.616 866.589 349.218 867.196" stroke="#263238" stroke-linecap="round" stroke-linejoin="round"/>
<path d="M414.099 189.223C411.094 189.223 399.105 192.227 398.113 195.728C397.12 199.228 395.632 233.185 395.632 233.185C395.632 233.185 374.63 273.15 367.656 288.144C360.683 303.137 342.161 339.106 342.161 339.106L295.719 387.56C295.719 387.56 288.718 391.061 276.729 398.034C275.599 398.696 274.414 399.44 273.228 400.184L251.179 405.035L232.271 401.452C223.302 394.46 213.963 387.955 204.295 381.965C192.306 374.992 185.305 371.492 185.305 371.492L138.863 323.037C138.863 323.037 120.369 287.207 113.368 272.075C106.367 256.943 85.3923 217.116 85.3923 217.116C85.3923 217.116 83.904 183.159 82.9118 179.659C81.9195 176.159 69.9024 173.154 66.9257 173.154C63.949 173.154 58.4365 189.14 60.421 192.641C62.4055 196.141 67.8628 196.114 67.8628 196.114C67.6084 200.106 67.6084 204.111 67.8628 208.103C68.3589 210.611 75.8558 215.6 75.8558 215.6C75.8558 215.6 86.357 259.066 93.3303 289.026C100.303 318.986 109.316 338.996 113.313 342.496C117.309 345.997 156.778 385.934 164.771 399.44C171.222 409.434 178.765 418.678 187.262 427.002C187.262 427.002 182.769 449.052 182.769 460.958C182.769 472.865 194.759 498.415 198.756 509.909C202.752 521.402 207.741 574.845 207.741 576.361C207.741 577.877 210.221 610.814 210.221 610.814C210.221 610.814 183.266 669.77 174.776 711.719C166.287 753.669 170.256 777.675 189.743 786.661C209.229 795.646 297.649 808.132 300.157 811.136C302.665 814.14 304.649 816.125 308.15 816.125C311.65 816.125 316.143 814.14 319.175 816.125C322.206 818.109 322.151 819.625 325.652 819.625C327.324 819.85 328.919 820.467 330.308 821.425C331.697 822.382 332.84 823.655 333.645 825.137C334.637 827.122 340.646 823.125 342.63 808.132C344.614 793.138 341.638 786.082 338.634 785.668C335.629 785.255 336.153 780.156 331.164 780.156C325.799 780.498 320.46 781.17 315.178 782.168C312.575 781.384 309.895 780.885 307.185 780.68C304.181 780.68 300.68 778.171 298.668 777.675C296.656 777.179 263.72 763.674 263.72 763.674L262.452 763.012C295.802 743.994 343.099 710.341 343.099 710.341C343.099 710.341 356.687 709.487 362.64 704.388C366.675 700.778 370.366 696.801 373.665 692.508L383.863 688.264C383.734 681.589 381.665 675.096 377.91 669.577C371.984 661.942 369.42 658.552 369.42 658.552C369.42 658.552 353.297 666.186 348.198 667.895C343.099 669.604 335.464 670.431 331.219 674.676C326.975 678.92 315.95 687.409 315.95 687.409L278.603 706.923C278.603 706.923 326.148 645.818 332.074 620.351C337.173 598.521 329.317 574.404 316.308 556.792C306.468 543.562 292.66 533.475 282.186 520.658C277.17 514.567 273.339 510.047 273.697 507.428C274.276 503.377 279.017 482.981 283.316 465.616L296.711 439.929C300.019 436.483 314.792 417.879 316.17 415.508C324.163 402.003 363.632 362.038 367.629 358.537C371.625 355.037 380.611 335.082 387.611 305.094C394.612 275.107 405.086 231.669 405.086 231.669C405.086 231.669 412.583 226.68 413.079 224.172C413.333 220.179 413.333 216.175 413.079 212.182C413.079 212.182 418.591 212.182 420.576 208.682C422.56 205.182 417.103 189.223 414.099 189.223Z" fill="white" stroke="#263238" stroke-linecap="round" stroke-linejoin="round"/>
<path d="M369.448 658.469C369.448 658.469 353.324 666.104 348.225 667.813C343.126 669.522 335.492 670.349 331.247 674.593C327.002 678.838 315.978 687.327 315.978 687.327L278.631 706.841C278.631 706.841 326.176 645.736 332.101 620.268C337.2 598.439 329.345 574.322 316.336 556.71C311.377 550.343 305.901 544.397 299.964 538.932C289.532 548.034 278.201 556.05 266.145 562.856C248.517 573.192 228.024 577.561 207.713 575.314C207.713 575.838 207.713 576.169 207.713 576.279C207.713 577.767 210.194 610.732 210.194 610.732C210.194 610.732 183.238 669.687 174.749 711.637C166.26 753.586 170.229 777.593 189.715 786.578C209.202 795.564 297.621 808.049 300.129 811.053C302.637 814.058 304.622 816.042 308.122 816.042C311.623 816.042 316.115 814.058 319.147 816.042C322.179 818.027 322.124 819.543 325.624 819.543C327.296 819.768 328.892 820.384 330.281 821.342C331.669 822.3 332.813 823.572 333.617 825.055C334.61 827.039 340.618 823.043 342.603 808.049C344.587 793.055 341.61 785.999 338.606 785.586C335.602 785.173 336.125 780.074 331.137 780.074C325.772 780.415 320.433 781.087 315.151 782.086C312.548 781.302 309.868 780.803 307.158 780.597C304.153 780.597 300.653 778.089 298.641 777.593C296.629 777.097 263.692 763.591 263.692 763.591L262.424 762.93C295.774 743.912 343.071 710.259 343.071 710.259C343.071 710.259 356.659 709.404 362.613 704.305C366.648 700.696 370.339 696.719 373.638 692.426L383.836 688.181C383.707 681.506 381.638 675.013 377.882 669.494C372.011 661.859 369.448 658.469 369.448 658.469Z" fill="#263238" stroke="#263238" stroke-linecap="round" stroke-linejoin="round"/>
<path d="M241.89 607.313L251.702 611.944C251.702 611.944 210.689 710.727 204.846 739.033C199.003 767.339 206.004 781.203 216.974 781.203C227.943 781.203 259.144 765.024 259.144 765.024" stroke="white" stroke-linecap="round" stroke-linejoin="round"/>
<path d="M278.63 706.84C278.63 706.84 254.017 743.222 247.017 751.739" stroke="white" stroke-linecap="round" stroke-linejoin="round"/>
<path d="M78.4181 186.632C78.4181 186.632 68.413 172.63 66.9246 169.626C65.4363 166.622 62.432 175.139 64.9126 180.127C66.5005 183.229 68.5238 186.088 70.9211 188.616C70.9211 188.616 66.9246 200.606 72.9056 205.595" fill="white"/>
<path d="M78.4181 186.632C78.4181 186.632 68.413 172.63 66.9246 169.626C65.4363 166.622 62.432 175.139 64.9126 180.127C66.5005 183.229 68.5238 186.088 70.9211 188.616C70.9211 188.616 66.9246 200.606 72.9056 205.595" stroke="#263238" stroke-linecap="round" stroke-linejoin="round"/>
<path d="M399.765 205.347C399.765 205.347 409.742 191.373 411.258 188.368C412.774 185.364 415.751 193.881 413.243 198.869C411.659 201.967 409.645 204.825 407.262 207.359C407.262 207.359 411.258 219.348 405.25 224.337" fill="white"/>
<path d="M399.765 205.347C399.765 205.347 409.742 191.373 411.258 188.368C412.774 185.364 415.751 193.881 413.243 198.869C411.659 201.967 409.645 204.825 407.262 207.359C407.262 207.359 411.258 219.348 405.25 224.337" stroke="#263238" stroke-linecap="round" stroke-linejoin="round"/>
<path d="M187.318 426.919C187.318 426.919 182.826 448.969 182.826 460.876C182.826 472.782 194.815 498.333 198.812 509.826C202.808 521.319 207.797 574.762 207.797 576.278C207.797 576.692 207.99 579.641 208.293 583.665C225.96 588.599 262.397 590.28 305.835 544.747C297.953 536.727 289.298 529.257 282.215 520.575C277.198 514.484 273.367 509.964 273.726 507.345C274.304 503.294 279.045 482.898 283.345 465.534L296.74 439.846C300.047 436.4 314.821 417.796 316.199 415.426C324.192 401.92 363.661 361.955 367.657 358.455C371.654 354.954 380.639 334.999 387.64 305.011C390.203 293.987 393.152 281.06 396.102 269.181C390.466 268.009 385.014 266.081 379.895 263.448C375.072 272.874 370.331 282.3 367.657 288.033C360.657 303.027 342.162 338.996 342.162 338.996L295.72 387.45C295.72 387.45 288.719 390.95 276.73 397.924C275.6 398.585 274.415 399.329 273.229 400.073L251.18 404.924L232.272 401.452C223.303 394.46 213.964 387.955 204.296 381.965C192.307 374.992 185.306 371.491 185.306 371.491L138.864 323.037C138.864 323.037 120.37 287.206 113.369 272.075C110.144 265.184 103.97 252.974 98.2372 241.756C93.4087 243.786 88.4776 245.561 83.4639 247.076C86.6886 260.471 90.3544 275.989 93.3862 288.97C100.387 318.958 109.372 338.941 113.369 342.441C117.365 345.941 156.834 385.879 164.827 399.384C171.279 409.369 178.823 418.604 187.318 426.919V426.919Z" fill="#37474F"/>
<path d="M188.696 373.2C186.491 372.043 185.306 371.464 185.306 371.464L182.55 368.57L160.031 392.659C161.643 394.695 163.151 396.811 164.551 398.998L188.696 373.2Z" fill="#263238"/>
<path d="M167.609 352.997L162.289 347.484L137.483 367.081C139.22 368.928 140.984 370.802 142.693 372.593L167.609 352.997Z" fill="#263238"/>
<path d="M207.74 384.032L204.295 381.938L201.07 380.063L173.508 411.65C175.217 413.772 176.898 415.756 178.497 417.548L207.74 384.032Z" fill="#263238"/>
<path d="M145.476 329.789L116.812 345.665L122.324 351.177L150.823 335.357L145.476 329.789Z" fill="#263238"/>
<path d="M215.817 389.379L203.882 402.691C203.337 402.862 202.837 403.154 202.421 403.546C201.897 404.058 201.549 404.724 201.429 405.448L184.616 424.19C186.27 425.899 187.372 426.946 187.372 426.946C187.372 426.946 186.546 430.97 185.608 436.538L188.668 431.907C196.137 435.105 216.919 440.865 269.728 440.865C275.13 440.865 280.873 440.801 286.955 440.672C287.509 440.659 288.054 440.527 288.553 440.286C290.431 441.791 292.627 442.847 294.975 443.373L296.794 439.873C297.456 439.184 298.586 437.861 299.964 436.207C299.046 436.266 298.126 436.266 297.208 436.207C287.699 435.049 281.883 414.791 279.375 396.573L276.619 398.089C275.489 398.75 274.304 399.494 273.118 400.238L272.126 400.459C272.54 403.215 273.008 405.971 273.614 408.728C237.095 418.126 218.104 410.492 211.021 406.219L222.046 393.982C220.144 392.411 218.022 390.895 215.817 389.379ZM241.505 420.745C252.986 420.585 264.402 418.992 275.489 416.004C277.016 421.985 279.343 427.733 282.407 433.093C225.518 434.002 202.008 428.517 193.629 425.596L205.949 411.815C211.186 415.232 222.376 420.745 241.505 420.745Z" fill="#263238"/>
<path d="M118.743 283.182L94.4609 293.463C95.1224 296.054 95.7564 298.534 96.4179 300.96L122.161 289.935L118.743 283.182Z" fill="#263238"/>
<path d="M107.525 260.058L88.2314 267.196C88.8103 269.704 89.4166 272.185 89.9954 274.666L110.915 266.948L107.525 260.058Z" fill="#263238"/>
<path d="M133.707 312.921C132.632 310.854 131.475 308.539 130.234 306.113L103.113 322.017C104.078 324.635 105.015 327.033 105.869 329.183L133.707 312.921Z" fill="#263238"/>
<path d="M354.041 315.622C352.828 318.075 351.616 320.473 350.458 322.733C357.982 329.541 366.637 337.01 375.622 343.873C376.559 341.613 377.496 339.133 378.378 336.404C369.752 329.624 361.318 322.265 354.041 315.622Z" fill="#263238"/>
<path d="M275.157 500.262C275.653 497.974 276.259 495.246 276.948 492.269C236.735 497.781 207.161 492.958 190.403 488.41C191.588 491.47 192.774 494.474 193.931 497.313C209.438 500.903 225.312 502.661 241.228 502.55C252.575 502.53 263.91 501.766 275.157 500.262Z" fill="#263238"/>
<path d="M363.329 296.991C370.616 302.305 378.169 307.245 385.958 311.792C386.536 309.587 387.088 307.327 387.639 305.011C387.639 304.681 387.639 304.322 387.859 303.992C380.578 299.68 373.522 294.997 366.719 289.962C365.755 292.057 364.597 294.427 363.329 296.991Z" fill="#263238"/>
<path d="M182.851 459.635C182.851 460.048 182.851 460.489 182.851 460.875C182.905 463.037 183.173 465.188 183.65 467.297C199.939 466.084 233.648 465.313 281.606 472.81C282.185 470.384 282.791 467.959 283.37 465.588V465.34C233.951 457.485 199.581 458.312 182.851 459.635Z" fill="#263238"/>
<path d="M296.352 535.43C294.45 533.611 292.603 531.765 290.839 529.918C262.092 549.212 227.887 557.094 206.361 560.236C206.665 562.993 206.913 565.749 207.133 567.954C229.624 564.784 265.785 556.543 296.352 535.43Z" fill="#263238"/>
<path d="M202.311 527.603C202.669 530.083 203.027 532.702 203.385 535.375C206.142 535.375 209.339 535.375 212.646 535.375C237.55 535.627 262.35 532.124 286.21 524.984C284.859 523.496 283.454 522.008 282.213 520.437L280.725 518.645C251.454 527.41 220.832 528.237 202.311 527.603Z" fill="#263238"/>
<path d="M336.51 344.866C343.097 353.135 350.291 361.1 357.457 368.542L362.97 363.03C355.803 355.505 348.499 347.374 341.94 339.244L336.51 344.866Z" fill="#263238"/>
<path d="M338.66 388.304L343.897 382.792C335.53 376.39 327.928 369.047 321.241 360.907L315.894 366.42C322.644 374.539 330.28 381.879 338.66 388.304Z" fill="#263238"/>
<path d="M316.199 415.425C317.1 413.92 318.085 412.466 319.148 411.071C314.876 403.022 308.647 391.06 303.135 379.677L297.622 385.576C303.713 398.061 310.438 410.822 314.38 418.126C315.234 416.803 315.923 415.839 316.199 415.425Z" fill="#263238"/>
<path opacity="0.25" d="M395.384 269.153C383.587 295.171 361.041 344.894 356.576 354.788C350.485 368.349 302.389 417.106 294.258 421.847C286.128 426.588 281.387 438.109 277.997 450.291C274.772 461.895 265.428 471.046 264.546 483.586C259.916 480.058 250.765 477.109 238.032 476.034C213.639 473.995 190.625 480.113 190.625 457.761C190.625 435.408 204.847 413.661 205.536 406.936C206.225 400.211 192.664 412.448 185.884 407.625C179.104 402.802 133.047 350.048 119.487 333.207C110.86 322.403 95.5351 277.697 85.5576 246.689L83.4629 247.351C86.6877 260.746 90.3534 276.264 93.3852 289.245C100.386 319.233 109.371 339.216 113.368 342.688C117.364 346.161 156.833 386.154 164.826 399.66C171.277 409.653 178.82 418.898 187.317 427.222C187.317 427.222 182.825 449.271 182.825 461.178C182.825 473.085 194.814 498.635 198.811 510.129C202.807 521.622 207.796 575.065 207.796 576.581C207.796 576.995 207.989 579.944 208.292 583.968C210.731 584.639 213.207 585.173 215.706 585.566C215.238 564.619 211.765 520.961 217.718 511.424C224.195 501.061 255.451 500.592 264.574 494.666C264.961 505.724 268.916 516.36 275.847 524.985C280.78 531.462 292.026 540.309 302.803 548.054L305.724 545.078C297.841 537.057 289.187 529.588 282.103 520.906C277.087 514.814 273.256 510.294 273.614 507.676C274.193 503.624 278.934 483.228 283.233 465.864L296.629 440.176C299.936 436.731 314.709 418.126 316.088 415.756C324.081 402.25 363.55 362.285 367.546 358.785C371.543 355.284 380.528 335.329 387.529 305.342C390.092 294.317 393.041 281.39 395.99 269.511L395.384 269.153Z" fill="black"/>
<path d="M187.318 426.919C187.318 426.919 182.826 448.969 182.826 460.876C182.826 472.782 194.815 498.333 198.812 509.826C202.808 521.319 207.797 574.762 207.797 576.278C207.797 576.692 207.99 579.641 208.293 583.665C225.96 588.599 262.397 590.28 305.835 544.747C297.953 536.727 289.298 529.257 282.215 520.575C277.198 514.484 273.367 509.964 273.726 507.345C274.304 503.294 279.045 482.898 283.345 465.534L296.74 439.846C300.047 436.4 314.821 417.796 316.199 415.426C324.192 401.92 363.661 361.955 367.657 358.455C371.654 354.954 380.639 334.999 387.64 305.011C390.203 293.987 393.152 281.06 396.102 269.181C390.466 268.009 385.014 266.081 379.895 263.448C375.072 272.874 370.331 282.3 367.657 288.033C360.657 303.027 342.162 338.996 342.162 338.996L295.72 387.45C295.72 387.45 288.719 390.95 276.73 397.924C275.6 398.585 274.415 399.329 273.229 400.073L251.18 404.924L232.272 401.452C223.303 394.46 213.964 387.955 204.296 381.965C192.307 374.992 185.306 371.491 185.306 371.491L138.864 323.037C138.864 323.037 120.37 287.206 113.369 272.075C110.144 265.184 103.97 252.974 98.2372 241.756C93.4087 243.786 88.4776 245.561 83.4639 247.076C86.6886 260.471 90.3544 275.989 93.3862 288.97C100.387 318.958 109.372 338.941 113.369 342.441C117.365 345.941 156.834 385.879 164.827 399.384C171.279 409.369 178.823 418.604 187.318 426.919V426.919Z" stroke="#263238" stroke-linecap="round" stroke-linejoin="round"/>
<path d="M227.283 362.451C227.283 362.451 227.779 393.927 225.271 401.424C222.762 408.921 208.733 423.473 214.797 435.408C220.861 447.342 242.772 433.892 250.628 419.422C258.483 404.952 254.652 400.431 254.652 400.431V378.382L227.283 362.451Z" fill="white"/>
<path d="M254.76 378.436L227.198 362.45C227.198 362.45 227.694 393.926 225.186 401.423C224.82 402.461 224.368 403.466 223.835 404.427C229.069 406.12 234.683 406.244 239.986 404.786C245.562 402.437 250.571 398.922 254.677 394.477L254.76 378.436Z" fill="#37474F"/>
<path opacity="0.5" d="M254.76 378.436L227.198 362.45C227.198 362.45 227.694 393.926 225.186 401.423C224.82 402.461 224.368 403.466 223.835 404.427C229.069 406.12 234.683 406.244 239.986 404.786C245.562 402.437 250.571 398.922 254.677 394.477L254.76 378.436Z" fill="white"/>
<path d="M227.283 362.451C227.283 362.451 227.779 393.927 225.271 401.424C222.762 408.921 208.733 423.473 214.797 435.408C220.861 447.342 242.772 433.892 250.628 419.422C258.483 404.952 254.652 400.431 254.652 400.431V378.382L227.283 362.451Z" stroke="#263238" stroke-linecap="round" stroke-linejoin="round"/>
<path d="M221.77 341.476C221.77 341.476 212.288 332.491 209.78 338.995C207.272 345.5 213.777 354.981 217.277 355.974L220.777 356.966C222.329 364.086 225.787 370.65 230.783 375.956C238.776 383.949 247.761 387.946 257.738 382.957C267.716 377.968 275.736 365.455 278.217 350.489C279.726 343.094 280.236 335.529 279.733 327.998C279.733 325.49 275.24 307.519 262.231 303.027C249.222 298.534 250.737 304.019 240.76 315.512C233.852 323.729 227.508 332.404 221.77 341.476V341.476Z" fill="white"/>
<path d="M277.006 318.765C277.832 327.033 279.211 348.477 273.257 358.757C265.815 371.601 258.346 383.811 243.462 377.72C228.579 371.629 223.811 356.029 223.811 356.029C223.811 356.029 219.759 356.718 213.64 351.288C213.014 350.701 212.285 350.234 211.49 349.91C212.701 352.519 214.735 354.659 217.278 356.001L220.779 356.993C222.33 364.114 225.789 370.678 230.784 375.984C238.777 383.977 247.762 387.973 257.74 382.985C267.717 377.996 275.738 365.483 278.218 350.516C279.728 343.121 280.238 335.557 279.734 328.026C279.291 324.82 278.372 321.698 277.006 318.765V318.765Z" fill="#37474F"/>
<path opacity="0.5" d="M277.006 318.765C277.832 327.033 279.211 348.477 273.257 358.757C265.815 371.601 258.346 383.811 243.462 377.72C228.579 371.629 223.811 356.029 223.811 356.029C223.811 356.029 219.759 356.718 213.64 351.288C213.014 350.701 212.285 350.234 211.49 349.91C212.701 352.519 214.735 354.659 217.278 356.001L220.779 356.993C222.33 364.114 225.789 370.678 230.784 375.984C238.777 383.977 247.762 387.973 257.74 382.985C267.717 377.996 275.738 365.483 278.218 350.516C279.728 343.121 280.238 335.557 279.734 328.026C279.291 324.82 278.372 321.698 277.006 318.765V318.765Z" fill="white"/>
<path d="M221.77 341.476C221.77 341.476 212.288 332.491 209.78 338.995C207.272 345.5 213.777 354.981 217.277 355.974L220.777 356.966C222.329 364.086 225.787 370.65 230.783 375.956C238.776 383.949 247.761 387.946 257.738 382.957C267.716 377.968 275.736 365.455 278.217 350.489C279.726 343.094 280.236 335.529 279.733 327.998C279.733 325.49 275.24 307.519 262.231 303.027C249.222 298.534 250.737 304.019 240.76 315.512C233.852 323.729 227.508 332.404 221.77 341.476V341.476Z" stroke="#263238" stroke-linecap="round" stroke-linejoin="round"/>
<path d="M263.253 331.498C263.253 331.498 259.752 337.975 261.241 339.491C262.729 341.007 267.745 343.984 265.237 345.472C262.871 346.494 260.318 347.011 257.74 346.988" stroke="#263238" stroke-linecap="round" stroke-linejoin="round"/>
<path d="M243.27 349.083C243.27 349.083 249.251 356.084 268.241 353.576C268.241 353.576 256.747 365.069 251.704 365.069C246.66 365.069 243.27 349.083 243.27 349.083Z" stroke="#263238" stroke-linecap="round" stroke-linejoin="round"/>
<path d="M239.768 332.987C239.768 332.987 246.768 330.507 250.792 334.503" stroke="#263238" stroke-linecap="round" stroke-linejoin="round"/>
<path d="M264.74 336.984C264.74 336.984 272.733 334.503 274.222 339.988" stroke="#263238" stroke-linecap="round" stroke-linejoin="round"/>
<path d="M239.273 324.499C240.841 322.688 242.944 321.423 245.278 320.888C247.612 320.353 250.056 320.575 252.255 321.522" stroke="#263238" stroke-linecap="round" stroke-linejoin="round"/>
<path d="M265.731 327.033C265.731 327.033 272.236 321.025 276.756 332.022" stroke="#263238" stroke-linecap="round" stroke-linejoin="round"/>
</g>
<defs>
<clipPath id="clip0_705_2342">
<rect width="3840" height="1080" fill="white"/>
</clipPath>
</defs>
</svg>
