<svg width="34" height="33" viewBox="0 0 34 33" fill="none" xmlns="http://www.w3.org/2000/svg">
<path d="M17.0937 0C7.97955 0 0.59375 7.38896 0.59375 16.4989C0.59375 25.6143 7.97955 33 17.0937 33C26.208 33 33.5937 25.6154 33.5937 16.4989C33.5937 7.38896 26.2069 0 17.0937 0ZM14.6162 26.3341C14.2454 26.7006 13.6489 26.7006 13.2825 26.3341L12.987 26.0386L12.6653 25.719L11.2848 24.3383L11.263 24.3067L4.93058 17.9254C4.56199 17.559 4.56199 16.9581 4.93058 16.5949L6.92615 14.599C7.29691 14.2293 7.88904 14.2293 8.25762 14.599L13.9554 20.3379L25.9288 8.3607C26.2952 7.99316 26.8917 7.99316 27.2581 8.3607L29.2537 10.3587C29.6222 10.7252 29.6222 11.3239 29.2537 11.6904L14.6162 26.3341Z" fill="#C4C4C4"/>
</svg>
