<svg width="33" height="33" viewBox="0 0 33 33" fill="none" xmlns="http://www.w3.org/2000/svg">
<g clip-path="url(#clip0)">
<path d="M20.0297 0.553998C19.9496 0.425908 19.8204 0.336477 19.6723 0.306581C17.5806 -0.10024 15.4301 -0.10024 13.3384 0.306581C13.1904 0.336477 13.0611 0.425908 12.981 0.553998C12.8981 0.684794 12.8741 0.844456 12.9151 0.993873L14.3281 6.32707C14.4007 6.59858 14.6662 6.77165 14.9439 6.72841C15.9677 6.56895 17.01 6.56895 18.0338 6.72841H18.1163C18.3719 6.73718 18.5998 6.56856 18.6661 6.32153L20.0956 0.993808C20.1366 0.84452 20.1127 0.684794 20.0297 0.553998Z" fill="#FF9900"/>
<path d="M13.3329 6.60759L11.9033 1.27439C11.8629 1.12761 11.7633 1.00416 11.6284 0.933481C11.4951 0.861317 11.338 0.8474 11.1941 0.895015C9.17183 1.58076 7.30376 2.65671 5.69593 4.06196C5.5815 4.16234 5.51385 4.3057 5.50902 4.45783C5.49929 4.6046 5.54877 4.74919 5.64645 4.85917L9.5501 8.76289C9.65384 8.86579 9.7943 8.9232 9.9405 8.92236C10.0664 8.92288 10.1887 8.88022 10.2869 8.80142C11.0881 8.14957 11.9883 7.6298 12.9535 7.26196C13.2337 7.17923 13.4003 6.89186 13.3329 6.60759Z" fill="#FF9900"/>
<path d="M8.77481 9.56541L4.87115 5.66176C4.76336 5.55468 4.61613 5.49695 4.46426 5.50229C4.31433 5.49849 4.16936 5.55609 4.06292 5.66176C2.65773 7.26965 1.58172 9.13765 0.895974 11.1599C0.848359 11.3038 0.86234 11.461 0.934439 11.5942C1.00512 11.7291 1.12851 11.8286 1.27535 11.8692L6.60855 13.2987C6.65604 13.3041 6.70397 13.3041 6.75152 13.2987C6.97819 13.2981 7.18122 13.1583 7.26285 12.9468C7.63243 11.9813 8.15401 11.0811 8.80786 10.2802C8.97455 10.0664 8.96056 9.76296 8.77481 9.56541Z" fill="#FF9900"/>
<path d="M6.72975 18.0438C6.64831 17.5329 6.60785 17.0162 6.60881 16.4988C6.60334 15.9762 6.64013 15.454 6.7188 14.9373C6.76203 14.6596 6.5889 14.394 6.31745 14.3215L0.989669 12.892C0.978136 12.8889 0.966474 12.8861 0.954747 12.8838C0.656945 12.8243 0.367389 13.0176 0.307919 13.3154C-0.10264 15.4067 -0.10264 17.5579 0.307919 19.6493C0.360946 19.9094 0.59232 20.0945 0.857713 20.0891C0.9052 20.0945 0.953137 20.0945 1.00069 20.0891L6.32841 18.6596C6.59992 18.587 6.77305 18.3215 6.72975 18.0438Z" fill="#FF9900"/>
<path d="M8.8083 22.7172C8.16024 21.9081 7.64601 21.0004 7.28533 20.0286C7.18507 19.7659 6.9028 19.6213 6.63102 19.6932L1.29783 21.1227C1.15105 21.1632 1.0276 21.2627 0.956918 21.3977C0.884755 21.531 0.870838 21.6881 0.918452 21.832C1.6042 23.8542 2.68021 25.7223 4.08539 27.3301C4.18578 27.4446 4.32914 27.5122 4.48126 27.5171C4.62681 27.5151 4.76624 27.4581 4.87165 27.3576L8.77537 23.4539C8.97382 23.2532 8.98806 22.9348 8.8083 22.7172Z" fill="#FF9900"/>
<path d="M12.9533 25.7414C11.9878 25.3718 11.0875 24.8502 10.2866 24.1964C10.0729 24.0296 9.76938 24.0436 9.5719 24.2293L5.66818 28.1331C5.5611 28.2409 5.50337 28.3881 5.50872 28.54C5.49267 28.6968 5.54473 28.853 5.65169 28.9688C7.25958 30.374 9.12758 31.45 11.1498 32.1358C11.2082 32.1441 11.2674 32.1441 11.3258 32.1358C11.4161 32.1353 11.5048 32.1126 11.5842 32.0698C11.7191 31.9991 11.8186 31.8757 11.8592 31.7289L13.2887 26.3957C13.3605 26.1239 13.2159 25.8417 12.9533 25.7414Z" fill="#FF9900"/>
<path d="M20.0956 32.0092L18.666 26.6814C18.5935 26.4099 18.3279 26.2368 18.0502 26.2801C17.0264 26.4395 15.9841 26.4395 14.9603 26.2801C14.6826 26.2368 14.417 26.41 14.3445 26.6814L12.915 32.0092C12.8757 32.1568 12.8996 32.3142 12.981 32.4435C13.0611 32.5716 13.1903 32.661 13.3384 32.6909C15.4297 33.1015 17.5809 33.1015 19.6722 32.6909C19.8203 32.661 19.9496 32.5716 20.0296 32.4435C20.111 32.3142 20.1349 32.1568 20.0956 32.0092Z" fill="#FF9900"/>
<path d="M27.364 28.1379L23.4603 24.2342C23.261 24.0341 22.9426 24.0174 22.7235 24.1957C21.9227 24.8496 21.0224 25.3711 20.0569 25.7407C19.7943 25.841 19.6496 26.1232 19.7215 26.395L21.107 31.6952C21.1475 31.842 21.2471 31.9655 21.382 32.0361C21.4614 32.079 21.5501 32.1017 21.6404 32.1021C21.6988 32.1105 21.758 32.1105 21.8164 32.1021C23.8386 31.4164 25.7067 30.3404 27.3145 28.9352C27.4289 28.8348 27.4966 28.6914 27.5014 28.5393C27.5112 28.3925 27.4617 28.2479 27.364 28.1379Z" fill="#FF9900"/>
<path d="M32.0763 21.4191C32.0057 21.2842 31.8823 21.1847 31.7354 21.1442L26.4022 19.7147C26.1305 19.6428 25.8483 19.7874 25.7479 20.05C25.3784 21.0155 24.8568 21.9158 24.2029 22.7167C24.0137 22.9421 24.0355 23.2765 24.2524 23.4754L28.1561 27.3791C28.2615 27.4796 28.4009 27.5365 28.5465 27.5386C28.6987 27.5338 28.842 27.4661 28.9424 27.3517C30.3476 25.7438 31.4236 23.8758 32.1093 21.8535C32.1586 21.7104 32.1467 21.5532 32.0763 21.4191Z" fill="#FF9900"/>
<path d="M32.6811 13.3485C32.6788 13.3368 32.676 13.3251 32.6729 13.3136C32.5942 13.0203 32.2926 12.8465 31.9994 12.9252L26.6716 14.3547C26.4001 14.4273 26.227 14.6929 26.2703 14.9705C26.4316 15.9942 26.4316 17.0368 26.2703 18.0605C26.2271 18.3382 26.4002 18.6037 26.6716 18.6762L31.9994 20.1058C32.0468 20.1112 32.0948 20.1112 32.1423 20.1058C32.4078 20.1111 32.6391 19.9261 32.6921 19.6659C32.8979 18.6228 33.001 17.5621 33 16.499C32.9963 15.4409 32.8895 14.3858 32.6811 13.3485Z" fill="#FF9900"/>
<path d="M32.1099 11.1873C31.4241 9.16504 30.3481 7.29697 28.9429 5.68915C28.8425 5.57472 28.6992 5.50707 28.5471 5.50223C28.3998 5.48851 28.2536 5.53851 28.1457 5.63966L24.242 9.54338C24.0419 9.7426 24.0252 10.0611 24.2035 10.2802C24.8558 11.0759 25.3773 11.9705 25.7485 12.9303C25.8302 13.1418 26.0332 13.2815 26.2599 13.2821C26.3074 13.2876 26.3554 13.2876 26.4028 13.2821L31.7306 11.8526C31.8773 11.8121 32.0008 11.7126 32.0715 11.5777C32.1318 11.4567 32.1455 11.3177 32.1099 11.1873Z" fill="#FF9900"/>
<path d="M27.3591 4.05608C25.7512 2.65089 23.8832 1.57488 21.861 0.889138C21.7171 0.841523 21.5599 0.855504 21.4266 0.927603C21.2917 0.998285 21.1922 1.12167 21.1517 1.26851L19.7222 6.60171C19.6443 6.86929 19.779 7.15273 20.0356 7.26149C21.0011 7.63107 21.9013 8.15264 22.7022 8.80649C22.8004 8.88529 22.9227 8.92801 23.0486 8.92743C23.1947 8.92827 23.3352 8.87092 23.439 8.76796L27.3427 4.86425C27.4498 4.75645 27.5075 4.60922 27.5022 4.45736C27.5104 4.30994 27.4588 4.16523 27.3591 4.05608Z" fill="#FF9900"/>
</g>
<defs>
<clipPath id="clip0">
<rect width="33" height="33" fill="white"/>
</clipPath>
</defs>
</svg>
