<svg width="30" height="30" viewBox="0 0 30 30" fill="none" xmlns="http://www.w3.org/2000/svg">
<path d="M15 0C6.7157 0 0 6.7157 0 15C0 23.2843 6.7157 30 15 30C23.2843 30 30 23.2843 30 15C30 6.7157 23.2843 0 15 0ZM24.0706 10.9998C24.0776 11.1769 24.0813 11.3543 24.0813 11.5326C24.0813 17.9402 19.2055 24.5678 11.0461 24.5678C8.55192 24.5678 6.12338 23.8561 4.02322 22.5091C3.97933 22.4811 3.96123 22.4268 3.97872 22.378C3.99621 22.3295 4.04563 22.2994 4.09627 22.3053C4.44859 22.3473 4.8089 22.3682 5.16644 22.3682C7.10701 22.3682 8.94414 21.7682 10.498 20.6299C8.6354 20.4727 7.03458 19.2123 6.45882 17.4141C6.44685 17.3767 6.45545 17.3359 6.48123 17.3064C6.50731 17.2769 6.54721 17.264 6.58527 17.2711C7.10148 17.369 7.62629 17.3754 8.13207 17.2932C6.21115 16.6963 4.86107 14.8969 4.86107 12.8483L4.86169 12.7887C4.86261 12.7498 4.88379 12.7142 4.91754 12.6948C4.951 12.6752 4.99274 12.6749 5.0265 12.6939C5.52737 12.972 6.08164 13.1506 6.65033 13.219C5.54639 12.3391 4.89821 11.0053 4.89821 9.57852C4.89821 8.7554 5.11611 7.94639 5.52859 7.23898C5.54701 7.20737 5.57954 7.18711 5.61575 7.18435C5.65228 7.18066 5.68757 7.19662 5.71059 7.22486C7.97003 9.99621 11.2935 11.7026 14.8475 11.922C14.7882 11.6237 14.7582 11.3162 14.7582 11.0059C14.7582 8.4399 16.8457 6.35263 19.4115 6.35263C20.6728 6.35263 21.8919 6.871 22.7656 7.77698C23.7505 7.57627 24.6887 7.21412 25.5554 6.70036C25.595 6.67673 25.6447 6.68041 25.6812 6.70895C25.7168 6.7378 25.7316 6.78568 25.7174 6.82987C25.4237 7.74844 24.851 8.54977 24.0816 9.12829C24.8062 9.00215 25.5094 8.78916 26.1781 8.49238C26.2229 8.47182 26.276 8.48471 26.3082 8.52245C26.3402 8.56051 26.3429 8.61483 26.3153 8.65596C25.7061 9.56777 24.9511 10.3562 24.0706 10.9998Z" fill="#222A35"/>
</svg>
